%TF.GenerationSoftware,KiCad,Pcbnew,(6.0.2)*%
%TF.CreationDate,2022-12-30T16:08:33-06:00*%
%TF.ProjectId,REF1329_Altera,52454631-3332-4395-9f41-6c746572612e,rev?*%
%TF.SameCoordinates,Original*%
%TF.FileFunction,Legend,Top*%
%TF.FilePolarity,Positive*%
%FSLAX46Y46*%
G04 Gerber Fmt 4.6, Leading zero omitted, Abs format (unit mm)*
G04 Created by KiCad (PCBNEW (6.0.2)) date 2022-12-30 16:08:33*
%MOMM*%
%LPD*%
G01*
G04 APERTURE LIST*
%ADD10C,0.150000*%
%ADD11C,0.125000*%
%ADD12C,0.120000*%
%ADD13C,0.200000*%
%ADD14C,0.250000*%
G04 APERTURE END LIST*
D10*
X181709000Y-73933000D02*
X185329000Y-73933000D01*
X185329000Y-73933000D02*
X185329000Y-75808000D01*
X185329000Y-75808000D02*
X181709000Y-75808000D01*
X181709000Y-75808000D02*
X181709000Y-73933000D01*
X181709000Y-83474000D02*
X185364000Y-83474000D01*
X185364000Y-83474000D02*
X185364000Y-85364000D01*
X185364000Y-85364000D02*
X181709000Y-85364000D01*
X181709000Y-85364000D02*
X181709000Y-83474000D01*
X181709000Y-85372000D02*
X185364000Y-85372000D01*
X185364000Y-85372000D02*
X185364000Y-87198000D01*
X185364000Y-87198000D02*
X181709000Y-87198000D01*
X181709000Y-87198000D02*
X181709000Y-85372000D01*
X181709000Y-77714000D02*
X185295000Y-77714000D01*
X185295000Y-77714000D02*
X185295000Y-79629000D01*
X185295000Y-79629000D02*
X181709000Y-79629000D01*
X181709000Y-79629000D02*
X181709000Y-77714000D01*
X181709000Y-75816000D02*
X185306000Y-75816000D01*
X185306000Y-75816000D02*
X185306000Y-77714000D01*
X185306000Y-77714000D02*
X181709000Y-77714000D01*
X181709000Y-77714000D02*
X181709000Y-75816000D01*
X181709000Y-79621000D02*
X185322000Y-79621000D01*
X185322000Y-79621000D02*
X185322000Y-81544000D01*
X185322000Y-81544000D02*
X181709000Y-81544000D01*
X181709000Y-81544000D02*
X181709000Y-79621000D01*
X181709000Y-81544000D02*
X185329000Y-81544000D01*
X185329000Y-81544000D02*
X185329000Y-83449000D01*
X185329000Y-83449000D02*
X181709000Y-83449000D01*
X181709000Y-83449000D02*
X181709000Y-81544000D01*
X181709000Y-71984000D02*
X185310000Y-71984000D01*
X185310000Y-71984000D02*
X185310000Y-73914000D01*
X185310000Y-73914000D02*
X181709000Y-73914000D01*
X181709000Y-73914000D02*
X181709000Y-71984000D01*
D11*
X108697571Y-82872380D02*
X108769000Y-82896190D01*
X108888047Y-82896190D01*
X108935666Y-82872380D01*
X108959476Y-82848571D01*
X108983285Y-82800952D01*
X108983285Y-82753333D01*
X108959476Y-82705714D01*
X108935666Y-82681904D01*
X108888047Y-82658095D01*
X108792809Y-82634285D01*
X108745190Y-82610476D01*
X108721380Y-82586666D01*
X108697571Y-82539047D01*
X108697571Y-82491428D01*
X108721380Y-82443809D01*
X108745190Y-82420000D01*
X108792809Y-82396190D01*
X108911857Y-82396190D01*
X108983285Y-82420000D01*
X109173761Y-82872380D02*
X109245190Y-82896190D01*
X109364238Y-82896190D01*
X109411857Y-82872380D01*
X109435666Y-82848571D01*
X109459476Y-82800952D01*
X109459476Y-82753333D01*
X109435666Y-82705714D01*
X109411857Y-82681904D01*
X109364238Y-82658095D01*
X109269000Y-82634285D01*
X109221380Y-82610476D01*
X109197571Y-82586666D01*
X109173761Y-82539047D01*
X109173761Y-82491428D01*
X109197571Y-82443809D01*
X109221380Y-82420000D01*
X109269000Y-82396190D01*
X109388047Y-82396190D01*
X109459476Y-82420000D01*
X109602333Y-82396190D02*
X109888047Y-82396190D01*
X109745190Y-82896190D02*
X109745190Y-82396190D01*
X107757095Y-83248809D02*
X107780904Y-83225000D01*
X107828523Y-83201190D01*
X107947571Y-83201190D01*
X107995190Y-83225000D01*
X108019000Y-83248809D01*
X108042809Y-83296428D01*
X108042809Y-83344047D01*
X108019000Y-83415476D01*
X107733285Y-83701190D01*
X108042809Y-83701190D01*
X108328523Y-83415476D02*
X108280904Y-83391666D01*
X108257095Y-83367857D01*
X108233285Y-83320238D01*
X108233285Y-83296428D01*
X108257095Y-83248809D01*
X108280904Y-83225000D01*
X108328523Y-83201190D01*
X108423761Y-83201190D01*
X108471380Y-83225000D01*
X108495190Y-83248809D01*
X108519000Y-83296428D01*
X108519000Y-83320238D01*
X108495190Y-83367857D01*
X108471380Y-83391666D01*
X108423761Y-83415476D01*
X108328523Y-83415476D01*
X108280904Y-83439285D01*
X108257095Y-83463095D01*
X108233285Y-83510714D01*
X108233285Y-83605952D01*
X108257095Y-83653571D01*
X108280904Y-83677380D01*
X108328523Y-83701190D01*
X108423761Y-83701190D01*
X108471380Y-83677380D01*
X108495190Y-83653571D01*
X108519000Y-83605952D01*
X108519000Y-83510714D01*
X108495190Y-83463095D01*
X108471380Y-83439285D01*
X108423761Y-83415476D01*
X108971380Y-83701190D02*
X108733285Y-83701190D01*
X108733285Y-83201190D01*
X109304714Y-83439285D02*
X109138047Y-83439285D01*
X109138047Y-83701190D02*
X109138047Y-83201190D01*
X109376142Y-83201190D01*
X109661857Y-83201190D02*
X109709476Y-83201190D01*
X109757095Y-83225000D01*
X109780904Y-83248809D01*
X109804714Y-83296428D01*
X109828523Y-83391666D01*
X109828523Y-83510714D01*
X109804714Y-83605952D01*
X109780904Y-83653571D01*
X109757095Y-83677380D01*
X109709476Y-83701190D01*
X109661857Y-83701190D01*
X109614238Y-83677380D01*
X109590428Y-83653571D01*
X109566619Y-83605952D01*
X109542809Y-83510714D01*
X109542809Y-83391666D01*
X109566619Y-83296428D01*
X109590428Y-83248809D01*
X109614238Y-83225000D01*
X109661857Y-83201190D01*
X110257095Y-83367857D02*
X110257095Y-83701190D01*
X110138047Y-83177380D02*
X110019000Y-83534523D01*
X110328523Y-83534523D01*
X110614238Y-83201190D02*
X110661857Y-83201190D01*
X110709476Y-83225000D01*
X110733285Y-83248809D01*
X110757095Y-83296428D01*
X110780904Y-83391666D01*
X110780904Y-83510714D01*
X110757095Y-83605952D01*
X110733285Y-83653571D01*
X110709476Y-83677380D01*
X110661857Y-83701190D01*
X110614238Y-83701190D01*
X110566619Y-83677380D01*
X110542809Y-83653571D01*
X110519000Y-83605952D01*
X110495190Y-83510714D01*
X110495190Y-83391666D01*
X110519000Y-83296428D01*
X110542809Y-83248809D01*
X110566619Y-83225000D01*
X110614238Y-83201190D01*
X107745190Y-84053809D02*
X107769000Y-84030000D01*
X107816619Y-84006190D01*
X107935666Y-84006190D01*
X107983285Y-84030000D01*
X108007095Y-84053809D01*
X108030904Y-84101428D01*
X108030904Y-84149047D01*
X108007095Y-84220476D01*
X107721380Y-84506190D01*
X108030904Y-84506190D01*
X108269000Y-84506190D02*
X108364238Y-84506190D01*
X108411857Y-84482380D01*
X108435666Y-84458571D01*
X108483285Y-84387142D01*
X108507095Y-84291904D01*
X108507095Y-84101428D01*
X108483285Y-84053809D01*
X108459476Y-84030000D01*
X108411857Y-84006190D01*
X108316619Y-84006190D01*
X108269000Y-84030000D01*
X108245190Y-84053809D01*
X108221380Y-84101428D01*
X108221380Y-84220476D01*
X108245190Y-84268095D01*
X108269000Y-84291904D01*
X108316619Y-84315714D01*
X108411857Y-84315714D01*
X108459476Y-84291904D01*
X108483285Y-84268095D01*
X108507095Y-84220476D01*
X108959476Y-84506190D02*
X108721380Y-84506190D01*
X108721380Y-84006190D01*
X109126142Y-84244285D02*
X109292809Y-84244285D01*
X109364238Y-84506190D02*
X109126142Y-84506190D01*
X109126142Y-84006190D01*
X109364238Y-84006190D01*
X109673761Y-84006190D02*
X109721380Y-84006190D01*
X109769000Y-84030000D01*
X109792809Y-84053809D01*
X109816619Y-84101428D01*
X109840428Y-84196666D01*
X109840428Y-84315714D01*
X109816619Y-84410952D01*
X109792809Y-84458571D01*
X109769000Y-84482380D01*
X109721380Y-84506190D01*
X109673761Y-84506190D01*
X109626142Y-84482380D01*
X109602333Y-84458571D01*
X109578523Y-84410952D01*
X109554714Y-84315714D01*
X109554714Y-84196666D01*
X109578523Y-84101428D01*
X109602333Y-84053809D01*
X109626142Y-84030000D01*
X109673761Y-84006190D01*
X110316619Y-84506190D02*
X110030904Y-84506190D01*
X110173761Y-84506190D02*
X110173761Y-84006190D01*
X110126142Y-84077619D01*
X110078523Y-84125238D01*
X110030904Y-84149047D01*
X110626142Y-84006190D02*
X110673761Y-84006190D01*
X110721380Y-84030000D01*
X110745190Y-84053809D01*
X110769000Y-84101428D01*
X110792809Y-84196666D01*
X110792809Y-84315714D01*
X110769000Y-84410952D01*
X110745190Y-84458571D01*
X110721380Y-84482380D01*
X110673761Y-84506190D01*
X110626142Y-84506190D01*
X110578523Y-84482380D01*
X110554714Y-84458571D01*
X110530904Y-84410952D01*
X110507095Y-84315714D01*
X110507095Y-84196666D01*
X110530904Y-84101428D01*
X110554714Y-84053809D01*
X110578523Y-84030000D01*
X110626142Y-84006190D01*
X108563571Y-107004380D02*
X108635000Y-107028190D01*
X108754047Y-107028190D01*
X108801666Y-107004380D01*
X108825476Y-106980571D01*
X108849285Y-106932952D01*
X108849285Y-106885333D01*
X108825476Y-106837714D01*
X108801666Y-106813904D01*
X108754047Y-106790095D01*
X108658809Y-106766285D01*
X108611190Y-106742476D01*
X108587380Y-106718666D01*
X108563571Y-106671047D01*
X108563571Y-106623428D01*
X108587380Y-106575809D01*
X108611190Y-106552000D01*
X108658809Y-106528190D01*
X108777857Y-106528190D01*
X108849285Y-106552000D01*
X109039761Y-107004380D02*
X109111190Y-107028190D01*
X109230238Y-107028190D01*
X109277857Y-107004380D01*
X109301666Y-106980571D01*
X109325476Y-106932952D01*
X109325476Y-106885333D01*
X109301666Y-106837714D01*
X109277857Y-106813904D01*
X109230238Y-106790095D01*
X109135000Y-106766285D01*
X109087380Y-106742476D01*
X109063571Y-106718666D01*
X109039761Y-106671047D01*
X109039761Y-106623428D01*
X109063571Y-106575809D01*
X109087380Y-106552000D01*
X109135000Y-106528190D01*
X109254047Y-106528190D01*
X109325476Y-106552000D01*
X109468333Y-106528190D02*
X109754047Y-106528190D01*
X109611190Y-107028190D02*
X109611190Y-106528190D01*
X107623095Y-107380809D02*
X107646904Y-107357000D01*
X107694523Y-107333190D01*
X107813571Y-107333190D01*
X107861190Y-107357000D01*
X107885000Y-107380809D01*
X107908809Y-107428428D01*
X107908809Y-107476047D01*
X107885000Y-107547476D01*
X107599285Y-107833190D01*
X107908809Y-107833190D01*
X108194523Y-107547476D02*
X108146904Y-107523666D01*
X108123095Y-107499857D01*
X108099285Y-107452238D01*
X108099285Y-107428428D01*
X108123095Y-107380809D01*
X108146904Y-107357000D01*
X108194523Y-107333190D01*
X108289761Y-107333190D01*
X108337380Y-107357000D01*
X108361190Y-107380809D01*
X108385000Y-107428428D01*
X108385000Y-107452238D01*
X108361190Y-107499857D01*
X108337380Y-107523666D01*
X108289761Y-107547476D01*
X108194523Y-107547476D01*
X108146904Y-107571285D01*
X108123095Y-107595095D01*
X108099285Y-107642714D01*
X108099285Y-107737952D01*
X108123095Y-107785571D01*
X108146904Y-107809380D01*
X108194523Y-107833190D01*
X108289761Y-107833190D01*
X108337380Y-107809380D01*
X108361190Y-107785571D01*
X108385000Y-107737952D01*
X108385000Y-107642714D01*
X108361190Y-107595095D01*
X108337380Y-107571285D01*
X108289761Y-107547476D01*
X108837380Y-107833190D02*
X108599285Y-107833190D01*
X108599285Y-107333190D01*
X109170714Y-107571285D02*
X109004047Y-107571285D01*
X109004047Y-107833190D02*
X109004047Y-107333190D01*
X109242142Y-107333190D01*
X109527857Y-107333190D02*
X109575476Y-107333190D01*
X109623095Y-107357000D01*
X109646904Y-107380809D01*
X109670714Y-107428428D01*
X109694523Y-107523666D01*
X109694523Y-107642714D01*
X109670714Y-107737952D01*
X109646904Y-107785571D01*
X109623095Y-107809380D01*
X109575476Y-107833190D01*
X109527857Y-107833190D01*
X109480238Y-107809380D01*
X109456428Y-107785571D01*
X109432619Y-107737952D01*
X109408809Y-107642714D01*
X109408809Y-107523666D01*
X109432619Y-107428428D01*
X109456428Y-107380809D01*
X109480238Y-107357000D01*
X109527857Y-107333190D01*
X110123095Y-107499857D02*
X110123095Y-107833190D01*
X110004047Y-107309380D02*
X109885000Y-107666523D01*
X110194523Y-107666523D01*
X110480238Y-107333190D02*
X110527857Y-107333190D01*
X110575476Y-107357000D01*
X110599285Y-107380809D01*
X110623095Y-107428428D01*
X110646904Y-107523666D01*
X110646904Y-107642714D01*
X110623095Y-107737952D01*
X110599285Y-107785571D01*
X110575476Y-107809380D01*
X110527857Y-107833190D01*
X110480238Y-107833190D01*
X110432619Y-107809380D01*
X110408809Y-107785571D01*
X110385000Y-107737952D01*
X110361190Y-107642714D01*
X110361190Y-107523666D01*
X110385000Y-107428428D01*
X110408809Y-107380809D01*
X110432619Y-107357000D01*
X110480238Y-107333190D01*
X107611190Y-108185809D02*
X107635000Y-108162000D01*
X107682619Y-108138190D01*
X107801666Y-108138190D01*
X107849285Y-108162000D01*
X107873095Y-108185809D01*
X107896904Y-108233428D01*
X107896904Y-108281047D01*
X107873095Y-108352476D01*
X107587380Y-108638190D01*
X107896904Y-108638190D01*
X108135000Y-108638190D02*
X108230238Y-108638190D01*
X108277857Y-108614380D01*
X108301666Y-108590571D01*
X108349285Y-108519142D01*
X108373095Y-108423904D01*
X108373095Y-108233428D01*
X108349285Y-108185809D01*
X108325476Y-108162000D01*
X108277857Y-108138190D01*
X108182619Y-108138190D01*
X108135000Y-108162000D01*
X108111190Y-108185809D01*
X108087380Y-108233428D01*
X108087380Y-108352476D01*
X108111190Y-108400095D01*
X108135000Y-108423904D01*
X108182619Y-108447714D01*
X108277857Y-108447714D01*
X108325476Y-108423904D01*
X108349285Y-108400095D01*
X108373095Y-108352476D01*
X108825476Y-108638190D02*
X108587380Y-108638190D01*
X108587380Y-108138190D01*
X108992142Y-108376285D02*
X109158809Y-108376285D01*
X109230238Y-108638190D02*
X108992142Y-108638190D01*
X108992142Y-108138190D01*
X109230238Y-108138190D01*
X109539761Y-108138190D02*
X109587380Y-108138190D01*
X109635000Y-108162000D01*
X109658809Y-108185809D01*
X109682619Y-108233428D01*
X109706428Y-108328666D01*
X109706428Y-108447714D01*
X109682619Y-108542952D01*
X109658809Y-108590571D01*
X109635000Y-108614380D01*
X109587380Y-108638190D01*
X109539761Y-108638190D01*
X109492142Y-108614380D01*
X109468333Y-108590571D01*
X109444523Y-108542952D01*
X109420714Y-108447714D01*
X109420714Y-108328666D01*
X109444523Y-108233428D01*
X109468333Y-108185809D01*
X109492142Y-108162000D01*
X109539761Y-108138190D01*
X110182619Y-108638190D02*
X109896904Y-108638190D01*
X110039761Y-108638190D02*
X110039761Y-108138190D01*
X109992142Y-108209619D01*
X109944523Y-108257238D01*
X109896904Y-108281047D01*
X110492142Y-108138190D02*
X110539761Y-108138190D01*
X110587380Y-108162000D01*
X110611190Y-108185809D01*
X110635000Y-108233428D01*
X110658809Y-108328666D01*
X110658809Y-108447714D01*
X110635000Y-108542952D01*
X110611190Y-108590571D01*
X110587380Y-108614380D01*
X110539761Y-108638190D01*
X110492142Y-108638190D01*
X110444523Y-108614380D01*
X110420714Y-108590571D01*
X110396904Y-108542952D01*
X110373095Y-108447714D01*
X110373095Y-108328666D01*
X110396904Y-108233428D01*
X110420714Y-108185809D01*
X110444523Y-108162000D01*
X110492142Y-108138190D01*
D10*
X131778809Y-108278666D02*
X132255000Y-108278666D01*
X131683571Y-108564380D02*
X132016904Y-107564380D01*
X132350238Y-108564380D01*
X132826428Y-108564380D02*
X132731190Y-108516761D01*
X132683571Y-108421523D01*
X132683571Y-107564380D01*
X133064523Y-107897714D02*
X133445476Y-107897714D01*
X133207380Y-107564380D02*
X133207380Y-108421523D01*
X133255000Y-108516761D01*
X133350238Y-108564380D01*
X133445476Y-108564380D01*
X134159761Y-108516761D02*
X134064523Y-108564380D01*
X133874047Y-108564380D01*
X133778809Y-108516761D01*
X133731190Y-108421523D01*
X133731190Y-108040571D01*
X133778809Y-107945333D01*
X133874047Y-107897714D01*
X134064523Y-107897714D01*
X134159761Y-107945333D01*
X134207380Y-108040571D01*
X134207380Y-108135809D01*
X133731190Y-108231047D01*
X134635952Y-108564380D02*
X134635952Y-107897714D01*
X134635952Y-108088190D02*
X134683571Y-107992952D01*
X134731190Y-107945333D01*
X134826428Y-107897714D01*
X134921666Y-107897714D01*
X135683571Y-108564380D02*
X135683571Y-108040571D01*
X135635952Y-107945333D01*
X135540714Y-107897714D01*
X135350238Y-107897714D01*
X135255000Y-107945333D01*
X135683571Y-108516761D02*
X135588333Y-108564380D01*
X135350238Y-108564380D01*
X135255000Y-108516761D01*
X135207380Y-108421523D01*
X135207380Y-108326285D01*
X135255000Y-108231047D01*
X135350238Y-108183428D01*
X135588333Y-108183428D01*
X135683571Y-108135809D01*
X131040714Y-109650571D02*
X131374047Y-109650571D01*
X131516904Y-110174380D02*
X131040714Y-110174380D01*
X131040714Y-109174380D01*
X131516904Y-109174380D01*
X131945476Y-110174380D02*
X131945476Y-109174380D01*
X132326428Y-109174380D01*
X132421666Y-109222000D01*
X132469285Y-109269619D01*
X132516904Y-109364857D01*
X132516904Y-109507714D01*
X132469285Y-109602952D01*
X132421666Y-109650571D01*
X132326428Y-109698190D01*
X131945476Y-109698190D01*
X132945476Y-110174380D02*
X132945476Y-109174380D01*
X133278809Y-109888666D01*
X133612142Y-109174380D01*
X133612142Y-110174380D01*
X134040714Y-109269619D02*
X134088333Y-109222000D01*
X134183571Y-109174380D01*
X134421666Y-109174380D01*
X134516904Y-109222000D01*
X134564523Y-109269619D01*
X134612142Y-109364857D01*
X134612142Y-109460095D01*
X134564523Y-109602952D01*
X133993095Y-110174380D01*
X134612142Y-110174380D01*
X135469285Y-109507714D02*
X135469285Y-110174380D01*
X135231190Y-109126761D02*
X134993095Y-109841047D01*
X135612142Y-109841047D01*
X136183571Y-109174380D02*
X136278809Y-109174380D01*
X136374047Y-109222000D01*
X136421666Y-109269619D01*
X136469285Y-109364857D01*
X136516904Y-109555333D01*
X136516904Y-109793428D01*
X136469285Y-109983904D01*
X136421666Y-110079142D01*
X136374047Y-110126761D01*
X136278809Y-110174380D01*
X136183571Y-110174380D01*
X136088333Y-110126761D01*
X136040714Y-110079142D01*
X135993095Y-109983904D01*
X135945476Y-109793428D01*
X135945476Y-109555333D01*
X135993095Y-109364857D01*
X136040714Y-109269619D01*
X136088333Y-109222000D01*
X136183571Y-109174380D01*
D11*
X190539857Y-78859190D02*
X190539857Y-78359190D01*
X190539857Y-78597285D02*
X190825571Y-78597285D01*
X190825571Y-78859190D02*
X190825571Y-78359190D01*
X191349380Y-78811571D02*
X191325571Y-78835380D01*
X191254142Y-78859190D01*
X191206523Y-78859190D01*
X191135095Y-78835380D01*
X191087476Y-78787761D01*
X191063666Y-78740142D01*
X191039857Y-78644904D01*
X191039857Y-78573476D01*
X191063666Y-78478238D01*
X191087476Y-78430619D01*
X191135095Y-78383000D01*
X191206523Y-78359190D01*
X191254142Y-78359190D01*
X191325571Y-78383000D01*
X191349380Y-78406809D01*
X191825571Y-78859190D02*
X191539857Y-78859190D01*
X191682714Y-78859190D02*
X191682714Y-78359190D01*
X191635095Y-78430619D01*
X191587476Y-78478238D01*
X191539857Y-78502047D01*
X192254142Y-78359190D02*
X192158904Y-78359190D01*
X192111285Y-78383000D01*
X192087476Y-78406809D01*
X192039857Y-78478238D01*
X192016047Y-78573476D01*
X192016047Y-78763952D01*
X192039857Y-78811571D01*
X192063666Y-78835380D01*
X192111285Y-78859190D01*
X192206523Y-78859190D01*
X192254142Y-78835380D01*
X192277952Y-78811571D01*
X192301761Y-78763952D01*
X192301761Y-78644904D01*
X192277952Y-78597285D01*
X192254142Y-78573476D01*
X192206523Y-78549666D01*
X192111285Y-78549666D01*
X192063666Y-78573476D01*
X192039857Y-78597285D01*
X192016047Y-78644904D01*
X192730333Y-78525857D02*
X192730333Y-78859190D01*
X192611285Y-78335380D02*
X192492238Y-78692523D01*
X192801761Y-78692523D01*
X192186333Y-84001190D02*
X191900619Y-84001190D01*
X192043476Y-84001190D02*
X192043476Y-83501190D01*
X191995857Y-83572619D01*
X191948238Y-83620238D01*
X191900619Y-83644047D01*
X192400619Y-83810714D02*
X192781571Y-83810714D01*
X109336857Y-111561690D02*
X109051142Y-111561690D01*
X109194000Y-111561690D02*
X109194000Y-111061690D01*
X109146380Y-111133119D01*
X109098761Y-111180738D01*
X109051142Y-111204547D01*
X109194000Y-112533357D02*
X109194000Y-111819071D01*
X172013190Y-85197428D02*
X171513190Y-85197428D01*
X171751285Y-85197428D02*
X171751285Y-84911714D01*
X172013190Y-84911714D02*
X171513190Y-84911714D01*
X172013190Y-84673619D02*
X171513190Y-84673619D01*
X171513190Y-84554571D01*
X171537000Y-84483142D01*
X171584619Y-84435523D01*
X171632238Y-84411714D01*
X171727476Y-84387904D01*
X171798904Y-84387904D01*
X171894142Y-84411714D01*
X171941761Y-84435523D01*
X171989380Y-84483142D01*
X172013190Y-84554571D01*
X172013190Y-84673619D01*
X171989380Y-84197428D02*
X172013190Y-84126000D01*
X172013190Y-84006952D01*
X171989380Y-83959333D01*
X171965571Y-83935523D01*
X171917952Y-83911714D01*
X171870333Y-83911714D01*
X171822714Y-83935523D01*
X171798904Y-83959333D01*
X171775095Y-84006952D01*
X171751285Y-84102190D01*
X171727476Y-84149809D01*
X171703666Y-84173619D01*
X171656047Y-84197428D01*
X171608428Y-84197428D01*
X171560809Y-84173619D01*
X171537000Y-84149809D01*
X171513190Y-84102190D01*
X171513190Y-83983142D01*
X171537000Y-83911714D01*
X172013190Y-83697428D02*
X171513190Y-83697428D01*
X171513190Y-83506952D01*
X171537000Y-83459333D01*
X171560809Y-83435523D01*
X171608428Y-83411714D01*
X171679857Y-83411714D01*
X171727476Y-83435523D01*
X171751285Y-83459333D01*
X171775095Y-83506952D01*
X171775095Y-83697428D01*
X171822714Y-83197428D02*
X171822714Y-82816476D01*
X171513190Y-82626000D02*
X171513190Y-82292666D01*
X172013190Y-82506952D01*
X171679857Y-81887904D02*
X172013190Y-81887904D01*
X171489380Y-82006952D02*
X171846523Y-82126000D01*
X171846523Y-81816476D01*
X171513190Y-81530761D02*
X171513190Y-81483142D01*
X171537000Y-81435523D01*
X171560809Y-81411714D01*
X171608428Y-81387904D01*
X171703666Y-81364095D01*
X171822714Y-81364095D01*
X171917952Y-81387904D01*
X171965571Y-81411714D01*
X171989380Y-81435523D01*
X172013190Y-81483142D01*
X172013190Y-81530761D01*
X171989380Y-81578380D01*
X171965571Y-81602190D01*
X171917952Y-81626000D01*
X171822714Y-81649809D01*
X171703666Y-81649809D01*
X171608428Y-81626000D01*
X171560809Y-81602190D01*
X171537000Y-81578380D01*
X171513190Y-81530761D01*
X172013190Y-80887904D02*
X172013190Y-81173619D01*
X172013190Y-81030761D02*
X171513190Y-81030761D01*
X171584619Y-81078380D01*
X171632238Y-81126000D01*
X171656047Y-81173619D01*
X171489380Y-80316476D02*
X172132238Y-80745047D01*
X171513190Y-80197428D02*
X171513190Y-79864095D01*
X172013190Y-80078380D01*
X171513190Y-79435523D02*
X171513190Y-79673619D01*
X171751285Y-79697428D01*
X171727476Y-79673619D01*
X171703666Y-79626000D01*
X171703666Y-79506952D01*
X171727476Y-79459333D01*
X171751285Y-79435523D01*
X171798904Y-79411714D01*
X171917952Y-79411714D01*
X171965571Y-79435523D01*
X171989380Y-79459333D01*
X172013190Y-79506952D01*
X172013190Y-79626000D01*
X171989380Y-79673619D01*
X171965571Y-79697428D01*
X171513190Y-79102190D02*
X171513190Y-79054571D01*
X171537000Y-79006952D01*
X171560809Y-78983142D01*
X171608428Y-78959333D01*
X171703666Y-78935523D01*
X171822714Y-78935523D01*
X171917952Y-78959333D01*
X171965571Y-78983142D01*
X171989380Y-79006952D01*
X172013190Y-79054571D01*
X172013190Y-79102190D01*
X171989380Y-79149809D01*
X171965571Y-79173619D01*
X171917952Y-79197428D01*
X171822714Y-79221238D01*
X171703666Y-79221238D01*
X171608428Y-79197428D01*
X171560809Y-79173619D01*
X171537000Y-79149809D01*
X171513190Y-79102190D01*
X172013190Y-78459333D02*
X172013190Y-78745047D01*
X172013190Y-78602190D02*
X171513190Y-78602190D01*
X171584619Y-78649809D01*
X171632238Y-78697428D01*
X171656047Y-78745047D01*
X171489380Y-77887904D02*
X172132238Y-78316476D01*
X171513190Y-77768857D02*
X171513190Y-77435523D01*
X172013190Y-77649809D01*
X171727476Y-77173619D02*
X171703666Y-77221238D01*
X171679857Y-77245047D01*
X171632238Y-77268857D01*
X171608428Y-77268857D01*
X171560809Y-77245047D01*
X171537000Y-77221238D01*
X171513190Y-77173619D01*
X171513190Y-77078380D01*
X171537000Y-77030761D01*
X171560809Y-77006952D01*
X171608428Y-76983142D01*
X171632238Y-76983142D01*
X171679857Y-77006952D01*
X171703666Y-77030761D01*
X171727476Y-77078380D01*
X171727476Y-77173619D01*
X171751285Y-77221238D01*
X171775095Y-77245047D01*
X171822714Y-77268857D01*
X171917952Y-77268857D01*
X171965571Y-77245047D01*
X171989380Y-77221238D01*
X172013190Y-77173619D01*
X172013190Y-77078380D01*
X171989380Y-77030761D01*
X171965571Y-77006952D01*
X171917952Y-76983142D01*
X171822714Y-76983142D01*
X171775095Y-77006952D01*
X171751285Y-77030761D01*
X171727476Y-77078380D01*
X171513190Y-76673619D02*
X171513190Y-76626000D01*
X171537000Y-76578380D01*
X171560809Y-76554571D01*
X171608428Y-76530761D01*
X171703666Y-76506952D01*
X171822714Y-76506952D01*
X171917952Y-76530761D01*
X171965571Y-76554571D01*
X171989380Y-76578380D01*
X172013190Y-76626000D01*
X172013190Y-76673619D01*
X171989380Y-76721238D01*
X171965571Y-76745047D01*
X171917952Y-76768857D01*
X171822714Y-76792666D01*
X171703666Y-76792666D01*
X171608428Y-76768857D01*
X171560809Y-76745047D01*
X171537000Y-76721238D01*
X171513190Y-76673619D01*
X172013190Y-76030761D02*
X172013190Y-76316476D01*
X172013190Y-76173619D02*
X171513190Y-76173619D01*
X171584619Y-76221238D01*
X171632238Y-76268857D01*
X171656047Y-76316476D01*
X185720333Y-121975190D02*
X185434619Y-121975190D01*
X185577476Y-121975190D02*
X185577476Y-121475190D01*
X185529857Y-121546619D01*
X185482238Y-121594238D01*
X185434619Y-121618047D01*
X185934619Y-121784714D02*
X186315571Y-121784714D01*
X183674857Y-114722190D02*
X183674857Y-114222190D01*
X183674857Y-114460285D02*
X183960571Y-114460285D01*
X183960571Y-114722190D02*
X183960571Y-114222190D01*
X184484380Y-114674571D02*
X184460571Y-114698380D01*
X184389142Y-114722190D01*
X184341523Y-114722190D01*
X184270095Y-114698380D01*
X184222476Y-114650761D01*
X184198666Y-114603142D01*
X184174857Y-114507904D01*
X184174857Y-114436476D01*
X184198666Y-114341238D01*
X184222476Y-114293619D01*
X184270095Y-114246000D01*
X184341523Y-114222190D01*
X184389142Y-114222190D01*
X184460571Y-114246000D01*
X184484380Y-114269809D01*
X184651047Y-114222190D02*
X184960571Y-114222190D01*
X184793904Y-114412666D01*
X184865333Y-114412666D01*
X184912952Y-114436476D01*
X184936761Y-114460285D01*
X184960571Y-114507904D01*
X184960571Y-114626952D01*
X184936761Y-114674571D01*
X184912952Y-114698380D01*
X184865333Y-114722190D01*
X184722476Y-114722190D01*
X184674857Y-114698380D01*
X184651047Y-114674571D01*
X185127238Y-114222190D02*
X185460571Y-114222190D01*
X185246285Y-114722190D01*
X185865333Y-114388857D02*
X185865333Y-114722190D01*
X185746285Y-114198380D02*
X185627238Y-114555523D01*
X185936761Y-114555523D01*
X183163333Y-108127190D02*
X182877619Y-108127190D01*
X183020476Y-108127190D02*
X183020476Y-107627190D01*
X182972857Y-107698619D01*
X182925238Y-107746238D01*
X182877619Y-107770047D01*
X183377619Y-107936714D02*
X183758571Y-107936714D01*
X109310857Y-88029690D02*
X109025142Y-88029690D01*
X109168000Y-88029690D02*
X109168000Y-87529690D01*
X109120380Y-87601119D01*
X109072761Y-87648738D01*
X109025142Y-87672547D01*
X109168000Y-89001357D02*
X109168000Y-88287071D01*
D10*
X118986666Y-102093380D02*
X118415238Y-102093380D01*
X118700952Y-102093380D02*
X118700952Y-101093380D01*
X118605714Y-101236238D01*
X118510476Y-101331476D01*
X118415238Y-101379095D01*
X119415238Y-101712428D02*
X120177142Y-101712428D01*
D11*
X182750809Y-102525428D02*
X182750809Y-102858761D01*
X182250809Y-102644476D01*
X182584142Y-103263523D02*
X182250809Y-103263523D01*
X182774619Y-103144476D02*
X182417476Y-103025428D01*
X182417476Y-103334952D01*
X182250809Y-103525428D02*
X182750809Y-103525428D01*
X182512714Y-103525428D02*
X182512714Y-103811142D01*
X182250809Y-103811142D02*
X182750809Y-103811142D01*
X182298428Y-104334952D02*
X182274619Y-104311142D01*
X182250809Y-104239714D01*
X182250809Y-104192095D01*
X182274619Y-104120666D01*
X182322238Y-104073047D01*
X182369857Y-104049238D01*
X182465095Y-104025428D01*
X182536523Y-104025428D01*
X182631761Y-104049238D01*
X182679380Y-104073047D01*
X182727000Y-104120666D01*
X182750809Y-104192095D01*
X182750809Y-104239714D01*
X182727000Y-104311142D01*
X182703190Y-104334952D01*
X182750809Y-104644476D02*
X182750809Y-104692095D01*
X182727000Y-104739714D01*
X182703190Y-104763523D01*
X182655571Y-104787333D01*
X182560333Y-104811142D01*
X182441285Y-104811142D01*
X182346047Y-104787333D01*
X182298428Y-104763523D01*
X182274619Y-104739714D01*
X182250809Y-104692095D01*
X182250809Y-104644476D01*
X182274619Y-104596857D01*
X182298428Y-104573047D01*
X182346047Y-104549238D01*
X182441285Y-104525428D01*
X182560333Y-104525428D01*
X182655571Y-104549238D01*
X182703190Y-104573047D01*
X182727000Y-104596857D01*
X182750809Y-104644476D01*
X182584142Y-105239714D02*
X182250809Y-105239714D01*
X182774619Y-105120666D02*
X182417476Y-105001619D01*
X182417476Y-105311142D01*
X182250809Y-105501619D02*
X182750809Y-105501619D01*
X182393666Y-105668285D01*
X182750809Y-105834952D01*
X182250809Y-105834952D01*
X194016142Y-92624690D02*
X193730428Y-92624690D01*
X193873285Y-92624690D02*
X193873285Y-92124690D01*
X193825666Y-92196119D01*
X193778047Y-92243738D01*
X193730428Y-92267547D01*
X194230428Y-92624690D02*
X194230428Y-92291357D01*
X194230428Y-92338976D02*
X194254238Y-92315166D01*
X194301857Y-92291357D01*
X194373285Y-92291357D01*
X194420904Y-92315166D01*
X194444714Y-92362785D01*
X194444714Y-92624690D01*
X194444714Y-92362785D02*
X194468523Y-92315166D01*
X194516142Y-92291357D01*
X194587571Y-92291357D01*
X194635190Y-92315166D01*
X194659000Y-92362785D01*
X194659000Y-92624690D01*
X194897095Y-92624690D02*
X194897095Y-92291357D01*
X194897095Y-92338976D02*
X194920904Y-92315166D01*
X194968523Y-92291357D01*
X195039952Y-92291357D01*
X195087571Y-92315166D01*
X195111380Y-92362785D01*
X195111380Y-92624690D01*
X195111380Y-92362785D02*
X195135190Y-92315166D01*
X195182809Y-92291357D01*
X195254238Y-92291357D01*
X195301857Y-92315166D01*
X195325666Y-92362785D01*
X195325666Y-92624690D01*
X195873285Y-92124690D02*
X196159000Y-92124690D01*
X196016142Y-92624690D02*
X196016142Y-92124690D01*
X196539952Y-92624690D02*
X196539952Y-92362785D01*
X196516142Y-92315166D01*
X196468523Y-92291357D01*
X196373285Y-92291357D01*
X196325666Y-92315166D01*
X196539952Y-92600880D02*
X196492333Y-92624690D01*
X196373285Y-92624690D01*
X196325666Y-92600880D01*
X196301857Y-92553261D01*
X196301857Y-92505642D01*
X196325666Y-92458023D01*
X196373285Y-92434214D01*
X196492333Y-92434214D01*
X196539952Y-92410404D01*
X196849476Y-92624690D02*
X196801857Y-92600880D01*
X196778047Y-92553261D01*
X196778047Y-92124690D01*
X197111380Y-92624690D02*
X197063761Y-92600880D01*
X197039952Y-92553261D01*
X197039952Y-92124690D01*
X193218523Y-93429690D02*
X193218523Y-92929690D01*
X193409000Y-92929690D01*
X193456619Y-92953500D01*
X193480428Y-92977309D01*
X193504238Y-93024928D01*
X193504238Y-93096357D01*
X193480428Y-93143976D01*
X193456619Y-93167785D01*
X193409000Y-93191595D01*
X193218523Y-93191595D01*
X193932809Y-93096357D02*
X193932809Y-93429690D01*
X193718523Y-93096357D02*
X193718523Y-93358261D01*
X193742333Y-93405880D01*
X193789952Y-93429690D01*
X193861380Y-93429690D01*
X193909000Y-93405880D01*
X193932809Y-93382071D01*
X194147095Y-93405880D02*
X194194714Y-93429690D01*
X194289952Y-93429690D01*
X194337571Y-93405880D01*
X194361380Y-93358261D01*
X194361380Y-93334452D01*
X194337571Y-93286833D01*
X194289952Y-93263023D01*
X194218523Y-93263023D01*
X194170904Y-93239214D01*
X194147095Y-93191595D01*
X194147095Y-93167785D01*
X194170904Y-93120166D01*
X194218523Y-93096357D01*
X194289952Y-93096357D01*
X194337571Y-93120166D01*
X194575666Y-93429690D02*
X194575666Y-92929690D01*
X194789952Y-93429690D02*
X194789952Y-93167785D01*
X194766142Y-93120166D01*
X194718523Y-93096357D01*
X194647095Y-93096357D01*
X194599476Y-93120166D01*
X194575666Y-93143976D01*
X195575666Y-93167785D02*
X195647095Y-93191595D01*
X195670904Y-93215404D01*
X195694714Y-93263023D01*
X195694714Y-93334452D01*
X195670904Y-93382071D01*
X195647095Y-93405880D01*
X195599476Y-93429690D01*
X195409000Y-93429690D01*
X195409000Y-92929690D01*
X195575666Y-92929690D01*
X195623285Y-92953500D01*
X195647095Y-92977309D01*
X195670904Y-93024928D01*
X195670904Y-93072547D01*
X195647095Y-93120166D01*
X195623285Y-93143976D01*
X195575666Y-93167785D01*
X195409000Y-93167785D01*
X196123285Y-93096357D02*
X196123285Y-93429690D01*
X195909000Y-93096357D02*
X195909000Y-93358261D01*
X195932809Y-93405880D01*
X195980428Y-93429690D01*
X196051857Y-93429690D01*
X196099476Y-93405880D01*
X196123285Y-93382071D01*
X196289952Y-93096357D02*
X196480428Y-93096357D01*
X196361380Y-92929690D02*
X196361380Y-93358261D01*
X196385190Y-93405880D01*
X196432809Y-93429690D01*
X196480428Y-93429690D01*
X196575666Y-93096357D02*
X196766142Y-93096357D01*
X196647095Y-92929690D02*
X196647095Y-93358261D01*
X196670904Y-93405880D01*
X196718523Y-93429690D01*
X196766142Y-93429690D01*
X197004238Y-93429690D02*
X196956619Y-93405880D01*
X196932809Y-93382071D01*
X196909000Y-93334452D01*
X196909000Y-93191595D01*
X196932809Y-93143976D01*
X196956619Y-93120166D01*
X197004238Y-93096357D01*
X197075666Y-93096357D01*
X197123285Y-93120166D01*
X197147095Y-93143976D01*
X197170904Y-93191595D01*
X197170904Y-93334452D01*
X197147095Y-93382071D01*
X197123285Y-93405880D01*
X197075666Y-93429690D01*
X197004238Y-93429690D01*
X197385190Y-93096357D02*
X197385190Y-93429690D01*
X197385190Y-93143976D02*
X197409000Y-93120166D01*
X197456619Y-93096357D01*
X197528047Y-93096357D01*
X197575666Y-93120166D01*
X197599476Y-93167785D01*
X197599476Y-93429690D01*
D10*
X129807380Y-83804047D02*
X129807380Y-84375476D01*
X129807380Y-84089761D02*
X128807380Y-84089761D01*
X128950238Y-84185000D01*
X129045476Y-84280238D01*
X129093095Y-84375476D01*
X128807380Y-83185000D02*
X128807380Y-83089761D01*
X128855000Y-82994523D01*
X128902619Y-82946904D01*
X128997857Y-82899285D01*
X129188333Y-82851666D01*
X129426428Y-82851666D01*
X129616904Y-82899285D01*
X129712142Y-82946904D01*
X129759761Y-82994523D01*
X129807380Y-83089761D01*
X129807380Y-83185000D01*
X129759761Y-83280238D01*
X129712142Y-83327857D01*
X129616904Y-83375476D01*
X129426428Y-83423095D01*
X129188333Y-83423095D01*
X128997857Y-83375476D01*
X128902619Y-83327857D01*
X128855000Y-83280238D01*
X128807380Y-83185000D01*
X129807380Y-82423095D02*
X128807380Y-82423095D01*
X129426428Y-82327857D02*
X129807380Y-82042142D01*
X129140714Y-82042142D02*
X129521666Y-82423095D01*
X128807380Y-80661190D02*
X128807380Y-80470714D01*
X128855000Y-80375476D01*
X128950238Y-80280238D01*
X129140714Y-80232619D01*
X129474047Y-80232619D01*
X129664523Y-80280238D01*
X129759761Y-80375476D01*
X129807380Y-80470714D01*
X129807380Y-80661190D01*
X129759761Y-80756428D01*
X129664523Y-80851666D01*
X129474047Y-80899285D01*
X129140714Y-80899285D01*
X128950238Y-80851666D01*
X128855000Y-80756428D01*
X128807380Y-80661190D01*
X129807380Y-79804047D02*
X128807380Y-79804047D01*
X129807380Y-79375476D02*
X129283571Y-79375476D01*
X129188333Y-79423095D01*
X129140714Y-79518333D01*
X129140714Y-79661190D01*
X129188333Y-79756428D01*
X129235952Y-79804047D01*
X129807380Y-78899285D02*
X129140714Y-78899285D01*
X129235952Y-78899285D02*
X129188333Y-78851666D01*
X129140714Y-78756428D01*
X129140714Y-78613571D01*
X129188333Y-78518333D01*
X129283571Y-78470714D01*
X129807380Y-78470714D01*
X129283571Y-78470714D02*
X129188333Y-78423095D01*
X129140714Y-78327857D01*
X129140714Y-78185000D01*
X129188333Y-78089761D01*
X129283571Y-78042142D01*
X129807380Y-78042142D01*
D11*
X179718214Y-86600523D02*
X179718214Y-86219571D01*
X179718214Y-85981476D02*
X179718214Y-85600523D01*
X179718214Y-85362428D02*
X179718214Y-84981476D01*
X179718214Y-84743380D02*
X179718214Y-84362428D01*
X179718214Y-84124333D02*
X179718214Y-83743380D01*
X179718214Y-83505285D02*
X179718214Y-83124333D01*
X179718214Y-82886238D02*
X179718214Y-82505285D01*
X179718214Y-82267190D02*
X179718214Y-81886238D01*
X179456309Y-81671952D02*
X179432500Y-81648142D01*
X179408690Y-81600523D01*
X179408690Y-81481476D01*
X179432500Y-81433857D01*
X179456309Y-81410047D01*
X179503928Y-81386238D01*
X179551547Y-81386238D01*
X179622976Y-81410047D01*
X179908690Y-81695761D01*
X179908690Y-81386238D01*
X179456309Y-81195761D02*
X179432500Y-81171952D01*
X179408690Y-81124333D01*
X179408690Y-81005285D01*
X179432500Y-80957666D01*
X179456309Y-80933857D01*
X179503928Y-80910047D01*
X179551547Y-80910047D01*
X179622976Y-80933857D01*
X179908690Y-81219571D01*
X179908690Y-80910047D01*
X179408690Y-80600523D02*
X179408690Y-80552904D01*
X179432500Y-80505285D01*
X179456309Y-80481476D01*
X179503928Y-80457666D01*
X179599166Y-80433857D01*
X179718214Y-80433857D01*
X179813452Y-80457666D01*
X179861071Y-80481476D01*
X179884880Y-80505285D01*
X179908690Y-80552904D01*
X179908690Y-80600523D01*
X179884880Y-80648142D01*
X179861071Y-80671952D01*
X179813452Y-80695761D01*
X179718214Y-80719571D01*
X179599166Y-80719571D01*
X179503928Y-80695761D01*
X179456309Y-80671952D01*
X179432500Y-80648142D01*
X179408690Y-80600523D01*
X179408690Y-79743380D02*
X179408690Y-79648142D01*
X179432500Y-79600523D01*
X179480119Y-79552904D01*
X179575357Y-79529095D01*
X179742023Y-79529095D01*
X179837261Y-79552904D01*
X179884880Y-79600523D01*
X179908690Y-79648142D01*
X179908690Y-79743380D01*
X179884880Y-79791000D01*
X179837261Y-79838619D01*
X179742023Y-79862428D01*
X179575357Y-79862428D01*
X179480119Y-79838619D01*
X179432500Y-79791000D01*
X179408690Y-79743380D01*
X179908690Y-79314809D02*
X179408690Y-79314809D01*
X179908690Y-79100523D02*
X179646785Y-79100523D01*
X179599166Y-79124333D01*
X179575357Y-79171952D01*
X179575357Y-79243380D01*
X179599166Y-79291000D01*
X179622976Y-79314809D01*
X179908690Y-78862428D02*
X179575357Y-78862428D01*
X179622976Y-78862428D02*
X179599166Y-78838619D01*
X179575357Y-78791000D01*
X179575357Y-78719571D01*
X179599166Y-78671952D01*
X179646785Y-78648142D01*
X179908690Y-78648142D01*
X179646785Y-78648142D02*
X179599166Y-78624333D01*
X179575357Y-78576714D01*
X179575357Y-78505285D01*
X179599166Y-78457666D01*
X179646785Y-78433857D01*
X179908690Y-78433857D01*
X179718214Y-78195761D02*
X179718214Y-77814809D01*
X179718214Y-77576714D02*
X179718214Y-77195761D01*
X179718214Y-76957666D02*
X179718214Y-76576714D01*
X179718214Y-76338619D02*
X179718214Y-75957666D01*
X179718214Y-75719571D02*
X179718214Y-75338619D01*
X179718214Y-75100523D02*
X179718214Y-74719571D01*
X179718214Y-74481476D02*
X179718214Y-74100523D01*
X179718214Y-73862428D02*
X179718214Y-73481476D01*
X180880357Y-86564809D02*
X180166071Y-86564809D01*
X180713690Y-80969571D02*
X180475595Y-81136238D01*
X180713690Y-81255285D02*
X180213690Y-81255285D01*
X180213690Y-81064809D01*
X180237500Y-81017190D01*
X180261309Y-80993380D01*
X180308928Y-80969571D01*
X180380357Y-80969571D01*
X180427976Y-80993380D01*
X180451785Y-81017190D01*
X180475595Y-81064809D01*
X180475595Y-81255285D01*
X180689880Y-80564809D02*
X180713690Y-80612428D01*
X180713690Y-80707666D01*
X180689880Y-80755285D01*
X180642261Y-80779095D01*
X180451785Y-80779095D01*
X180404166Y-80755285D01*
X180380357Y-80707666D01*
X180380357Y-80612428D01*
X180404166Y-80564809D01*
X180451785Y-80541000D01*
X180499404Y-80541000D01*
X180547023Y-80779095D01*
X180689880Y-80350523D02*
X180713690Y-80302904D01*
X180713690Y-80207666D01*
X180689880Y-80160047D01*
X180642261Y-80136238D01*
X180618452Y-80136238D01*
X180570833Y-80160047D01*
X180547023Y-80207666D01*
X180547023Y-80279095D01*
X180523214Y-80326714D01*
X180475595Y-80350523D01*
X180451785Y-80350523D01*
X180404166Y-80326714D01*
X180380357Y-80279095D01*
X180380357Y-80207666D01*
X180404166Y-80160047D01*
X180713690Y-79921952D02*
X180380357Y-79921952D01*
X180213690Y-79921952D02*
X180237500Y-79945761D01*
X180261309Y-79921952D01*
X180237500Y-79898142D01*
X180213690Y-79921952D01*
X180261309Y-79921952D01*
X180689880Y-79707666D02*
X180713690Y-79660047D01*
X180713690Y-79564809D01*
X180689880Y-79517190D01*
X180642261Y-79493380D01*
X180618452Y-79493380D01*
X180570833Y-79517190D01*
X180547023Y-79564809D01*
X180547023Y-79636238D01*
X180523214Y-79683857D01*
X180475595Y-79707666D01*
X180451785Y-79707666D01*
X180404166Y-79683857D01*
X180380357Y-79636238D01*
X180380357Y-79564809D01*
X180404166Y-79517190D01*
X180380357Y-79350523D02*
X180380357Y-79160047D01*
X180213690Y-79279095D02*
X180642261Y-79279095D01*
X180689880Y-79255285D01*
X180713690Y-79207666D01*
X180713690Y-79160047D01*
X180713690Y-78921952D02*
X180689880Y-78969571D01*
X180666071Y-78993380D01*
X180618452Y-79017190D01*
X180475595Y-79017190D01*
X180427976Y-78993380D01*
X180404166Y-78969571D01*
X180380357Y-78921952D01*
X180380357Y-78850523D01*
X180404166Y-78802904D01*
X180427976Y-78779095D01*
X180475595Y-78755285D01*
X180618452Y-78755285D01*
X180666071Y-78779095D01*
X180689880Y-78802904D01*
X180713690Y-78850523D01*
X180713690Y-78921952D01*
X180713690Y-78541000D02*
X180380357Y-78541000D01*
X180475595Y-78541000D02*
X180427976Y-78517190D01*
X180404166Y-78493380D01*
X180380357Y-78445761D01*
X180380357Y-78398142D01*
X180689880Y-78255285D02*
X180713690Y-78207666D01*
X180713690Y-78112428D01*
X180689880Y-78064809D01*
X180642261Y-78041000D01*
X180618452Y-78041000D01*
X180570833Y-78064809D01*
X180547023Y-78112428D01*
X180547023Y-78183857D01*
X180523214Y-78231476D01*
X180475595Y-78255285D01*
X180451785Y-78255285D01*
X180404166Y-78231476D01*
X180380357Y-78183857D01*
X180380357Y-78112428D01*
X180404166Y-78064809D01*
X180880357Y-73517190D02*
X180166071Y-73517190D01*
%TO.C,R1*%
X182147857Y-92073190D02*
X181862142Y-92073190D01*
X182005000Y-92073190D02*
X182005000Y-91573190D01*
X181957380Y-91644619D01*
X181909761Y-91692238D01*
X181862142Y-91716047D01*
X182457380Y-91573190D02*
X182505000Y-91573190D01*
X182552619Y-91597000D01*
X182576428Y-91620809D01*
X182600238Y-91668428D01*
X182624047Y-91763666D01*
X182624047Y-91882714D01*
X182600238Y-91977952D01*
X182576428Y-92025571D01*
X182552619Y-92049380D01*
X182505000Y-92073190D01*
X182457380Y-92073190D01*
X182409761Y-92049380D01*
X182385952Y-92025571D01*
X182362142Y-91977952D01*
X182338333Y-91882714D01*
X182338333Y-91763666D01*
X182362142Y-91668428D01*
X182385952Y-91620809D01*
X182409761Y-91597000D01*
X182457380Y-91573190D01*
X182838333Y-92073190D02*
X182838333Y-91573190D01*
X183124047Y-92073190D02*
X182909761Y-91787476D01*
X183124047Y-91573190D02*
X182838333Y-91858904D01*
X183814523Y-91573190D02*
X183909761Y-91573190D01*
X183957380Y-91597000D01*
X184005000Y-91644619D01*
X184028809Y-91739857D01*
X184028809Y-91906523D01*
X184005000Y-92001761D01*
X183957380Y-92049380D01*
X183909761Y-92073190D01*
X183814523Y-92073190D01*
X183766904Y-92049380D01*
X183719285Y-92001761D01*
X183695476Y-91906523D01*
X183695476Y-91739857D01*
X183719285Y-91644619D01*
X183766904Y-91597000D01*
X183814523Y-91573190D01*
X184243095Y-92073190D02*
X184243095Y-91573190D01*
X184457380Y-92073190D02*
X184457380Y-91811285D01*
X184433571Y-91763666D01*
X184385952Y-91739857D01*
X184314523Y-91739857D01*
X184266904Y-91763666D01*
X184243095Y-91787476D01*
X184695476Y-92073190D02*
X184695476Y-91739857D01*
X184695476Y-91787476D02*
X184719285Y-91763666D01*
X184766904Y-91739857D01*
X184838333Y-91739857D01*
X184885952Y-91763666D01*
X184909761Y-91811285D01*
X184909761Y-92073190D01*
X184909761Y-91811285D02*
X184933571Y-91763666D01*
X184981190Y-91739857D01*
X185052619Y-91739857D01*
X185100238Y-91763666D01*
X185124047Y-91811285D01*
X185124047Y-92073190D01*
%TO.C,C1*%
X110018714Y-74599190D02*
X109733000Y-74599190D01*
X109875857Y-74599190D02*
X109875857Y-74099190D01*
X109828238Y-74170619D01*
X109780619Y-74218238D01*
X109733000Y-74242047D01*
X110328238Y-74099190D02*
X110375857Y-74099190D01*
X110423476Y-74123000D01*
X110447285Y-74146809D01*
X110471095Y-74194428D01*
X110494904Y-74289666D01*
X110494904Y-74408714D01*
X110471095Y-74503952D01*
X110447285Y-74551571D01*
X110423476Y-74575380D01*
X110375857Y-74599190D01*
X110328238Y-74599190D01*
X110280619Y-74575380D01*
X110256809Y-74551571D01*
X110233000Y-74503952D01*
X110209190Y-74408714D01*
X110209190Y-74289666D01*
X110233000Y-74194428D01*
X110256809Y-74146809D01*
X110280619Y-74123000D01*
X110328238Y-74099190D01*
X110804428Y-74099190D02*
X110852047Y-74099190D01*
X110899666Y-74123000D01*
X110923476Y-74146809D01*
X110947285Y-74194428D01*
X110971095Y-74289666D01*
X110971095Y-74408714D01*
X110947285Y-74503952D01*
X110923476Y-74551571D01*
X110899666Y-74575380D01*
X110852047Y-74599190D01*
X110804428Y-74599190D01*
X110756809Y-74575380D01*
X110733000Y-74551571D01*
X110709190Y-74503952D01*
X110685380Y-74408714D01*
X110685380Y-74289666D01*
X110709190Y-74194428D01*
X110733000Y-74146809D01*
X110756809Y-74123000D01*
X110804428Y-74099190D01*
X111566333Y-74265857D02*
X111566333Y-74599190D01*
X111566333Y-74313476D02*
X111590142Y-74289666D01*
X111637761Y-74265857D01*
X111709190Y-74265857D01*
X111756809Y-74289666D01*
X111780619Y-74337285D01*
X111780619Y-74599190D01*
X112185380Y-74337285D02*
X112018714Y-74337285D01*
X112018714Y-74599190D02*
X112018714Y-74099190D01*
X112256809Y-74099190D01*
%TO.C,R2*%
X187992857Y-71857690D02*
X187707142Y-71857690D01*
X187850000Y-71857690D02*
X187850000Y-71357690D01*
X187802380Y-71429119D01*
X187754761Y-71476738D01*
X187707142Y-71500547D01*
X188302380Y-71357690D02*
X188350000Y-71357690D01*
X188397619Y-71381500D01*
X188421428Y-71405309D01*
X188445238Y-71452928D01*
X188469047Y-71548166D01*
X188469047Y-71667214D01*
X188445238Y-71762452D01*
X188421428Y-71810071D01*
X188397619Y-71833880D01*
X188350000Y-71857690D01*
X188302380Y-71857690D01*
X188254761Y-71833880D01*
X188230952Y-71810071D01*
X188207142Y-71762452D01*
X188183333Y-71667214D01*
X188183333Y-71548166D01*
X188207142Y-71452928D01*
X188230952Y-71405309D01*
X188254761Y-71381500D01*
X188302380Y-71357690D01*
X188683333Y-71857690D02*
X188683333Y-71357690D01*
X188969047Y-71857690D02*
X188754761Y-71571976D01*
X188969047Y-71357690D02*
X188683333Y-71643404D01*
X189659523Y-71357690D02*
X189754761Y-71357690D01*
X189802380Y-71381500D01*
X189850000Y-71429119D01*
X189873809Y-71524357D01*
X189873809Y-71691023D01*
X189850000Y-71786261D01*
X189802380Y-71833880D01*
X189754761Y-71857690D01*
X189659523Y-71857690D01*
X189611904Y-71833880D01*
X189564285Y-71786261D01*
X189540476Y-71691023D01*
X189540476Y-71524357D01*
X189564285Y-71429119D01*
X189611904Y-71381500D01*
X189659523Y-71357690D01*
X190088095Y-71857690D02*
X190088095Y-71357690D01*
X190302380Y-71857690D02*
X190302380Y-71595785D01*
X190278571Y-71548166D01*
X190230952Y-71524357D01*
X190159523Y-71524357D01*
X190111904Y-71548166D01*
X190088095Y-71571976D01*
X190540476Y-71857690D02*
X190540476Y-71524357D01*
X190540476Y-71571976D02*
X190564285Y-71548166D01*
X190611904Y-71524357D01*
X190683333Y-71524357D01*
X190730952Y-71548166D01*
X190754761Y-71595785D01*
X190754761Y-71857690D01*
X190754761Y-71595785D02*
X190778571Y-71548166D01*
X190826190Y-71524357D01*
X190897619Y-71524357D01*
X190945238Y-71548166D01*
X190969047Y-71595785D01*
X190969047Y-71857690D01*
%TO.C,R3*%
X182147857Y-89001690D02*
X181862142Y-89001690D01*
X182005000Y-89001690D02*
X182005000Y-88501690D01*
X181957380Y-88573119D01*
X181909761Y-88620738D01*
X181862142Y-88644547D01*
X182457380Y-88501690D02*
X182505000Y-88501690D01*
X182552619Y-88525500D01*
X182576428Y-88549309D01*
X182600238Y-88596928D01*
X182624047Y-88692166D01*
X182624047Y-88811214D01*
X182600238Y-88906452D01*
X182576428Y-88954071D01*
X182552619Y-88977880D01*
X182505000Y-89001690D01*
X182457380Y-89001690D01*
X182409761Y-88977880D01*
X182385952Y-88954071D01*
X182362142Y-88906452D01*
X182338333Y-88811214D01*
X182338333Y-88692166D01*
X182362142Y-88596928D01*
X182385952Y-88549309D01*
X182409761Y-88525500D01*
X182457380Y-88501690D01*
X182838333Y-89001690D02*
X182838333Y-88501690D01*
X183124047Y-89001690D02*
X182909761Y-88715976D01*
X183124047Y-88501690D02*
X182838333Y-88787404D01*
X183814523Y-88501690D02*
X183909761Y-88501690D01*
X183957380Y-88525500D01*
X184005000Y-88573119D01*
X184028809Y-88668357D01*
X184028809Y-88835023D01*
X184005000Y-88930261D01*
X183957380Y-88977880D01*
X183909761Y-89001690D01*
X183814523Y-89001690D01*
X183766904Y-88977880D01*
X183719285Y-88930261D01*
X183695476Y-88835023D01*
X183695476Y-88668357D01*
X183719285Y-88573119D01*
X183766904Y-88525500D01*
X183814523Y-88501690D01*
X184243095Y-89001690D02*
X184243095Y-88501690D01*
X184457380Y-89001690D02*
X184457380Y-88739785D01*
X184433571Y-88692166D01*
X184385952Y-88668357D01*
X184314523Y-88668357D01*
X184266904Y-88692166D01*
X184243095Y-88715976D01*
X184695476Y-89001690D02*
X184695476Y-88668357D01*
X184695476Y-88715976D02*
X184719285Y-88692166D01*
X184766904Y-88668357D01*
X184838333Y-88668357D01*
X184885952Y-88692166D01*
X184909761Y-88739785D01*
X184909761Y-89001690D01*
X184909761Y-88739785D02*
X184933571Y-88692166D01*
X184981190Y-88668357D01*
X185052619Y-88668357D01*
X185100238Y-88692166D01*
X185124047Y-88739785D01*
X185124047Y-89001690D01*
%TO.C,C2*%
X107996714Y-119756190D02*
X107711000Y-119756190D01*
X107853857Y-119756190D02*
X107853857Y-119256190D01*
X107806238Y-119327619D01*
X107758619Y-119375238D01*
X107711000Y-119399047D01*
X108306238Y-119256190D02*
X108353857Y-119256190D01*
X108401476Y-119280000D01*
X108425285Y-119303809D01*
X108449095Y-119351428D01*
X108472904Y-119446666D01*
X108472904Y-119565714D01*
X108449095Y-119660952D01*
X108425285Y-119708571D01*
X108401476Y-119732380D01*
X108353857Y-119756190D01*
X108306238Y-119756190D01*
X108258619Y-119732380D01*
X108234809Y-119708571D01*
X108211000Y-119660952D01*
X108187190Y-119565714D01*
X108187190Y-119446666D01*
X108211000Y-119351428D01*
X108234809Y-119303809D01*
X108258619Y-119280000D01*
X108306238Y-119256190D01*
X108782428Y-119256190D02*
X108830047Y-119256190D01*
X108877666Y-119280000D01*
X108901476Y-119303809D01*
X108925285Y-119351428D01*
X108949095Y-119446666D01*
X108949095Y-119565714D01*
X108925285Y-119660952D01*
X108901476Y-119708571D01*
X108877666Y-119732380D01*
X108830047Y-119756190D01*
X108782428Y-119756190D01*
X108734809Y-119732380D01*
X108711000Y-119708571D01*
X108687190Y-119660952D01*
X108663380Y-119565714D01*
X108663380Y-119446666D01*
X108687190Y-119351428D01*
X108711000Y-119303809D01*
X108734809Y-119280000D01*
X108782428Y-119256190D01*
X109544333Y-119422857D02*
X109544333Y-119756190D01*
X109544333Y-119470476D02*
X109568142Y-119446666D01*
X109615761Y-119422857D01*
X109687190Y-119422857D01*
X109734809Y-119446666D01*
X109758619Y-119494285D01*
X109758619Y-119756190D01*
X110163380Y-119494285D02*
X109996714Y-119494285D01*
X109996714Y-119756190D02*
X109996714Y-119256190D01*
X110234809Y-119256190D01*
D12*
%TO.C,C9*%
X137759420Y-98538000D02*
X138040580Y-98538000D01*
X137759420Y-99558000D02*
X138040580Y-99558000D01*
D10*
%TO.C,R5*%
X181709000Y-73891000D02*
X185310000Y-73891000D01*
X185310000Y-73891000D02*
X185310000Y-75821000D01*
X185310000Y-75821000D02*
X181709000Y-75821000D01*
X181709000Y-75821000D02*
X181709000Y-73891000D01*
%TO.C,R1*%
X180877000Y-91377000D02*
X186149000Y-91377000D01*
X186149000Y-91377000D02*
X186149000Y-94248000D01*
X186149000Y-94248000D02*
X180877000Y-94248000D01*
X180877000Y-94248000D02*
X180877000Y-91377000D01*
%TO.C,R4*%
X181709000Y-71986000D02*
X185310000Y-71986000D01*
X185310000Y-71986000D02*
X185310000Y-73916000D01*
X185310000Y-73916000D02*
X181709000Y-73916000D01*
X181709000Y-73916000D02*
X181709000Y-71986000D01*
D12*
%TO.C,C4*%
X122532420Y-109785000D02*
X122813580Y-109785000D01*
X122532420Y-108765000D02*
X122813580Y-108765000D01*
%TO.C,R14*%
X131762742Y-82317500D02*
X132237258Y-82317500D01*
X131762742Y-81272500D02*
X132237258Y-81272500D01*
%TO.C,C8*%
X144484420Y-109280000D02*
X144765580Y-109280000D01*
X144484420Y-108260000D02*
X144765580Y-108260000D01*
D10*
%TO.C,R8*%
X181709000Y-79603000D02*
X185310000Y-79603000D01*
X185310000Y-79603000D02*
X185310000Y-81533000D01*
X185310000Y-81533000D02*
X181709000Y-81533000D01*
X181709000Y-81533000D02*
X181709000Y-79603000D01*
D12*
%TO.C,R15*%
X131762742Y-82772500D02*
X132237258Y-82772500D01*
X131762742Y-83817500D02*
X132237258Y-83817500D01*
D10*
%TO.C,U3*%
X167369500Y-74242500D02*
X167369500Y-86942500D01*
X174989500Y-86942500D02*
X174989500Y-74242500D01*
D12*
X167009500Y-73882500D02*
X168639500Y-73882500D01*
D10*
X167369500Y-86942500D02*
X174989500Y-86942500D01*
D12*
X167009500Y-75512500D02*
X167009500Y-73882500D01*
D10*
X174989500Y-74242500D02*
X167369500Y-74242500D01*
D12*
%TO.C,R13*%
X131762742Y-80817500D02*
X132237258Y-80817500D01*
X131762742Y-79772500D02*
X132237258Y-79772500D01*
%TO.C,C7*%
X144484420Y-111540000D02*
X144765580Y-111540000D01*
X144484420Y-110520000D02*
X144765580Y-110520000D01*
D10*
%TO.C,R7*%
X181709000Y-77700000D02*
X185310000Y-77700000D01*
X185310000Y-77700000D02*
X185310000Y-79630000D01*
X185310000Y-79630000D02*
X181709000Y-79630000D01*
X181709000Y-79630000D02*
X181709000Y-77700000D01*
D12*
%TO.C,C6*%
X137259420Y-118990000D02*
X137540580Y-118990000D01*
X137259420Y-120010000D02*
X137540580Y-120010000D01*
D13*
%TO.C,U7*%
X126999000Y-102624000D02*
X140299000Y-102624000D01*
X140299000Y-115924000D02*
X126999000Y-115924000D01*
X126999000Y-115924000D02*
X126999000Y-102624000D01*
X140299000Y-102624000D02*
X140299000Y-115924000D01*
D14*
X125549000Y-102524000D02*
G75*
G03*
X125549000Y-102524000I-125000J0D01*
G01*
D10*
%TO.C,C1*%
X108162000Y-71890000D02*
X113644000Y-71890000D01*
X113644000Y-71890000D02*
X113644000Y-74823000D01*
X113644000Y-74823000D02*
X108162000Y-74823000D01*
X108162000Y-74823000D02*
X108162000Y-71890000D01*
%TO.C,R10*%
X181709000Y-83453000D02*
X185310000Y-83453000D01*
X185310000Y-83453000D02*
X185310000Y-85383000D01*
X185310000Y-85383000D02*
X181709000Y-85383000D01*
X181709000Y-85383000D02*
X181709000Y-83453000D01*
%TO.C,R2*%
X186722000Y-71161500D02*
X191994000Y-71161500D01*
X191994000Y-71161500D02*
X191994000Y-74032500D01*
X191994000Y-74032500D02*
X186722000Y-74032500D01*
X186722000Y-74032500D02*
X186722000Y-71161500D01*
D12*
%TO.C,C5*%
X130259420Y-120010000D02*
X130540580Y-120010000D01*
X130259420Y-118990000D02*
X130540580Y-118990000D01*
D10*
%TO.C,R11*%
X181709000Y-85324000D02*
X185310000Y-85324000D01*
X185310000Y-85324000D02*
X185310000Y-87254000D01*
X185310000Y-87254000D02*
X181709000Y-87254000D01*
X181709000Y-87254000D02*
X181709000Y-85324000D01*
%TO.C,R3*%
X180877000Y-88305500D02*
X186149000Y-88305500D01*
X186149000Y-88305500D02*
X186149000Y-91176500D01*
X186149000Y-91176500D02*
X180877000Y-91176500D01*
X180877000Y-91176500D02*
X180877000Y-88305500D01*
D12*
%TO.C,C3*%
X122532420Y-108040000D02*
X122813580Y-108040000D01*
X122532420Y-107020000D02*
X122813580Y-107020000D01*
%TO.C,J6*%
X156010000Y-75140500D02*
X156510000Y-76140500D01*
X153480000Y-77840500D02*
X160420000Y-77840500D01*
X156510000Y-76140500D02*
X157010000Y-75140500D01*
X142440000Y-77840500D02*
X149380000Y-77840500D01*
X160420000Y-84340500D02*
X142440000Y-84340500D01*
X142440000Y-84340500D02*
X142440000Y-77840500D01*
X149380000Y-77840500D02*
X149380000Y-77840500D01*
X153480000Y-76530500D02*
X153480000Y-77840500D01*
X153480000Y-76530500D02*
X149380000Y-76530500D01*
X160420000Y-77840500D02*
X160420000Y-84340500D01*
X157010000Y-75140500D02*
X156010000Y-75140500D01*
X149380000Y-77840500D02*
X149380000Y-76530500D01*
D10*
%TO.C,R6*%
X181709000Y-75792000D02*
X185310000Y-75792000D01*
X185310000Y-75792000D02*
X185310000Y-77722000D01*
X185310000Y-77722000D02*
X181709000Y-77722000D01*
X181709000Y-77722000D02*
X181709000Y-75792000D01*
%TO.C,R9*%
X181709000Y-81510000D02*
X185310000Y-81510000D01*
X185310000Y-81510000D02*
X185310000Y-83440000D01*
X185310000Y-83440000D02*
X181709000Y-83440000D01*
X181709000Y-83440000D02*
X181709000Y-81510000D01*
%TO.C,C2*%
X106140000Y-117047000D02*
X111622000Y-117047000D01*
X111622000Y-117047000D02*
X111622000Y-119980000D01*
X111622000Y-119980000D02*
X106140000Y-119980000D01*
X106140000Y-119980000D02*
X106140000Y-117047000D01*
D12*
%TO.C,R12*%
X131762742Y-79317500D02*
X132237258Y-79317500D01*
X131762742Y-78272500D02*
X132237258Y-78272500D01*
%TO.C,C10*%
X130759420Y-99558000D02*
X131040580Y-99558000D01*
X130759420Y-98538000D02*
X131040580Y-98538000D01*
%TD*%
M02*
