%TF.GenerationSoftware,KiCad,Pcbnew,(6.0.2)*%
%TF.CreationDate,2022-12-30T16:08:33-06:00*%
%TF.ProjectId,REF1329_Altera,52454631-3332-4395-9f41-6c746572612e,rev?*%
%TF.SameCoordinates,Original*%
%TF.FileFunction,Paste,Top*%
%TF.FilePolarity,Positive*%
%FSLAX46Y46*%
G04 Gerber Fmt 4.6, Leading zero omitted, Abs format (unit mm)*
G04 Created by KiCad (PCBNEW (6.0.2)) date 2022-12-30 16:08:33*
%MOMM*%
%LPD*%
G01*
G04 APERTURE LIST*
G04 Aperture macros list*
%AMRoundRect*
0 Rectangle with rounded corners*
0 $1 Rounding radius*
0 $2 $3 $4 $5 $6 $7 $8 $9 X,Y pos of 4 corners*
0 Add a 4 corners polygon primitive as box body*
4,1,4,$2,$3,$4,$5,$6,$7,$8,$9,$2,$3,0*
0 Add four circle primitives for the rounded corners*
1,1,$1+$1,$2,$3*
1,1,$1+$1,$4,$5*
1,1,$1+$1,$6,$7*
1,1,$1+$1,$8,$9*
0 Add four rect primitives between the rounded corners*
20,1,$1+$1,$2,$3,$4,$5,0*
20,1,$1+$1,$4,$5,$6,$7,0*
20,1,$1+$1,$6,$7,$8,$9,0*
20,1,$1+$1,$8,$9,$2,$3,0*%
G04 Aperture macros list end*
%ADD10RoundRect,0.225000X-0.225000X-0.250000X0.225000X-0.250000X0.225000X0.250000X-0.225000X0.250000X0*%
%ADD11RoundRect,0.375000X-0.375000X-2.750000X0.375000X-2.750000X0.375000X2.750000X-0.375000X2.750000X0*%
%ADD12R,1.310000X1.390000*%
%ADD13R,1.710000X1.630000*%
%ADD14RoundRect,0.200000X-0.200000X-0.275000X0.200000X-0.275000X0.200000X0.275000X-0.200000X0.275000X0*%
%ADD15R,0.700000X2.270000*%
%ADD16R,2.270000X0.700000*%
%ADD17R,2.000000X0.700000*%
%ADD18R,1.475000X0.300000*%
%ADD19R,0.300000X1.475000*%
%ADD20R,1.700000X1.630000*%
%ADD21R,1.500000X9.000000*%
%ADD22R,0.900000X0.800000*%
G04 APERTURE END LIST*
D10*
%TO.C,C9*%
X137125000Y-99048000D03*
X138675000Y-99048000D03*
%TD*%
D11*
%TO.C,J3*%
X118842000Y-67717000D03*
X121379500Y-67717000D03*
X123917000Y-67717000D03*
X126454500Y-67717000D03*
X128992000Y-67717000D03*
X131529500Y-67717000D03*
X134067000Y-67717000D03*
X136604500Y-67717000D03*
X139142000Y-67717000D03*
X141679500Y-67717000D03*
X144217000Y-67717000D03*
X146754500Y-67717000D03*
X149292000Y-67717000D03*
X151829500Y-67717000D03*
X154367000Y-67717000D03*
X156904500Y-67717000D03*
X159442000Y-67717000D03*
X161979500Y-67717000D03*
X164517000Y-67717000D03*
X167054500Y-67717000D03*
X169592000Y-67717000D03*
X172129500Y-67717000D03*
X174667000Y-67717000D03*
X177204500Y-67717000D03*
X179742000Y-67717000D03*
%TD*%
D12*
%TO.C,R5*%
X182632500Y-74866000D03*
X184418500Y-74867000D03*
%TD*%
D13*
%TO.C,R1*%
X181888000Y-93211400D03*
X185115000Y-93218400D03*
%TD*%
D12*
%TO.C,R4*%
X182632500Y-72961000D03*
X184418500Y-72962000D03*
%TD*%
D10*
%TO.C,C4*%
X121898000Y-109275000D03*
X123448000Y-109275000D03*
%TD*%
D14*
%TO.C,R14*%
X131175000Y-81795000D03*
X132825000Y-81795000D03*
%TD*%
D10*
%TO.C,C8*%
X143850000Y-108770000D03*
X145400000Y-108770000D03*
%TD*%
D12*
%TO.C,R8*%
X182632500Y-80578000D03*
X184418500Y-80579000D03*
%TD*%
D14*
%TO.C,R15*%
X131175000Y-83295000D03*
X132825000Y-83295000D03*
%TD*%
%TO.C,R13*%
X131175000Y-80295000D03*
X132825000Y-80295000D03*
%TD*%
D10*
%TO.C,C7*%
X143850000Y-111030000D03*
X145400000Y-111030000D03*
%TD*%
D15*
%TO.C,U2*%
X109210500Y-114259000D03*
X110479500Y-114258000D03*
X111789500Y-114257000D03*
X113059500Y-114257000D03*
D16*
X114922500Y-112352000D03*
X114925500Y-111122000D03*
X114923500Y-109815000D03*
X114924500Y-108544000D03*
X114926500Y-107312000D03*
X114923500Y-106001000D03*
X114924500Y-104733000D03*
X114924500Y-103462000D03*
X114924500Y-102194000D03*
D15*
X113099500Y-100288000D03*
X111829500Y-100289000D03*
X110519500Y-100287000D03*
X109248500Y-100285000D03*
X107937500Y-100288000D03*
X106671500Y-100285000D03*
X105440500Y-100287000D03*
D16*
X103494500Y-102193000D03*
X103494500Y-103465000D03*
X103493500Y-104733000D03*
X103494500Y-106004000D03*
X103495500Y-107311000D03*
X103494500Y-108543000D03*
X103497500Y-109812000D03*
X103494500Y-111124000D03*
X103493500Y-112355000D03*
D15*
X105398500Y-114259000D03*
X106629500Y-114256000D03*
X107900500Y-114257000D03*
%TD*%
D12*
%TO.C,R7*%
X182632500Y-78675000D03*
X184418500Y-78676000D03*
%TD*%
D17*
%TO.C,U5*%
X185313000Y-107986000D03*
X185312000Y-106719000D03*
X185318000Y-105405000D03*
X185311000Y-104179000D03*
X185311000Y-102868000D03*
X185312000Y-101596000D03*
X185310000Y-100286000D03*
X179597000Y-100284000D03*
X179597000Y-101595000D03*
X179599000Y-102865000D03*
X179595000Y-104177000D03*
X179596000Y-105403000D03*
X179597000Y-106711000D03*
X179597000Y-107983000D03*
%TD*%
D10*
%TO.C,C6*%
X136625000Y-119500000D03*
X138175000Y-119500000D03*
%TD*%
D18*
%TO.C,U7*%
X125911000Y-103274000D03*
X125911000Y-103774000D03*
X125911000Y-104274000D03*
X125911000Y-104774000D03*
X125911000Y-105274000D03*
X125911000Y-105774000D03*
X125911000Y-106274000D03*
X125911000Y-106774000D03*
X125911000Y-107274000D03*
X125911000Y-107774000D03*
X125911000Y-108274000D03*
X125911000Y-108774000D03*
X125911000Y-109274000D03*
X125911000Y-109774000D03*
X125911000Y-110274000D03*
X125911000Y-110774000D03*
X125911000Y-111274000D03*
X125911000Y-111774000D03*
X125911000Y-112274000D03*
X125911000Y-112774000D03*
X125911000Y-113274000D03*
X125911000Y-113774000D03*
X125911000Y-114274000D03*
X125911000Y-114774000D03*
X125911000Y-115274000D03*
D19*
X127649000Y-117012000D03*
X128149000Y-117012000D03*
X128649000Y-117012000D03*
X129149000Y-117012000D03*
X129649000Y-117012000D03*
X130149000Y-117012000D03*
X130649000Y-117012000D03*
X131149000Y-117012000D03*
X131649000Y-117012000D03*
X132149000Y-117012000D03*
X132649000Y-117012000D03*
X133149000Y-117012000D03*
X133649000Y-117012000D03*
X134149000Y-117012000D03*
X134649000Y-117012000D03*
X135149000Y-117012000D03*
X135649000Y-117012000D03*
X136149000Y-117012000D03*
X136649000Y-117012000D03*
X137149000Y-117012000D03*
X137649000Y-117012000D03*
X138149000Y-117012000D03*
X138649000Y-117012000D03*
X139149000Y-117012000D03*
X139649000Y-117012000D03*
D18*
X141387000Y-115274000D03*
X141387000Y-114774000D03*
X141387000Y-114274000D03*
X141387000Y-113774000D03*
X141387000Y-113274000D03*
X141387000Y-112774000D03*
X141387000Y-112274000D03*
X141387000Y-111774000D03*
X141387000Y-111274000D03*
X141387000Y-110774000D03*
X141387000Y-110274000D03*
X141387000Y-109774000D03*
X141387000Y-109274000D03*
X141387000Y-108774000D03*
X141387000Y-108274000D03*
X141387000Y-107774000D03*
X141387000Y-107274000D03*
X141387000Y-106774000D03*
X141387000Y-106274000D03*
X141387000Y-105774000D03*
X141387000Y-105274000D03*
X141387000Y-104774000D03*
X141387000Y-104274000D03*
X141387000Y-103774000D03*
X141387000Y-103274000D03*
D19*
X139649000Y-101536000D03*
X139149000Y-101536000D03*
X138649000Y-101536000D03*
X138149000Y-101536000D03*
X137649000Y-101536000D03*
X137149000Y-101536000D03*
X136649000Y-101536000D03*
X136149000Y-101536000D03*
X135649000Y-101536000D03*
X135149000Y-101536000D03*
X134649000Y-101536000D03*
X134149000Y-101536000D03*
X133649000Y-101536000D03*
X133149000Y-101536000D03*
X132649000Y-101536000D03*
X132149000Y-101536000D03*
X131649000Y-101536000D03*
X131149000Y-101536000D03*
X130649000Y-101536000D03*
X130149000Y-101536000D03*
X129649000Y-101536000D03*
X129149000Y-101536000D03*
X128649000Y-101536000D03*
X128149000Y-101536000D03*
X127649000Y-101536000D03*
%TD*%
D20*
%TO.C,C1*%
X109306400Y-72963100D03*
X112524400Y-72963100D03*
%TD*%
D12*
%TO.C,R10*%
X182632500Y-84428000D03*
X184418500Y-84429000D03*
%TD*%
D17*
%TO.C,U6*%
X189124000Y-121938000D03*
X189121000Y-120668000D03*
X189121000Y-119398000D03*
X189121000Y-118168000D03*
X189122000Y-116859000D03*
X189122000Y-115586000D03*
X189120000Y-114317000D03*
X189122000Y-113047000D03*
X189121000Y-111736000D03*
X189121000Y-110468000D03*
X179597000Y-110465000D03*
X179595000Y-111738000D03*
X179597000Y-113046000D03*
X179595000Y-114318000D03*
X179598000Y-115587000D03*
X179595000Y-116855000D03*
X179597000Y-118167000D03*
X179599000Y-119397000D03*
X179596000Y-120666000D03*
X179596000Y-121935000D03*
%TD*%
D21*
%TO.C,J4*%
X119411500Y-130432000D03*
X121911500Y-130432000D03*
X124411500Y-130432000D03*
X126911500Y-130432000D03*
X129411500Y-130432000D03*
X131911500Y-130432000D03*
X134411500Y-130432000D03*
X136911500Y-130432000D03*
X139411500Y-130432000D03*
X141911500Y-130432000D03*
X144411500Y-130432000D03*
X146911500Y-130432000D03*
X149411500Y-130432000D03*
X151911500Y-130432000D03*
X154411500Y-130432000D03*
X156911500Y-130432000D03*
X159411500Y-130432000D03*
X161911500Y-130432000D03*
X164411500Y-130432000D03*
X166911500Y-130432000D03*
X169411500Y-130432000D03*
X171911500Y-130432000D03*
X174411500Y-130432000D03*
X176911500Y-130432000D03*
X179411500Y-130432000D03*
%TD*%
D13*
%TO.C,R2*%
X187733000Y-72995900D03*
X190960000Y-73002900D03*
%TD*%
D10*
%TO.C,C5*%
X129625000Y-119500000D03*
X131175000Y-119500000D03*
%TD*%
D15*
%TO.C,U1*%
X109210500Y-90731000D03*
X110479500Y-90730000D03*
X111789500Y-90729000D03*
X113059500Y-90729000D03*
D16*
X114922500Y-88824000D03*
X114925500Y-87594000D03*
X114923500Y-86287000D03*
X114924500Y-85016000D03*
X114926500Y-83784000D03*
X114923500Y-82473000D03*
X114924500Y-81205000D03*
X114924500Y-79934000D03*
X114924500Y-78666000D03*
D15*
X113099500Y-76760000D03*
X111829500Y-76761000D03*
X110519500Y-76759000D03*
X109248500Y-76757000D03*
X107937500Y-76760000D03*
X106671500Y-76757000D03*
X105440500Y-76759000D03*
D16*
X103494500Y-78665000D03*
X103494500Y-79937000D03*
X103493500Y-81205000D03*
X103494500Y-82476000D03*
X103495500Y-83783000D03*
X103494500Y-85015000D03*
X103497500Y-86284000D03*
X103494500Y-87596000D03*
X103493500Y-88827000D03*
D15*
X105398500Y-90731000D03*
X106629500Y-90728000D03*
X107900500Y-90729000D03*
%TD*%
D12*
%TO.C,R11*%
X182632500Y-86299000D03*
X184418500Y-86300000D03*
%TD*%
D13*
%TO.C,R3*%
X181888000Y-90139900D03*
X185115000Y-90146900D03*
%TD*%
D10*
%TO.C,C3*%
X121898000Y-107530000D03*
X123448000Y-107530000D03*
%TD*%
D12*
%TO.C,R6*%
X182632500Y-76767000D03*
X184418500Y-76768000D03*
%TD*%
%TO.C,R9*%
X182632500Y-82485000D03*
X184418500Y-82486000D03*
%TD*%
D20*
%TO.C,C2*%
X107284400Y-118120100D03*
X110502400Y-118120100D03*
%TD*%
D14*
%TO.C,R12*%
X131175000Y-78795000D03*
X132825000Y-78795000D03*
%TD*%
D17*
%TO.C,U4*%
X194449500Y-83832000D03*
X194448500Y-82565000D03*
X194454500Y-81251000D03*
X194447500Y-80025000D03*
X194447500Y-78714000D03*
X194448500Y-77442000D03*
X194446500Y-76132000D03*
X188733500Y-76130000D03*
X188733500Y-77441000D03*
X188735500Y-78711000D03*
X188731500Y-80023000D03*
X188732500Y-81249000D03*
X188733500Y-82557000D03*
X188733500Y-83829000D03*
%TD*%
D10*
%TO.C,C10*%
X130125000Y-99048000D03*
X131675000Y-99048000D03*
%TD*%
D22*
%TO.C,X1*%
X121083000Y-101685000D03*
X122933000Y-101685000D03*
X122933000Y-100235000D03*
X121083000Y-100235000D03*
%TD*%
M02*
