M48
; DRILL file {KiCad (6.0.2)} date Fri Dec 30 16:08:35 2022
; FORMAT={-:-/ absolute / metric / decimal}
; #@! TF.CreationDate,2022-12-30T16:08:35-06:00
; #@! TF.GenerationSoftware,Kicad,Pcbnew,(6.0.2)
; #@! TF.FileFunction,Plated,1,2,PTH
FMAT,2
METRIC
; #@! TA.AperFunction,Plated,PTH,ViaDrill
T1C0.300
; #@! TA.AperFunction,Plated,PTH,ViaDrill
T2C0.400
; #@! TA.AperFunction,Plated,PTH,ComponentDrill
T3C0.800
; #@! TA.AperFunction,Plated,PTH,ComponentDrill
T4C1.000
; #@! TA.AperFunction,Plated,PTH,ComponentDrill
T5C4.450
%
G90
G05
T1
X101.855Y-105.893
X101.886Y-82.476
X103.266Y-89.866
X103.716Y-90.668
X104.615Y-97.361
X104.652Y-92.69
X105.086Y-85.015
X105.097Y-111.124
X105.102Y-112.355
X105.298Y-83.783
X105.504Y-109.243
X106.188Y-109.669
X106.671Y-75.13
X106.773Y-108.299
X106.929Y-112.286
X107.296Y-95.194
X107.462Y-106.986
X108.045Y-84.025
X108.304Y-81.489
X108.481Y-78.753
X108.83Y-104.966
X109.16Y-78.372
X109.198Y-118.724
X109.21Y-92.355
X109.654Y-109.278
X109.999Y-105.268
X110.959Y-92.829
X111.159Y-110.139
X111.477Y-92.357
X112.264Y-111.229
X112.886Y-106.001
X113.05Y-116.151
X113.087Y-104.796
X113.091Y-92.319
X113.267Y-111.914
X113.302Y-86.287
X113.303Y-78.928
X113.399Y-83.107
X113.88Y-113.848
X113.911Y-117.012
X114.07Y-76.617
X114.259Y-101.379
X114.678Y-95.31
X115.84Y-116.075
X116.509Y-111.928
X116.519Y-85.016
X116.521Y-83.784
X116.527Y-108.544
X116.584Y-81.879
X116.636Y-106.272
X116.669Y-80.584
X116.712Y-104.414
X117.296Y-88.204
X117.296Y-90.36
X117.532Y-110.966
X118.083Y-83.483
X118.39Y-103.462
X118.626Y-113.325
X119.294Y-77.075
X119.522Y-103.25
X120.476Y-83.843
X120.61Y-111.872
X120.707Y-122.583
X120.791Y-94.421
X121.06Y-86.088
X121.231Y-97.567
X123.003Y-76.02
X123.087Y-92.087
X123.289Y-71.332
X123.389Y-125.557
X123.78Y-97.521
X124.042Y-93.215
X124.55Y-76.068
X124.609Y-123.164
X125.513Y-123.834
X125.837Y-71.299
X126.185Y-101.65
X126.457Y-91.61
X127.105Y-110.774
X127.108Y-108.909
X127.326Y-95.173
X127.494Y-125.431
X128.352Y-103.209
X128.814Y-71.303
X128.925Y-125.283
X129.17Y-115.274
X129.755Y-110.591
X129.755Y-112.35
X130.05Y-77.341
X130.215Y-124.142
X131.13Y-109.999
X131.828Y-93.53
X131.958Y-75.871
X132.101Y-120.183
X132.291Y-92.954
X132.395Y-88.529
X132.709Y-95.349
X133.586Y-81.147
X133.837Y-77.326
X134.138Y-79.82
X134.463Y-82.874
X134.669Y-81.938
X134.683Y-109.048
X134.815Y-115.805
X134.95Y-122.583
X135.363Y-100.33
X135.718Y-119.38
X135.893Y-118.263
X136.126Y-97.521
X136.325Y-95.37
X136.37Y-113.98
X136.601Y-111.774
X136.984Y-110.245
X137.059Y-102.736
X137.067Y-100.293
X137.316Y-95.934
X137.596Y-109.422
X137.927Y-125.527
X138.397Y-105.727
X138.482Y-97.537
X138.555Y-102.778
X138.99Y-98.019
X139.51Y-105.198
X139.539Y-87.064
X139.612Y-102.829
X140.199Y-107.774
X140.665Y-100.811
X140.811Y-125.607
X141.327Y-123.843
X141.389Y-102.379
X141.512Y-98.901
X142.496Y-122.17
X142.569Y-102.864
X142.598Y-110.372
X142.598Y-113.085
X143.554Y-84.924
X144.529Y-71.32
X144.999Y-105.412
X145.431Y-112.879
X145.612Y-125.607
X145.655Y-105.833
X146.313Y-110.577
X146.568Y-72.448
X146.952Y-71.326
X146.966Y-125.009
X147.293Y-87.573
X147.307Y-106.243
X147.349Y-105.057
X147.482Y-114.318
X148.369Y-71.091
X148.443Y-125.505
X149.326Y-87.573
X149.354Y-102.511
X150.006Y-98.089
X152.243Y-97.226
X152.938Y-124.965
X153.18Y-125.897
X154.903Y-71.974
X155.985Y-71.087
X156.183Y-118.025
X156.911Y-119.015
X157.189Y-72.305
X157.552Y-85.499
X159.577Y-124.466
X160.967Y-125.442
X161.222Y-71.24
X163.331Y-71.082
X164.396Y-124.943
X166.286Y-71.24
X166.43Y-124.557
X168.312Y-125.607
X169.611Y-71.291
X175.536Y-122.808
X175.712Y-126.181
X176.019Y-70.616
X176.112Y-123.45
X176.59Y-72.807
X176.641Y-88.696
X176.948Y-107.603
X177.285Y-109.608
X178.207Y-90.651
X179.038Y-92.69
X179.085Y-93.551
X181.224Y-107.156
X183.879Y-109.836
X184.02Y-88.598
X184.051Y-91.72
X185.54Y-78.676
X185.718Y-111.736
X186.475Y-77.589
X186.828Y-76.042
X187.013Y-118.973
X187.03Y-117.029
X187.073Y-120.685
X187.173Y-115.165
X192.14Y-74.173
X192.529Y-77.808
X192.531Y-78.622
X192.994Y-80.025
T2
X107.83Y-85.233
X108.041Y-74.228
X110.731Y-98.49
X110.975Y-81.995
X116.555Y-68.138
X118.335Y-81.247
X119.655Y-100.117
X120.625Y-109.496
X120.727Y-125.482
X124.341Y-101.787
X127.078Y-119.742
X127.302Y-99.048
X128.229Y-121.333
X129.035Y-82.885
X129.754Y-72.326
X131.356Y-124.89
X132.242Y-119.333
X134.184Y-99.813
X134.463Y-105.062
X137.014Y-121.32
X139.314Y-125.261
X140.215Y-72.409
X148.576Y-104.932
X156.849Y-113.316
X158.574Y-125.27
X158.628Y-119.2
X159.418Y-71.46
X159.491Y-83.673
X173.405Y-70.993
X173.493Y-125.296
X178.964Y-125.316
X179.744Y-71.451
T3
X168.639Y-75.513
X168.639Y-78.052
X168.639Y-80.593
X168.639Y-83.132
X168.639Y-85.672
X173.719Y-75.513
X173.719Y-78.052
X173.719Y-80.593
X173.719Y-83.132
X173.719Y-85.672
T4
X132.826Y-91.392
X134.211Y-94.232
X135.596Y-91.392
X136.981Y-94.232
X138.366Y-91.392
X139.751Y-94.232
X141.136Y-91.392
X142.521Y-94.232
X143.906Y-91.392
X145.291Y-94.232
X146.35Y-79.82
X146.35Y-82.361
X146.676Y-91.392
X148.061Y-94.232
X148.89Y-79.82
X148.89Y-82.361
X149.446Y-91.392
X150.831Y-94.232
X151.43Y-79.82
X151.43Y-82.361
X152.216Y-91.392
X153.601Y-94.232
X153.97Y-79.82
X153.97Y-82.361
X154.986Y-91.392
X156.371Y-94.232
X156.51Y-79.82
X156.51Y-82.361
X157.756Y-91.392
X159.141Y-94.232
X160.526Y-91.392
X161.911Y-94.232
X163.296Y-91.392
X164.681Y-94.232
X166.066Y-91.392
X193.087Y-95.977
X193.126Y-89.627
X197.572Y-95.98
X197.611Y-89.629
T5
X104.544Y-121.691
X108.395Y-67.879
X190.826Y-67.918
X194.001Y-121.736
T0
M30
