%TF.GenerationSoftware,KiCad,Pcbnew,(6.0.2)*%
%TF.CreationDate,2022-12-30T16:08:33-06:00*%
%TF.ProjectId,REF1329_Altera,52454631-3332-4395-9f41-6c746572612e,rev?*%
%TF.SameCoordinates,Original*%
%TF.FileFunction,Legend,Bot*%
%TF.FilePolarity,Positive*%
%FSLAX46Y46*%
G04 Gerber Fmt 4.6, Leading zero omitted, Abs format (unit mm)*
G04 Created by KiCad (PCBNEW (6.0.2)) date 2022-12-30 16:08:33*
%MOMM*%
%LPD*%
G01*
G04 APERTURE LIST*
%ADD10C,0.125000*%
%ADD11C,0.120000*%
G04 APERTURE END LIST*
D10*
X153810857Y-88333190D02*
X153810857Y-87833190D01*
X153691809Y-87833190D01*
X153620380Y-87857000D01*
X153572761Y-87904619D01*
X153548952Y-87952238D01*
X153525142Y-88047476D01*
X153525142Y-88118904D01*
X153548952Y-88214142D01*
X153572761Y-88261761D01*
X153620380Y-88309380D01*
X153691809Y-88333190D01*
X153810857Y-88333190D01*
X153144190Y-88071285D02*
X153072761Y-88095095D01*
X153048952Y-88118904D01*
X153025142Y-88166523D01*
X153025142Y-88237952D01*
X153048952Y-88285571D01*
X153072761Y-88309380D01*
X153120380Y-88333190D01*
X153310857Y-88333190D01*
X153310857Y-87833190D01*
X153144190Y-87833190D01*
X153096571Y-87857000D01*
X153072761Y-87880809D01*
X153048952Y-87928428D01*
X153048952Y-87976047D01*
X153072761Y-88023666D01*
X153096571Y-88047476D01*
X153144190Y-88071285D01*
X153310857Y-88071285D01*
X152834666Y-87880809D02*
X152810857Y-87857000D01*
X152763238Y-87833190D01*
X152644190Y-87833190D01*
X152596571Y-87857000D01*
X152572761Y-87880809D01*
X152548952Y-87928428D01*
X152548952Y-87976047D01*
X152572761Y-88047476D01*
X152858476Y-88333190D01*
X152548952Y-88333190D01*
X152096571Y-87833190D02*
X152334666Y-87833190D01*
X152358476Y-88071285D01*
X152334666Y-88047476D01*
X152287047Y-88023666D01*
X152168000Y-88023666D01*
X152120380Y-88047476D01*
X152096571Y-88071285D01*
X152072761Y-88118904D01*
X152072761Y-88237952D01*
X152096571Y-88285571D01*
X152120380Y-88309380D01*
X152168000Y-88333190D01*
X152287047Y-88333190D01*
X152334666Y-88309380D01*
X152358476Y-88285571D01*
X151477523Y-88333190D02*
X151477523Y-87833190D01*
X151287047Y-87833190D01*
X151239428Y-87857000D01*
X151215619Y-87880809D01*
X151191809Y-87928428D01*
X151191809Y-87999857D01*
X151215619Y-88047476D01*
X151239428Y-88071285D01*
X151287047Y-88095095D01*
X151477523Y-88095095D01*
X150763238Y-88333190D02*
X150763238Y-88071285D01*
X150787047Y-88023666D01*
X150834666Y-87999857D01*
X150929904Y-87999857D01*
X150977523Y-88023666D01*
X150763238Y-88309380D02*
X150810857Y-88333190D01*
X150929904Y-88333190D01*
X150977523Y-88309380D01*
X151001333Y-88261761D01*
X151001333Y-88214142D01*
X150977523Y-88166523D01*
X150929904Y-88142714D01*
X150810857Y-88142714D01*
X150763238Y-88118904D01*
X150525142Y-88333190D02*
X150525142Y-87999857D01*
X150525142Y-88095095D02*
X150501333Y-88047476D01*
X150477523Y-88023666D01*
X150429904Y-87999857D01*
X150382285Y-87999857D01*
X150001333Y-88333190D02*
X150001333Y-88071285D01*
X150025142Y-88023666D01*
X150072761Y-87999857D01*
X150168000Y-87999857D01*
X150215619Y-88023666D01*
X150001333Y-88309380D02*
X150048952Y-88333190D01*
X150168000Y-88333190D01*
X150215619Y-88309380D01*
X150239428Y-88261761D01*
X150239428Y-88214142D01*
X150215619Y-88166523D01*
X150168000Y-88142714D01*
X150048952Y-88142714D01*
X150001333Y-88118904D01*
X149691809Y-88333190D02*
X149739428Y-88309380D01*
X149763238Y-88261761D01*
X149763238Y-87833190D01*
X149429904Y-88333190D02*
X149477523Y-88309380D01*
X149501333Y-88261761D01*
X149501333Y-87833190D01*
X149048952Y-88309380D02*
X149096571Y-88333190D01*
X149191809Y-88333190D01*
X149239428Y-88309380D01*
X149263238Y-88261761D01*
X149263238Y-88071285D01*
X149239428Y-88023666D01*
X149191809Y-87999857D01*
X149096571Y-87999857D01*
X149048952Y-88023666D01*
X149025142Y-88071285D01*
X149025142Y-88118904D01*
X149263238Y-88166523D01*
X148739428Y-88333190D02*
X148787047Y-88309380D01*
X148810857Y-88261761D01*
X148810857Y-87833190D01*
X148168000Y-88333190D02*
X148168000Y-87833190D01*
X147977523Y-87833190D01*
X147929904Y-87857000D01*
X147906095Y-87880809D01*
X147882285Y-87928428D01*
X147882285Y-87999857D01*
X147906095Y-88047476D01*
X147929904Y-88071285D01*
X147977523Y-88095095D01*
X148168000Y-88095095D01*
X147596571Y-88333190D02*
X147644190Y-88309380D01*
X147668000Y-88285571D01*
X147691809Y-88237952D01*
X147691809Y-88095095D01*
X147668000Y-88047476D01*
X147644190Y-88023666D01*
X147596571Y-87999857D01*
X147525142Y-87999857D01*
X147477523Y-88023666D01*
X147453714Y-88047476D01*
X147429904Y-88095095D01*
X147429904Y-88237952D01*
X147453714Y-88285571D01*
X147477523Y-88309380D01*
X147525142Y-88333190D01*
X147596571Y-88333190D01*
X147215619Y-88333190D02*
X147215619Y-87999857D01*
X147215619Y-88095095D02*
X147191809Y-88047476D01*
X147168000Y-88023666D01*
X147120380Y-87999857D01*
X147072761Y-87999857D01*
X146977523Y-87999857D02*
X146787047Y-87999857D01*
X146906095Y-87833190D02*
X146906095Y-88261761D01*
X146882285Y-88309380D01*
X146834666Y-88333190D01*
X146787047Y-88333190D01*
X146596571Y-88309380D02*
X146596571Y-88333190D01*
X146620380Y-88380809D01*
X146644190Y-88404619D01*
X146001333Y-88333190D02*
X146001333Y-87833190D01*
X145834666Y-88190333D01*
X145668000Y-87833190D01*
X145668000Y-88333190D01*
X145215619Y-88333190D02*
X145215619Y-88071285D01*
X145239428Y-88023666D01*
X145287047Y-87999857D01*
X145382285Y-87999857D01*
X145429904Y-88023666D01*
X145215619Y-88309380D02*
X145263238Y-88333190D01*
X145382285Y-88333190D01*
X145429904Y-88309380D01*
X145453714Y-88261761D01*
X145453714Y-88214142D01*
X145429904Y-88166523D01*
X145382285Y-88142714D01*
X145263238Y-88142714D01*
X145215619Y-88118904D01*
X144906095Y-88333190D02*
X144953714Y-88309380D01*
X144977523Y-88261761D01*
X144977523Y-87833190D01*
X144525142Y-88309380D02*
X144572761Y-88333190D01*
X144668000Y-88333190D01*
X144715619Y-88309380D01*
X144739428Y-88261761D01*
X144739428Y-88071285D01*
X144715619Y-88023666D01*
X144668000Y-87999857D01*
X144572761Y-87999857D01*
X144525142Y-88023666D01*
X144501333Y-88071285D01*
X144501333Y-88118904D01*
X144739428Y-88166523D01*
D11*
%TO.C,J1*%
X166316000Y-85607362D02*
X165816000Y-85607362D01*
X174996000Y-86501700D02*
X123896000Y-86501700D01*
X122836000Y-87561700D02*
X122836000Y-98061700D01*
X130579530Y-90549956D02*
X131478798Y-95649956D01*
X166066000Y-86040375D02*
X166316000Y-85607362D01*
X123896000Y-99121700D02*
X174996000Y-99121700D01*
X165778421Y-97021700D02*
X133113579Y-97021700D01*
X176056000Y-98061700D02*
X176056000Y-87561700D01*
X165816000Y-85607362D02*
X166066000Y-86040375D01*
X166677689Y-88601700D02*
X132214311Y-88601700D01*
X168312470Y-90549956D02*
X167413202Y-95649956D01*
X132214311Y-88601700D02*
G75*
G03*
X130579530Y-90549956I-1J-1659999D01*
G01*
X176056000Y-87561700D02*
G75*
G03*
X174996000Y-86501700I-1060001J-1D01*
G01*
X123896000Y-86501700D02*
G75*
G03*
X122836000Y-87561700I1J-1060001D01*
G01*
X165778421Y-97021700D02*
G75*
G03*
X167413202Y-95649956I1J1659999D01*
G01*
X122836000Y-98061700D02*
G75*
G03*
X123896000Y-99121700I1060001J1D01*
G01*
X131478798Y-95649956D02*
G75*
G03*
X133113579Y-97021700I1634780J288255D01*
G01*
X174996000Y-99121700D02*
G75*
G03*
X176056000Y-98061700I-1J1060001D01*
G01*
X168312470Y-90549956D02*
G75*
G03*
X166677689Y-88601700I-1634780J288257D01*
G01*
%TD*%
M02*
