%TF.GenerationSoftware,KiCad,Pcbnew,(6.0.2)*%
%TF.CreationDate,2022-12-30T16:08:33-06:00*%
%TF.ProjectId,REF1329_Altera,52454631-3332-4395-9f41-6c746572612e,rev?*%
%TF.SameCoordinates,Original*%
%TF.FileFunction,Soldermask,Bot*%
%TF.FilePolarity,Negative*%
%FSLAX46Y46*%
G04 Gerber Fmt 4.6, Leading zero omitted, Abs format (unit mm)*
G04 Created by KiCad (PCBNEW (6.0.2)) date 2022-12-30 16:08:33*
%MOMM*%
%LPD*%
G01*
G04 APERTURE LIST*
G04 Aperture macros list*
%AMRoundRect*
0 Rectangle with rounded corners*
0 $1 Rounding radius*
0 $2 $3 $4 $5 $6 $7 $8 $9 X,Y pos of 4 corners*
0 Add a 4 corners polygon primitive as box body*
4,1,4,$2,$3,$4,$5,$6,$7,$8,$9,$2,$3,0*
0 Add four circle primitives for the rounded corners*
1,1,$1+$1,$2,$3*
1,1,$1+$1,$4,$5*
1,1,$1+$1,$6,$7*
1,1,$1+$1,$8,$9*
0 Add four rect primitives between the rounded corners*
20,1,$1+$1,$2,$3,$4,$5,0*
20,1,$1+$1,$4,$5,$6,$7,0*
20,1,$1+$1,$6,$7,$8,$9,0*
20,1,$1+$1,$8,$9,$2,$3,0*%
G04 Aperture macros list end*
%ADD10RoundRect,0.375000X-0.375000X-2.750000X0.375000X-2.750000X0.375000X2.750000X-0.375000X2.750000X0*%
%ADD11R,1.590000X1.590000*%
%ADD12C,4.680000*%
%ADD13R,1.600000X1.600000*%
%ADD14C,1.600000*%
%ADD15R,1.500000X9.000000*%
%ADD16C,1.700000*%
%ADD17R,1.700000X1.700000*%
G04 APERTURE END LIST*
D10*
%TO.C,J3*%
X118842000Y-67717000D03*
X121379500Y-67717000D03*
X123917000Y-67717000D03*
X126454500Y-67717000D03*
X128992000Y-67717000D03*
X131529500Y-67717000D03*
X134067000Y-67717000D03*
X136604500Y-67717000D03*
X139142000Y-67717000D03*
X141679500Y-67717000D03*
X144217000Y-67717000D03*
X146754500Y-67717000D03*
X149292000Y-67717000D03*
X151829500Y-67717000D03*
X154367000Y-67717000D03*
X156904500Y-67717000D03*
X159442000Y-67717000D03*
X161979500Y-67717000D03*
X164517000Y-67717000D03*
X167054500Y-67717000D03*
X169592000Y-67717000D03*
X172129500Y-67717000D03*
X174667000Y-67717000D03*
X177204500Y-67717000D03*
X179742000Y-67717000D03*
%TD*%
D11*
%TO.C,SW1*%
X193086500Y-95977500D03*
X193126500Y-89627500D03*
X197572500Y-95980500D03*
X197611500Y-89628500D03*
%TD*%
D12*
%TO.C,Hole1*%
X108395000Y-67879000D03*
%TD*%
%TO.C,Hole2*%
X104544000Y-121691000D03*
%TD*%
D13*
%TO.C,U3*%
X168639500Y-75512500D03*
D14*
X168639500Y-78052500D03*
X168639500Y-80592500D03*
X168639500Y-83132500D03*
X168639500Y-85672500D03*
X173719500Y-85672500D03*
X173719500Y-83132500D03*
X173719500Y-80592500D03*
X173719500Y-78052500D03*
X173719500Y-75512500D03*
%TD*%
D12*
%TO.C,Hole3*%
X190826000Y-67918000D03*
%TD*%
D15*
%TO.C,J4*%
X119411500Y-130432000D03*
X121911500Y-130432000D03*
X124411500Y-130432000D03*
X126911500Y-130432000D03*
X129411500Y-130432000D03*
X131911500Y-130432000D03*
X134411500Y-130432000D03*
X136911500Y-130432000D03*
X139411500Y-130432000D03*
X141911500Y-130432000D03*
X144411500Y-130432000D03*
X146911500Y-130432000D03*
X149411500Y-130432000D03*
X151911500Y-130432000D03*
X154411500Y-130432000D03*
X156911500Y-130432000D03*
X159411500Y-130432000D03*
X161911500Y-130432000D03*
X164411500Y-130432000D03*
X166911500Y-130432000D03*
X169411500Y-130432000D03*
X171911500Y-130432000D03*
X174411500Y-130432000D03*
X176911500Y-130432000D03*
X179411500Y-130432000D03*
%TD*%
D12*
%TO.C,Hole4*%
X194001000Y-121736000D03*
%TD*%
D16*
%TO.C,J6*%
X156510000Y-79820500D03*
D17*
X156510000Y-82360500D03*
D16*
X153970000Y-79820500D03*
X153970000Y-82360500D03*
X151430000Y-79820500D03*
X151430000Y-82360500D03*
X148890000Y-79820500D03*
X148890000Y-82360500D03*
X146350000Y-79820500D03*
X146350000Y-82360500D03*
%TD*%
D13*
%TO.C,J1*%
X166066000Y-91391700D03*
D14*
X163296000Y-91391700D03*
X160526000Y-91391700D03*
X157756000Y-91391700D03*
X154986000Y-91391700D03*
X152216000Y-91391700D03*
X149446000Y-91391700D03*
X146676000Y-91391700D03*
X143906000Y-91391700D03*
X141136000Y-91391700D03*
X138366000Y-91391700D03*
X135596000Y-91391700D03*
X132826000Y-91391700D03*
X164681000Y-94231700D03*
X161911000Y-94231700D03*
X159141000Y-94231700D03*
X156371000Y-94231700D03*
X153601000Y-94231700D03*
X150831000Y-94231700D03*
X148061000Y-94231700D03*
X145291000Y-94231700D03*
X142521000Y-94231700D03*
X139751000Y-94231700D03*
X136981000Y-94231700D03*
X134211000Y-94231700D03*
%TD*%
M02*
