%TF.GenerationSoftware,KiCad,Pcbnew,(6.0.2)*%
%TF.CreationDate,2022-12-30T16:08:33-06:00*%
%TF.ProjectId,REF1329_Altera,52454631-3332-4395-9f41-6c746572612e,rev?*%
%TF.SameCoordinates,Original*%
%TF.FileFunction,Paste,Bot*%
%TF.FilePolarity,Positive*%
%FSLAX46Y46*%
G04 Gerber Fmt 4.6, Leading zero omitted, Abs format (unit mm)*
G04 Created by KiCad (PCBNEW (6.0.2)) date 2022-12-30 16:08:33*
%MOMM*%
%LPD*%
G01*
G04 APERTURE LIST*
G04 Aperture macros list*
%AMRoundRect*
0 Rectangle with rounded corners*
0 $1 Rounding radius*
0 $2 $3 $4 $5 $6 $7 $8 $9 X,Y pos of 4 corners*
0 Add a 4 corners polygon primitive as box body*
4,1,4,$2,$3,$4,$5,$6,$7,$8,$9,$2,$3,0*
0 Add four circle primitives for the rounded corners*
1,1,$1+$1,$2,$3*
1,1,$1+$1,$4,$5*
1,1,$1+$1,$6,$7*
1,1,$1+$1,$8,$9*
0 Add four rect primitives between the rounded corners*
20,1,$1+$1,$2,$3,$4,$5,0*
20,1,$1+$1,$4,$5,$6,$7,0*
20,1,$1+$1,$6,$7,$8,$9,0*
20,1,$1+$1,$8,$9,$2,$3,0*%
G04 Aperture macros list end*
%ADD10RoundRect,0.375000X-0.375000X-2.750000X0.375000X-2.750000X0.375000X2.750000X-0.375000X2.750000X0*%
%ADD11R,1.500000X9.000000*%
G04 APERTURE END LIST*
D10*
%TO.C,J3*%
X118842000Y-67717000D03*
X121379500Y-67717000D03*
X123917000Y-67717000D03*
X126454500Y-67717000D03*
X128992000Y-67717000D03*
X131529500Y-67717000D03*
X134067000Y-67717000D03*
X136604500Y-67717000D03*
X139142000Y-67717000D03*
X141679500Y-67717000D03*
X144217000Y-67717000D03*
X146754500Y-67717000D03*
X149292000Y-67717000D03*
X151829500Y-67717000D03*
X154367000Y-67717000D03*
X156904500Y-67717000D03*
X159442000Y-67717000D03*
X161979500Y-67717000D03*
X164517000Y-67717000D03*
X167054500Y-67717000D03*
X169592000Y-67717000D03*
X172129500Y-67717000D03*
X174667000Y-67717000D03*
X177204500Y-67717000D03*
X179742000Y-67717000D03*
%TD*%
D11*
%TO.C,J4*%
X119411500Y-130432000D03*
X121911500Y-130432000D03*
X124411500Y-130432000D03*
X126911500Y-130432000D03*
X129411500Y-130432000D03*
X131911500Y-130432000D03*
X134411500Y-130432000D03*
X136911500Y-130432000D03*
X139411500Y-130432000D03*
X141911500Y-130432000D03*
X144411500Y-130432000D03*
X146911500Y-130432000D03*
X149411500Y-130432000D03*
X151911500Y-130432000D03*
X154411500Y-130432000D03*
X156911500Y-130432000D03*
X159411500Y-130432000D03*
X161911500Y-130432000D03*
X164411500Y-130432000D03*
X166911500Y-130432000D03*
X169411500Y-130432000D03*
X171911500Y-130432000D03*
X174411500Y-130432000D03*
X176911500Y-130432000D03*
X179411500Y-130432000D03*
%TD*%
M02*
