%TF.GenerationSoftware,KiCad,Pcbnew,(6.0.2)*%
%TF.CreationDate,2022-12-30T16:08:33-06:00*%
%TF.ProjectId,REF1329_Altera,52454631-3332-4395-9f41-6c746572612e,rev?*%
%TF.SameCoordinates,Original*%
%TF.FileFunction,Copper,L1,Top*%
%TF.FilePolarity,Positive*%
%FSLAX46Y46*%
G04 Gerber Fmt 4.6, Leading zero omitted, Abs format (unit mm)*
G04 Created by KiCad (PCBNEW (6.0.2)) date 2022-12-30 16:08:33*
%MOMM*%
%LPD*%
G01*
G04 APERTURE LIST*
G04 Aperture macros list*
%AMRoundRect*
0 Rectangle with rounded corners*
0 $1 Rounding radius*
0 $2 $3 $4 $5 $6 $7 $8 $9 X,Y pos of 4 corners*
0 Add a 4 corners polygon primitive as box body*
4,1,4,$2,$3,$4,$5,$6,$7,$8,$9,$2,$3,0*
0 Add four circle primitives for the rounded corners*
1,1,$1+$1,$2,$3*
1,1,$1+$1,$4,$5*
1,1,$1+$1,$6,$7*
1,1,$1+$1,$8,$9*
0 Add four rect primitives between the rounded corners*
20,1,$1+$1,$2,$3,$4,$5,0*
20,1,$1+$1,$4,$5,$6,$7,0*
20,1,$1+$1,$6,$7,$8,$9,0*
20,1,$1+$1,$8,$9,$2,$3,0*%
G04 Aperture macros list end*
%TA.AperFunction,SMDPad,CuDef*%
%ADD10RoundRect,0.225000X-0.225000X-0.250000X0.225000X-0.250000X0.225000X0.250000X-0.225000X0.250000X0*%
%TD*%
%TA.AperFunction,SMDPad,CuDef*%
%ADD11RoundRect,0.375000X-0.375000X-2.750000X0.375000X-2.750000X0.375000X2.750000X-0.375000X2.750000X0*%
%TD*%
%TA.AperFunction,SMDPad,CuDef*%
%ADD12R,1.310000X1.390000*%
%TD*%
%TA.AperFunction,SMDPad,CuDef*%
%ADD13R,1.710000X1.630000*%
%TD*%
%TA.AperFunction,ComponentPad*%
%ADD14R,1.590000X1.590000*%
%TD*%
%TA.AperFunction,ComponentPad*%
%ADD15C,4.680000*%
%TD*%
%TA.AperFunction,SMDPad,CuDef*%
%ADD16RoundRect,0.200000X-0.200000X-0.275000X0.200000X-0.275000X0.200000X0.275000X-0.200000X0.275000X0*%
%TD*%
%TA.AperFunction,ComponentPad*%
%ADD17R,1.600000X1.600000*%
%TD*%
%TA.AperFunction,ComponentPad*%
%ADD18C,1.600000*%
%TD*%
%TA.AperFunction,SMDPad,CuDef*%
%ADD19R,0.700000X2.270000*%
%TD*%
%TA.AperFunction,SMDPad,CuDef*%
%ADD20R,2.270000X0.700000*%
%TD*%
%TA.AperFunction,SMDPad,CuDef*%
%ADD21R,2.000000X0.700000*%
%TD*%
%TA.AperFunction,SMDPad,CuDef*%
%ADD22R,1.475000X0.300000*%
%TD*%
%TA.AperFunction,SMDPad,CuDef*%
%ADD23R,0.300000X1.475000*%
%TD*%
%TA.AperFunction,SMDPad,CuDef*%
%ADD24R,1.700000X1.630000*%
%TD*%
%TA.AperFunction,SMDPad,CuDef*%
%ADD25R,1.500000X9.000000*%
%TD*%
%TA.AperFunction,ComponentPad*%
%ADD26C,1.700000*%
%TD*%
%TA.AperFunction,ComponentPad*%
%ADD27R,1.700000X1.700000*%
%TD*%
%TA.AperFunction,SMDPad,CuDef*%
%ADD28R,0.900000X0.800000*%
%TD*%
%TA.AperFunction,ViaPad*%
%ADD29C,0.500000*%
%TD*%
%TA.AperFunction,ViaPad*%
%ADD30C,0.800000*%
%TD*%
%TA.AperFunction,Conductor*%
%ADD31C,0.250000*%
%TD*%
%TA.AperFunction,Conductor*%
%ADD32C,0.500000*%
%TD*%
%TA.AperFunction,Conductor*%
%ADD33C,0.299800*%
%TD*%
G04 APERTURE END LIST*
D10*
%TO.P,C9,1*%
%TO.N,/VCC*%
X137125000Y-99048000D03*
%TO.P,C9,2*%
%TO.N,/GND*%
X138675000Y-99048000D03*
%TD*%
D11*
%TO.P,J3,1,GND*%
%TO.N,/GND*%
X118842000Y-67717000D03*
%TO.P,J3,2,GND*%
X121379500Y-67717000D03*
%TO.P,J3,3,AD15*%
%TO.N,/AD15*%
X123917000Y-67717000D03*
%TO.P,J3,4,AD14*%
%TO.N,/AD14*%
X126454500Y-67717000D03*
%TO.P,J3,5,AD13*%
%TO.N,/AD13*%
X128992000Y-67717000D03*
%TO.P,J3,6,GND*%
%TO.N,/GND*%
X131529500Y-67717000D03*
%TO.P,J3,7,AD12*%
%TO.N,/AD12*%
X134067000Y-67717000D03*
%TO.P,J3,8,/WR*%
%TO.N,/{slash}write*%
X136604500Y-67717000D03*
%TO.P,J3,9,3.3V*%
%TO.N,/VCC*%
X139142000Y-67717000D03*
%TO.P,J3,10,/RD*%
%TO.N,/{slash}read_top*%
X141679500Y-67717000D03*
%TO.P,J3,11,AD11*%
%TO.N,/AD11*%
X144217000Y-67717000D03*
%TO.P,J3,12,AD10*%
%TO.N,/AD10*%
X146754500Y-67717000D03*
%TO.P,J3,13,12V*%
%TO.N,/12V_Front*%
X149292000Y-67717000D03*
%TO.P,J3,14,12V*%
%TO.N,/UNUSED_Front*%
X151829500Y-67717000D03*
%TO.P,J3,15,AD9*%
%TO.N,/AD9*%
X154367000Y-67717000D03*
%TO.P,J3,16,AD8*%
%TO.N,/AD8*%
X156904500Y-67717000D03*
%TO.P,J3,17,3.3V*%
%TO.N,/VCC*%
X159442000Y-67717000D03*
%TO.P,J3,18,CIC_15*%
%TO.N,/CIC_DATA1*%
X161979500Y-67717000D03*
%TO.P,J3,19,CIC_11*%
%TO.N,/1.6MHZ*%
X164517000Y-67717000D03*
%TO.P,J3,20,/ColdReset*%
%TO.N,/{slash}COLD_RESET*%
X167054500Y-67717000D03*
%TO.P,J3,21,EEPROM_DAT*%
%TO.N,/S_DAT*%
X169592000Y-67717000D03*
%TO.P,J3,22,GND*%
%TO.N,/GND*%
X172129500Y-67717000D03*
%TO.P,J3,23,GND*%
X174667000Y-67717000D03*
%TO.P,J3,24,LAUDIO*%
%TO.N,/LAUDIO*%
X177204500Y-67717000D03*
%TO.P,J3,25,GND*%
%TO.N,/GND*%
X179742000Y-67717000D03*
%TD*%
D12*
%TO.P,R5,1*%
%TO.N,/C*%
X182632500Y-74866000D03*
%TO.P,R5,2*%
%TO.N,/Q1*%
X184418500Y-74867000D03*
%TD*%
D13*
%TO.P,R1,1*%
%TO.N,/Button*%
X181888000Y-93211400D03*
%TO.P,R1,2*%
%TO.N,/VCC*%
X185115000Y-93218400D03*
%TD*%
D12*
%TO.P,R4,1*%
%TO.N,/DP*%
X182632500Y-72961000D03*
%TO.P,R4,2*%
%TO.N,/Q0*%
X184418500Y-72962000D03*
%TD*%
D14*
%TO.P,SW1,1,1*%
%TO.N,/GND*%
X193086500Y-95977500D03*
X193126500Y-89627500D03*
%TO.P,SW1,2,2*%
%TO.N,/Button*%
X197572500Y-95980500D03*
X197611500Y-89628500D03*
%TD*%
D10*
%TO.P,C4,1*%
%TO.N,/GND*%
X121898000Y-109275000D03*
%TO.P,C4,2*%
%TO.N,/VCC*%
X123448000Y-109275000D03*
%TD*%
D15*
%TO.P,Hole1,1*%
%TO.N,N/C*%
X108395000Y-67879000D03*
%TD*%
D16*
%TO.P,R14,1*%
%TO.N,/VCC*%
X131175000Y-81795000D03*
%TO.P,R14,2*%
%TO.N,/TDO*%
X132825000Y-81795000D03*
%TD*%
D10*
%TO.P,C8,1*%
%TO.N,/VCC*%
X143850000Y-108770000D03*
%TO.P,C8,2*%
%TO.N,/GND*%
X145400000Y-108770000D03*
%TD*%
D12*
%TO.P,R8,1*%
%TO.N,/F*%
X182632500Y-80578000D03*
%TO.P,R8,2*%
%TO.N,/Q4*%
X184418500Y-80579000D03*
%TD*%
D15*
%TO.P,Hole2,1*%
%TO.N,N/C*%
X104544000Y-121691000D03*
%TD*%
D16*
%TO.P,R15,1*%
%TO.N,/GND*%
X131175000Y-83295000D03*
%TO.P,R15,2*%
%TO.N,/TCK*%
X132825000Y-83295000D03*
%TD*%
D17*
%TO.P,U3,1,CA*%
%TO.N,/VCC*%
X168639500Y-75512500D03*
D18*
%TO.P,U3,2,F*%
%TO.N,/F*%
X168639500Y-78052500D03*
%TO.P,U3,3,G*%
%TO.N,/G*%
X168639500Y-80592500D03*
%TO.P,U3,4,E*%
%TO.N,/E*%
X168639500Y-83132500D03*
%TO.P,U3,5,D*%
%TO.N,/D*%
X168639500Y-85672500D03*
%TO.P,U3,6,CA*%
%TO.N,/VCC*%
X173719500Y-85672500D03*
%TO.P,U3,7,DP*%
%TO.N,/DP*%
X173719500Y-83132500D03*
%TO.P,U3,8,C*%
%TO.N,/C*%
X173719500Y-80592500D03*
%TO.P,U3,9,B*%
%TO.N,/B*%
X173719500Y-78052500D03*
%TO.P,U3,10,A*%
%TO.N,/A*%
X173719500Y-75512500D03*
%TD*%
D16*
%TO.P,R13,1*%
%TO.N,/VCC*%
X131175000Y-80295000D03*
%TO.P,R13,2*%
%TO.N,/TMS*%
X132825000Y-80295000D03*
%TD*%
D10*
%TO.P,C7,1*%
%TO.N,/VCC*%
X143850000Y-111030000D03*
%TO.P,C7,2*%
%TO.N,/GND*%
X145400000Y-111030000D03*
%TD*%
D19*
%TO.P,U2,1,A18*%
%TO.N,/A18*%
X109210500Y-114259000D03*
%TO.P,U2,2,A16*%
%TO.N,/A16*%
X110479500Y-114258000D03*
%TO.P,U2,3,A15*%
%TO.N,/A15*%
X111789500Y-114257000D03*
%TO.P,U2,4,A12*%
%TO.N,/A12*%
X113059500Y-114257000D03*
D20*
%TO.P,U2,5,A7*%
%TO.N,/A7*%
X114922500Y-112352000D03*
%TO.P,U2,6,A6*%
%TO.N,/A6*%
X114925500Y-111122000D03*
%TO.P,U2,7,A5*%
%TO.N,/A5*%
X114923500Y-109815000D03*
%TO.P,U2,8,A4*%
%TO.N,/A4*%
X114924500Y-108544000D03*
%TO.P,U2,9,A3*%
%TO.N,/A3*%
X114926500Y-107312000D03*
%TO.P,U2,10,A2*%
%TO.N,/A2*%
X114923500Y-106001000D03*
%TO.P,U2,11,A1*%
%TO.N,/A1*%
X114924500Y-104733000D03*
%TO.P,U2,12,A0*%
%TO.N,/A0*%
X114924500Y-103462000D03*
%TO.P,U2,13,Ad8*%
%TO.N,/AD8*%
X114924500Y-102194000D03*
D19*
%TO.P,U2,14,Ad9*%
%TO.N,/AD9*%
X113099500Y-100288000D03*
%TO.P,U2,15,Ad10*%
%TO.N,/AD10*%
X111829500Y-100289000D03*
%TO.P,U2,16,GND*%
%TO.N,/GND*%
X110519500Y-100287000D03*
%TO.P,U2,17,Ad11*%
%TO.N,/AD11*%
X109248500Y-100285000D03*
%TO.P,U2,18,Ad12*%
%TO.N,/AD12*%
X107937500Y-100288000D03*
%TO.P,U2,19,Ad13*%
%TO.N,/AD13*%
X106671500Y-100285000D03*
%TO.P,U2,20,Ad14*%
%TO.N,/AD14*%
X105440500Y-100287000D03*
D20*
%TO.P,U2,21,Ad15*%
%TO.N,/AD15*%
X103494500Y-102193000D03*
%TO.P,U2,22,CE#*%
%TO.N,/Chip_Enable*%
X103494500Y-103465000D03*
%TO.P,U2,23,A10*%
%TO.N,/A10*%
X103493500Y-104733000D03*
%TO.P,U2,24,OE#*%
%TO.N,/Output_Enable*%
X103494500Y-106004000D03*
%TO.P,U2,25,A11*%
%TO.N,/A11*%
X103495500Y-107311000D03*
%TO.P,U2,26,A9*%
%TO.N,/A9*%
X103494500Y-108543000D03*
%TO.P,U2,27,A8*%
%TO.N,/A8*%
X103497500Y-109812000D03*
%TO.P,U2,28,A13*%
%TO.N,/A13*%
X103494500Y-111124000D03*
%TO.P,U2,29,A14*%
%TO.N,/A14*%
X103493500Y-112355000D03*
D19*
%TO.P,U2,30,A17*%
%TO.N,/A17*%
X105398500Y-114259000D03*
%TO.P,U2,31,WE#*%
%TO.N,/{slash}write*%
X106629500Y-114256000D03*
%TO.P,U2,32,VCC*%
%TO.N,/VCC*%
X107900500Y-114257000D03*
%TD*%
D12*
%TO.P,R7,1*%
%TO.N,/A*%
X182632500Y-78675000D03*
%TO.P,R7,2*%
%TO.N,/Q3*%
X184418500Y-78676000D03*
%TD*%
D21*
%TO.P,U5,1*%
%TO.N,/74HC04*%
X185313000Y-107986000D03*
%TO.P,U5,2*%
%TO.N,/74HC04-374*%
X185312000Y-106719000D03*
%TO.P,U5,3*%
%TO.N,N/C*%
X185318000Y-105405000D03*
%TO.P,U5,4*%
X185311000Y-104179000D03*
%TO.P,U5,5*%
X185311000Y-102868000D03*
%TO.P,U5,6*%
X185312000Y-101596000D03*
%TO.P,U5,7,GND*%
%TO.N,/GND*%
X185310000Y-100286000D03*
%TO.P,U5,8*%
%TO.N,N/C*%
X179597000Y-100284000D03*
%TO.P,U5,9*%
X179597000Y-101595000D03*
%TO.P,U5,10*%
X179599000Y-102865000D03*
%TO.P,U5,11*%
X179595000Y-104177000D03*
%TO.P,U5,12*%
X179596000Y-105403000D03*
%TO.P,U5,13*%
X179597000Y-106711000D03*
%TO.P,U5,14,VCC*%
%TO.N,/VCC*%
X179597000Y-107983000D03*
%TD*%
D10*
%TO.P,C6,1*%
%TO.N,/VCC*%
X136625000Y-119500000D03*
%TO.P,C6,2*%
%TO.N,/GND*%
X138175000Y-119500000D03*
%TD*%
D22*
%TO.P,U7,1,IO2_1*%
%TO.N,unconnected-(U7-Pad1)*%
X125911000Y-103274000D03*
%TO.P,U7,2,IO1_2*%
%TO.N,/A0*%
X125911000Y-103774000D03*
%TO.P,U7,3,IO1_3*%
%TO.N,/A1*%
X125911000Y-104274000D03*
%TO.P,U7,4,IO1_4*%
%TO.N,/A2*%
X125911000Y-104774000D03*
%TO.P,U7,5,IO1_5*%
%TO.N,/A3*%
X125911000Y-105274000D03*
%TO.P,U7,6,IO1_6*%
%TO.N,/A4*%
X125911000Y-105774000D03*
%TO.P,U7,7,IO1_7*%
%TO.N,/A5*%
X125911000Y-106274000D03*
%TO.P,U7,8,IO1_8*%
%TO.N,/A6*%
X125911000Y-106774000D03*
%TO.P,U7,9,VCCIO1*%
%TO.N,/VCC*%
X125911000Y-107274000D03*
%TO.P,U7,10,GNDIO*%
%TO.N,/GND*%
X125911000Y-107774000D03*
%TO.P,U7,11,GNDINT*%
X125911000Y-108274000D03*
%TO.P,U7,12,IO1_12/GCLK0*%
%TO.N,/CLK*%
X125911000Y-108774000D03*
%TO.P,U7,13,VCCINT*%
%TO.N,/VCC*%
X125911000Y-109274000D03*
%TO.P,U7,14,IO1_14/GCLK1*%
%TO.N,/ALE_H*%
X125911000Y-109774000D03*
%TO.P,U7,15,IO1_15*%
%TO.N,/A7*%
X125911000Y-110274000D03*
%TO.P,U7,16,IO1_16*%
%TO.N,/A8*%
X125911000Y-110774000D03*
%TO.P,U7,17,IO1_17*%
%TO.N,/A9*%
X125911000Y-111274000D03*
%TO.P,U7,18,IO1_18*%
%TO.N,/A10*%
X125911000Y-111774000D03*
%TO.P,U7,19,IO1_19*%
%TO.N,/A11*%
X125911000Y-112274000D03*
%TO.P,U7,20,IO1_20*%
%TO.N,/A12*%
X125911000Y-112774000D03*
%TO.P,U7,21,IO1_21*%
%TO.N,/A13*%
X125911000Y-113274000D03*
%TO.P,U7,22,TMS*%
%TO.N,/TMS*%
X125911000Y-113774000D03*
%TO.P,U7,23,TDI*%
%TO.N,/TDI*%
X125911000Y-114274000D03*
%TO.P,U7,24,TCK*%
%TO.N,/TCK*%
X125911000Y-114774000D03*
%TO.P,U7,25,TDO*%
%TO.N,/TDO*%
X125911000Y-115274000D03*
D23*
%TO.P,U7,26,IO1_26*%
%TO.N,/A14*%
X127649000Y-117012000D03*
%TO.P,U7,27,IO1_27*%
%TO.N,/A15*%
X128149000Y-117012000D03*
%TO.P,U7,28,IO1_28*%
%TO.N,/A16*%
X128649000Y-117012000D03*
%TO.P,U7,29,IO1_29*%
%TO.N,/A17*%
X129149000Y-117012000D03*
%TO.P,U7,30,IO1_30*%
%TO.N,/A18*%
X129649000Y-117012000D03*
%TO.P,U7,31,VCCIO1*%
%TO.N,/VCC*%
X130149000Y-117012000D03*
%TO.P,U7,32,GNDIO*%
%TO.N,/GND*%
X130649000Y-117012000D03*
%TO.P,U7,33,IO1_33*%
%TO.N,/Chip_Enable*%
X131149000Y-117012000D03*
%TO.P,U7,34,IO1_34*%
%TO.N,/Output_Enable*%
X131649000Y-117012000D03*
%TO.P,U7,35,IO1_35*%
%TO.N,unconnected-(U7-Pad35)*%
X132149000Y-117012000D03*
%TO.P,U7,36,IO1_36*%
%TO.N,/{slash}read_bottom*%
X132649000Y-117012000D03*
%TO.P,U7,37,IO1_37*%
%TO.N,unconnected-(U7-Pad37)*%
X133149000Y-117012000D03*
%TO.P,U7,38,IO1_38*%
%TO.N,unconnected-(U7-Pad38)*%
X133649000Y-117012000D03*
%TO.P,U7,39,IO1_39*%
%TO.N,/{slash}COLD_RESET*%
X134149000Y-117012000D03*
%TO.P,U7,40,IO1_40*%
%TO.N,unconnected-(U7-Pad40)*%
X134649000Y-117012000D03*
%TO.P,U7,41,IO1_41*%
%TO.N,unconnected-(U7-Pad41)*%
X135149000Y-117012000D03*
%TO.P,U7,42,IO1_42*%
%TO.N,unconnected-(U7-Pad42)*%
X135649000Y-117012000D03*
%TO.P,U7,43,IO1_43/DEV_OE*%
%TO.N,unconnected-(U7-Pad43)*%
X136149000Y-117012000D03*
%TO.P,U7,44,IO1_44/DEV_CLRn*%
%TO.N,unconnected-(U7-Pad44)*%
X136649000Y-117012000D03*
%TO.P,U7,45,VCCIO1*%
%TO.N,/VCC*%
X137149000Y-117012000D03*
%TO.P,U7,46,GNDIO*%
%TO.N,/GND*%
X137649000Y-117012000D03*
%TO.P,U7,47,IO1_47*%
%TO.N,unconnected-(U7-Pad47)*%
X138149000Y-117012000D03*
%TO.P,U7,48,IO1_48*%
%TO.N,unconnected-(U7-Pad48)*%
X138649000Y-117012000D03*
%TO.P,U7,49,IO1_49*%
%TO.N,unconnected-(U7-Pad49)*%
X139149000Y-117012000D03*
%TO.P,U7,50,IO1_50*%
%TO.N,unconnected-(U7-Pad50)*%
X139649000Y-117012000D03*
D22*
%TO.P,U7,51,IO1_51*%
%TO.N,unconnected-(U7-Pad51)*%
X141387000Y-115274000D03*
%TO.P,U7,52,IO2_52*%
%TO.N,/74HC164_DSA_DSB*%
X141387000Y-114774000D03*
%TO.P,U7,53,IO2_53*%
%TO.N,/74HC164_CP*%
X141387000Y-114274000D03*
%TO.P,U7,54,IO2_54*%
%TO.N,/74HC04*%
X141387000Y-113774000D03*
%TO.P,U7,55,IO2_55*%
%TO.N,/AD0*%
X141387000Y-113274000D03*
%TO.P,U7,56,IO2_56*%
%TO.N,/AD1*%
X141387000Y-112774000D03*
%TO.P,U7,57,IO2_57*%
%TO.N,/AD2*%
X141387000Y-112274000D03*
%TO.P,U7,58,IO2_58*%
%TO.N,/AD3*%
X141387000Y-111774000D03*
%TO.P,U7,59,VCCIO2*%
%TO.N,/VCC*%
X141387000Y-111274000D03*
%TO.P,U7,60,GNDIO*%
%TO.N,/GND*%
X141387000Y-110774000D03*
%TO.P,U7,61,IO2_61*%
%TO.N,/AD4*%
X141387000Y-110274000D03*
%TO.P,U7,62,IO2_62/GCLK2*%
%TO.N,/ALE_L*%
X141387000Y-109774000D03*
%TO.P,U7,63,VCCINT*%
%TO.N,/VCC*%
X141387000Y-109274000D03*
%TO.P,U7,64,IO2_64/GCLK3*%
%TO.N,/{slash}write*%
X141387000Y-108774000D03*
%TO.P,U7,65,GNDINT*%
%TO.N,/GND*%
X141387000Y-108274000D03*
%TO.P,U7,66,IO2_66*%
%TO.N,/AD5*%
X141387000Y-107774000D03*
%TO.P,U7,67,IO2_67*%
%TO.N,/AD6*%
X141387000Y-107274000D03*
%TO.P,U7,68,IO2_68*%
%TO.N,/AD7*%
X141387000Y-106774000D03*
%TO.P,U7,69,IO2_69*%
%TO.N,/AD8*%
X141387000Y-106274000D03*
%TO.P,U7,70,IO2_70*%
%TO.N,/AD9*%
X141387000Y-105774000D03*
%TO.P,U7,71,IO2_71*%
%TO.N,/AD10*%
X141387000Y-105274000D03*
%TO.P,U7,72,IO2_72*%
%TO.N,/AD11*%
X141387000Y-104774000D03*
%TO.P,U7,73,IO2_73*%
%TO.N,/AD12*%
X141387000Y-104274000D03*
%TO.P,U7,74,IO2_74*%
%TO.N,/AD13*%
X141387000Y-103774000D03*
%TO.P,U7,75,IO2_75*%
%TO.N,/AD14*%
X141387000Y-103274000D03*
D23*
%TO.P,U7,76,IO2_76*%
%TO.N,/AD15*%
X139649000Y-101536000D03*
%TO.P,U7,77,IO2_77*%
%TO.N,/{slash}read_top*%
X139149000Y-101536000D03*
%TO.P,U7,78,IO2_78*%
%TO.N,/PPort_6*%
X138649000Y-101536000D03*
%TO.P,U7,79,GNDIO*%
%TO.N,/GND*%
X138149000Y-101536000D03*
%TO.P,U7,80,VCCIO2*%
%TO.N,/VCC*%
X137649000Y-101536000D03*
%TO.P,U7,81,IO2_81*%
%TO.N,/PPort_5*%
X137149000Y-101536000D03*
%TO.P,U7,82,IO2_82*%
%TO.N,/PPort_4*%
X136649000Y-101536000D03*
%TO.P,U7,83,IO2_83*%
%TO.N,/PPort_3*%
X136149000Y-101536000D03*
%TO.P,U7,84,IO2_84*%
%TO.N,/PPort_2*%
X135649000Y-101536000D03*
%TO.P,U7,85,IO2_85*%
%TO.N,/Button*%
X135149000Y-101536000D03*
%TO.P,U7,86,IO2_86*%
%TO.N,unconnected-(U7-Pad86)*%
X134649000Y-101536000D03*
%TO.P,U7,87,IO2_87*%
%TO.N,unconnected-(U7-Pad87)*%
X134149000Y-101536000D03*
%TO.P,U7,88,IO2_88*%
%TO.N,unconnected-(U7-Pad88)*%
X133649000Y-101536000D03*
%TO.P,U7,89,IO2_89*%
%TO.N,unconnected-(U7-Pad89)*%
X133149000Y-101536000D03*
%TO.P,U7,90,IO2_90*%
%TO.N,unconnected-(U7-Pad90)*%
X132649000Y-101536000D03*
%TO.P,U7,91,IO2_91*%
%TO.N,unconnected-(U7-Pad91)*%
X132149000Y-101536000D03*
%TO.P,U7,92,IO2_92*%
%TO.N,unconnected-(U7-Pad92)*%
X131649000Y-101536000D03*
%TO.P,U7,93,GNDIO*%
%TO.N,/GND*%
X131149000Y-101536000D03*
%TO.P,U7,94,VCCIO2*%
%TO.N,/VCC*%
X130649000Y-101536000D03*
%TO.P,U7,95,IO2_95*%
%TO.N,unconnected-(U7-Pad95)*%
X130149000Y-101536000D03*
%TO.P,U7,96,IO2_96*%
%TO.N,unconnected-(U7-Pad96)*%
X129649000Y-101536000D03*
%TO.P,U7,97,IO2_97*%
%TO.N,unconnected-(U7-Pad97)*%
X129149000Y-101536000D03*
%TO.P,U7,98,IO2_98*%
%TO.N,unconnected-(U7-Pad98)*%
X128649000Y-101536000D03*
%TO.P,U7,99,IO2_99*%
%TO.N,unconnected-(U7-Pad99)*%
X128149000Y-101536000D03*
%TO.P,U7,100,IO2_100*%
%TO.N,unconnected-(U7-Pad100)*%
X127649000Y-101536000D03*
%TD*%
D24*
%TO.P,C1,1*%
%TO.N,/VCC*%
X109306400Y-72963100D03*
%TO.P,C1,2*%
%TO.N,/GND*%
X112524400Y-72963100D03*
%TD*%
D12*
%TO.P,R10,1*%
%TO.N,/E*%
X182632500Y-84428000D03*
%TO.P,R10,2*%
%TO.N,/Q6*%
X184418500Y-84429000D03*
%TD*%
D15*
%TO.P,Hole3,1*%
%TO.N,N/C*%
X190826000Y-67918000D03*
%TD*%
D21*
%TO.P,U6,1,OE*%
%TO.N,/GND*%
X189124000Y-121938000D03*
%TO.P,U6,2,O0*%
%TO.N,/PPort_13*%
X189121000Y-120668000D03*
%TO.P,U6,3,D0*%
%TO.N,/AD0*%
X189121000Y-119398000D03*
%TO.P,U6,4,D1*%
%TO.N,/AD1*%
X189121000Y-118168000D03*
%TO.P,U6,5,O1*%
%TO.N,/PPort_12*%
X189122000Y-116859000D03*
%TO.P,U6,6,O2*%
%TO.N,/PPort_10*%
X189122000Y-115586000D03*
%TO.P,U6,7,D2*%
%TO.N,/AD2*%
X189120000Y-114317000D03*
%TO.P,U6,8,D3*%
%TO.N,/AD3*%
X189122000Y-113047000D03*
%TO.P,U6,9,O3*%
%TO.N,/PPort_11*%
X189121000Y-111736000D03*
%TO.P,U6,10,GND*%
%TO.N,/GND*%
X189121000Y-110468000D03*
%TO.P,U6,11,Cp*%
%TO.N,/74HC04-374*%
X179597000Y-110465000D03*
%TO.P,U6,12,O4*%
%TO.N,/PPort_15*%
X179595000Y-111738000D03*
%TO.P,U6,13,D4*%
%TO.N,/AD4*%
X179597000Y-113046000D03*
%TO.P,U6,14,D5*%
%TO.N,/AD5*%
X179595000Y-114318000D03*
%TO.P,U6,15,O5*%
%TO.N,unconnected-(U6-Pad15)*%
X179598000Y-115587000D03*
%TO.P,U6,16,O6*%
%TO.N,unconnected-(U6-Pad16)*%
X179595000Y-116855000D03*
%TO.P,U6,17,D6*%
%TO.N,/AD6*%
X179597000Y-118167000D03*
%TO.P,U6,18,D7*%
%TO.N,/AD7*%
X179599000Y-119397000D03*
%TO.P,U6,19,O7*%
%TO.N,unconnected-(U6-Pad19)*%
X179596000Y-120666000D03*
%TO.P,U6,20,VCC*%
%TO.N,/VCC*%
X179596000Y-121935000D03*
%TD*%
D25*
%TO.P,J4,1,GND*%
%TO.N,/GND*%
X119411500Y-130432000D03*
%TO.P,J4,2,GND*%
X121911500Y-130432000D03*
%TO.P,J4,3,AD15*%
%TO.N,/AD15*%
X124411500Y-130432000D03*
%TO.P,J4,4,AD14*%
%TO.N,/AD14*%
X126911500Y-130432000D03*
%TO.P,J4,5,AD13*%
%TO.N,/AD13*%
X129411500Y-130432000D03*
%TO.P,J4,6,GND*%
%TO.N,/GND*%
X131911500Y-130432000D03*
%TO.P,J4,7,AD12*%
%TO.N,/AD12*%
X134411500Y-130432000D03*
%TO.P,J4,8,/WR*%
%TO.N,/{slash}write*%
X136911500Y-130432000D03*
%TO.P,J4,9,3.3V*%
%TO.N,/VCC*%
X139411500Y-130432000D03*
%TO.P,J4,10,/RD*%
%TO.N,/{slash}read_bottom*%
X141911500Y-130432000D03*
%TO.P,J4,11,AD11*%
%TO.N,/AD11*%
X144411500Y-130432000D03*
%TO.P,J4,12,AD10*%
%TO.N,/AD10*%
X146911500Y-130432000D03*
%TO.P,J4,13,12V*%
%TO.N,/12V_Front*%
X149411500Y-130432000D03*
%TO.P,J4,14,12V*%
%TO.N,/UNUSED_Front*%
X151911500Y-130432000D03*
%TO.P,J4,15,AD9*%
%TO.N,/AD9*%
X154411500Y-130432000D03*
%TO.P,J4,16,AD8*%
%TO.N,/AD8*%
X156911500Y-130432000D03*
%TO.P,J4,17,3.3V*%
%TO.N,/VCC*%
X159411500Y-130432000D03*
%TO.P,J4,18,CIC_15*%
%TO.N,/CIC_DATA1*%
X161911500Y-130432000D03*
%TO.P,J4,19,CIC_11*%
%TO.N,/1.6MHZ*%
X164411500Y-130432000D03*
%TO.P,J4,20,/ColdReset*%
%TO.N,/{slash}COLD_RESET*%
X166911500Y-130432000D03*
%TO.P,J4,21,EEPROM_DAT*%
%TO.N,/S_DAT*%
X169411500Y-130432000D03*
%TO.P,J4,22,GND*%
%TO.N,/GND*%
X171911500Y-130432000D03*
%TO.P,J4,23,GND*%
X174411500Y-130432000D03*
%TO.P,J4,24,LAUDIO*%
%TO.N,/LAUDIO*%
X176911500Y-130432000D03*
%TO.P,J4,25,GND*%
%TO.N,/GND*%
X179411500Y-130432000D03*
%TD*%
D13*
%TO.P,R2,1*%
%TO.N,/74HC164_CP*%
X187733000Y-72995900D03*
%TO.P,R2,2*%
%TO.N,/VCC*%
X190960000Y-73002900D03*
%TD*%
D10*
%TO.P,C5,1*%
%TO.N,/VCC*%
X129625000Y-119500000D03*
%TO.P,C5,2*%
%TO.N,/GND*%
X131175000Y-119500000D03*
%TD*%
D15*
%TO.P,Hole4,1*%
%TO.N,N/C*%
X194001000Y-121736000D03*
%TD*%
D19*
%TO.P,U1,1,A18*%
%TO.N,/A18*%
X109210500Y-90731000D03*
%TO.P,U1,2,A16*%
%TO.N,/A16*%
X110479500Y-90730000D03*
%TO.P,U1,3,A15*%
%TO.N,/A15*%
X111789500Y-90729000D03*
%TO.P,U1,4,A12*%
%TO.N,/A12*%
X113059500Y-90729000D03*
D20*
%TO.P,U1,5,A7*%
%TO.N,/A7*%
X114922500Y-88824000D03*
%TO.P,U1,6,A6*%
%TO.N,/A6*%
X114925500Y-87594000D03*
%TO.P,U1,7,A5*%
%TO.N,/A5*%
X114923500Y-86287000D03*
%TO.P,U1,8,A4*%
%TO.N,/A4*%
X114924500Y-85016000D03*
%TO.P,U1,9,A3*%
%TO.N,/A3*%
X114926500Y-83784000D03*
%TO.P,U1,10,A2*%
%TO.N,/A2*%
X114923500Y-82473000D03*
%TO.P,U1,11,A1*%
%TO.N,/A1*%
X114924500Y-81205000D03*
%TO.P,U1,12,A0*%
%TO.N,/A0*%
X114924500Y-79934000D03*
%TO.P,U1,13,Ad0*%
%TO.N,/AD0*%
X114924500Y-78666000D03*
D19*
%TO.P,U1,14,Ad1*%
%TO.N,/AD1*%
X113099500Y-76760000D03*
%TO.P,U1,15,Ad2*%
%TO.N,/AD2*%
X111829500Y-76761000D03*
%TO.P,U1,16,GND*%
%TO.N,/GND*%
X110519500Y-76759000D03*
%TO.P,U1,17,Ad3*%
%TO.N,/AD3*%
X109248500Y-76757000D03*
%TO.P,U1,18,Ad4*%
%TO.N,/AD4*%
X107937500Y-76760000D03*
%TO.P,U1,19,Ad5*%
%TO.N,/AD5*%
X106671500Y-76757000D03*
%TO.P,U1,20,Ad6*%
%TO.N,/AD6*%
X105440500Y-76759000D03*
D20*
%TO.P,U1,21,Ad7*%
%TO.N,/AD7*%
X103494500Y-78665000D03*
%TO.P,U1,22,CE#*%
%TO.N,/Chip_Enable*%
X103494500Y-79937000D03*
%TO.P,U1,23,A10*%
%TO.N,/A10*%
X103493500Y-81205000D03*
%TO.P,U1,24,OE#*%
%TO.N,/Output_Enable*%
X103494500Y-82476000D03*
%TO.P,U1,25,A11*%
%TO.N,/A11*%
X103495500Y-83783000D03*
%TO.P,U1,26,A9*%
%TO.N,/A9*%
X103494500Y-85015000D03*
%TO.P,U1,27,A8*%
%TO.N,/A8*%
X103497500Y-86284000D03*
%TO.P,U1,28,A13*%
%TO.N,/A13*%
X103494500Y-87596000D03*
%TO.P,U1,29,A14*%
%TO.N,/A14*%
X103493500Y-88827000D03*
D19*
%TO.P,U1,30,A17*%
%TO.N,/A17*%
X105398500Y-90731000D03*
%TO.P,U1,31,WE#*%
%TO.N,/{slash}write*%
X106629500Y-90728000D03*
%TO.P,U1,32,VCC*%
%TO.N,/VCC*%
X107900500Y-90729000D03*
%TD*%
D12*
%TO.P,R11,1*%
%TO.N,/D*%
X182632500Y-86299000D03*
%TO.P,R11,2*%
%TO.N,/Q7*%
X184418500Y-86300000D03*
%TD*%
D13*
%TO.P,R3,1*%
%TO.N,/PPort_6*%
X181888000Y-90139900D03*
%TO.P,R3,2*%
%TO.N,/GND*%
X185115000Y-90146900D03*
%TD*%
D10*
%TO.P,C3,1*%
%TO.N,/GND*%
X121898000Y-107530000D03*
%TO.P,C3,2*%
%TO.N,/VCC*%
X123448000Y-107530000D03*
%TD*%
D26*
%TO.P,J6,1,Pin_1*%
%TO.N,/TCK*%
X156510000Y-79820500D03*
D27*
%TO.P,J6,2,Pin_2*%
%TO.N,/GND*%
X156510000Y-82360500D03*
D26*
%TO.P,J6,3,Pin_3*%
%TO.N,/TDO*%
X153970000Y-79820500D03*
%TO.P,J6,4,Pin_4*%
%TO.N,/VCC*%
X153970000Y-82360500D03*
%TO.P,J6,5,Pin_5*%
%TO.N,/TMS*%
X151430000Y-79820500D03*
%TO.P,J6,6,Pin_6*%
%TO.N,unconnected-(J6-Pad6)*%
X151430000Y-82360500D03*
%TO.P,J6,7,Pin_7*%
%TO.N,unconnected-(J6-Pad7)*%
X148890000Y-79820500D03*
%TO.P,J6,8,Pin_8*%
%TO.N,unconnected-(J6-Pad8)*%
X148890000Y-82360500D03*
%TO.P,J6,9,Pin_9*%
%TO.N,/TDI*%
X146350000Y-79820500D03*
%TO.P,J6,10,Pin_10*%
%TO.N,/GND*%
X146350000Y-82360500D03*
%TD*%
D12*
%TO.P,R6,1*%
%TO.N,/B*%
X182632500Y-76767000D03*
%TO.P,R6,2*%
%TO.N,/Q2*%
X184418500Y-76768000D03*
%TD*%
%TO.P,R9,1*%
%TO.N,/G*%
X182632500Y-82485000D03*
%TO.P,R9,2*%
%TO.N,/Q5*%
X184418500Y-82486000D03*
%TD*%
D24*
%TO.P,C2,1*%
%TO.N,/GND*%
X107284400Y-118120100D03*
%TO.P,C2,2*%
%TO.N,/VCC*%
X110502400Y-118120100D03*
%TD*%
D16*
%TO.P,R12,1*%
%TO.N,/VCC*%
X131175000Y-78795000D03*
%TO.P,R12,2*%
%TO.N,/TDI*%
X132825000Y-78795000D03*
%TD*%
D21*
%TO.P,U4,1,DSA*%
%TO.N,/74HC164_DSA_DSB*%
X194449500Y-83832000D03*
%TO.P,U4,2,DSB*%
X194448500Y-82565000D03*
%TO.P,U4,3,Q0*%
%TO.N,/Q0*%
X194454500Y-81251000D03*
%TO.P,U4,4,Q1*%
%TO.N,/Q1*%
X194447500Y-80025000D03*
%TO.P,U4,5,Q2*%
%TO.N,/Q2*%
X194447500Y-78714000D03*
%TO.P,U4,6,Q3*%
%TO.N,/Q3*%
X194448500Y-77442000D03*
%TO.P,U4,7,GND*%
%TO.N,/GND*%
X194446500Y-76132000D03*
%TO.P,U4,8,CP*%
%TO.N,/74HC164_CP*%
X188733500Y-76130000D03*
%TO.P,U4,9,~{MR}*%
%TO.N,/VCC*%
X188733500Y-77441000D03*
%TO.P,U4,10,Q4*%
%TO.N,/Q4*%
X188735500Y-78711000D03*
%TO.P,U4,11,Q5*%
%TO.N,/Q5*%
X188731500Y-80023000D03*
%TO.P,U4,12,Q6*%
%TO.N,/Q6*%
X188732500Y-81249000D03*
%TO.P,U4,13,Q7*%
%TO.N,/Q7*%
X188733500Y-82557000D03*
%TO.P,U4,14,VCC*%
%TO.N,/VCC*%
X188733500Y-83829000D03*
%TD*%
D10*
%TO.P,C10,1*%
%TO.N,/VCC*%
X130125000Y-99048000D03*
%TO.P,C10,2*%
%TO.N,/GND*%
X131675000Y-99048000D03*
%TD*%
D28*
%TO.P,X1,1,Tri-State*%
%TO.N,unconnected-(X1-Pad1)*%
X121083000Y-101685000D03*
%TO.P,X1,2,GND*%
%TO.N,/GND*%
X122933000Y-101685000D03*
%TO.P,X1,3,OUT*%
%TO.N,/CLK*%
X122933000Y-100235000D03*
%TO.P,X1,4,VDD*%
%TO.N,/VCC*%
X121083000Y-100235000D03*
%TD*%
D17*
%TO.P,J1,1,1*%
%TO.N,unconnected-(J1-Pad1)*%
X166066000Y-91391700D03*
D18*
%TO.P,J1,2,2*%
%TO.N,/PPort_2*%
X163296000Y-91391700D03*
%TO.P,J1,3,3*%
%TO.N,/PPort_3*%
X160526000Y-91391700D03*
%TO.P,J1,4,4*%
%TO.N,/PPort_4*%
X157756000Y-91391700D03*
%TO.P,J1,5,5*%
%TO.N,/PPort_5*%
X154986000Y-91391700D03*
%TO.P,J1,6,6*%
%TO.N,/PPort_6*%
X152216000Y-91391700D03*
%TO.P,J1,7,7*%
%TO.N,unconnected-(J1-Pad7)*%
X149446000Y-91391700D03*
%TO.P,J1,8,8*%
%TO.N,unconnected-(J1-Pad8)*%
X146676000Y-91391700D03*
%TO.P,J1,9,9*%
%TO.N,unconnected-(J1-Pad9)*%
X143906000Y-91391700D03*
%TO.P,J1,10,10*%
%TO.N,/PPort_10*%
X141136000Y-91391700D03*
%TO.P,J1,11,11*%
%TO.N,/PPort_11*%
X138366000Y-91391700D03*
%TO.P,J1,12,12*%
%TO.N,/PPort_12*%
X135596000Y-91391700D03*
%TO.P,J1,13,13*%
%TO.N,/PPort_13*%
X132826000Y-91391700D03*
%TO.P,J1,14,P14*%
%TO.N,unconnected-(J1-Pad14)*%
X164681000Y-94231700D03*
%TO.P,J1,15,P15*%
%TO.N,/PPort_15*%
X161911000Y-94231700D03*
%TO.P,J1,16,P16*%
%TO.N,unconnected-(J1-Pad16)*%
X159141000Y-94231700D03*
%TO.P,J1,17,P17*%
%TO.N,unconnected-(J1-Pad17)*%
X156371000Y-94231700D03*
%TO.P,J1,18,P18*%
%TO.N,/GND*%
X153601000Y-94231700D03*
%TO.P,J1,19,P19*%
X150831000Y-94231700D03*
%TO.P,J1,20,P20*%
X148061000Y-94231700D03*
%TO.P,J1,21,P21*%
X145291000Y-94231700D03*
%TO.P,J1,22,P22*%
X142521000Y-94231700D03*
%TO.P,J1,23,P23*%
X139751000Y-94231700D03*
%TO.P,J1,24,P24*%
X136981000Y-94231700D03*
%TO.P,J1,25,P25*%
X134211000Y-94231700D03*
%TD*%
D29*
%TO.N,/A18*%
X109210500Y-92354900D03*
X109653900Y-109277700D03*
%TO.N,/A16*%
X110959000Y-92829500D03*
X111158600Y-110139300D03*
%TO.N,/A15*%
X111476900Y-92357200D03*
X112263600Y-111228700D03*
%TO.N,/A12*%
X113091000Y-92318700D03*
X113267000Y-111914000D03*
%TO.N,/A7*%
X116509100Y-111928200D03*
X117296300Y-90359900D03*
%TO.N,/A6*%
X119521600Y-103250000D03*
X117296300Y-88204400D03*
X117531600Y-110965700D03*
%TO.N,/A5*%
X113086900Y-104795800D03*
X113302400Y-86287000D03*
%TO.N,/A4*%
X116518900Y-85016000D03*
X116526600Y-108544000D03*
%TO.N,/A3*%
X116636400Y-106272300D03*
X116521100Y-83784000D03*
%TO.N,/A2*%
X113399100Y-83107300D03*
X112886000Y-106001000D03*
%TO.N,/A1*%
X116711600Y-104414000D03*
X116584500Y-81879200D03*
%TO.N,/A0*%
X118389900Y-103462000D03*
X116668600Y-80584200D03*
%TO.N,/AD0*%
X119294100Y-77075000D03*
X124609000Y-123164200D03*
%TO.N,/AD1*%
X142496200Y-122169800D03*
X123003100Y-76019600D03*
X125513500Y-123833700D03*
X142598200Y-113085200D03*
%TO.N,/AD2*%
X124550500Y-76067600D03*
X136370300Y-113979800D03*
D30*
%TO.N,/GND*%
X110730900Y-98490500D03*
X134184100Y-99813200D03*
X148576500Y-104932100D03*
X134462600Y-105062400D03*
X132242400Y-119332600D03*
X179744000Y-71451000D03*
X131355600Y-124889600D03*
X124341500Y-101787500D03*
X173493200Y-125295900D03*
X116555300Y-68138000D03*
X120727000Y-125481900D03*
X178963700Y-125315800D03*
X129034700Y-82885200D03*
X110975200Y-81995500D03*
X129753500Y-72326400D03*
X173405100Y-70993100D03*
D29*
%TO.N,/AD3*%
X114069700Y-76616700D03*
X109159900Y-78371600D03*
X130050500Y-77340800D03*
X136600900Y-111774000D03*
%TO.N,/AD4*%
X121060300Y-86088200D03*
X108481100Y-78753100D03*
X142598000Y-110372200D03*
X132395400Y-88529300D03*
X145431300Y-112878800D03*
%TO.N,/AD5*%
X120790700Y-94421400D03*
X136324500Y-95370500D03*
X140199400Y-107774000D03*
X106671500Y-75130200D03*
X132290900Y-92954400D03*
X147481800Y-114318000D03*
%TO.N,/AD6*%
X113302900Y-78927700D03*
X120475600Y-83842700D03*
X156183500Y-118024900D03*
X147306800Y-106243000D03*
X143554300Y-84923700D03*
%TO.N,/AD7*%
X108304400Y-81488700D03*
X156911500Y-119014700D03*
X147348900Y-105057100D03*
X118082900Y-83483200D03*
X157552000Y-85499500D03*
%TO.N,/A10*%
X108044900Y-84024700D03*
X120609800Y-111871800D03*
X108829700Y-104966000D03*
%TO.N,/Output_Enable*%
X132100600Y-120182700D03*
X101886100Y-82476000D03*
X109198400Y-118724200D03*
X134814700Y-115805000D03*
X101854500Y-105893400D03*
%TO.N,/A11*%
X107462500Y-106986300D03*
X105298100Y-83783000D03*
X113879700Y-113847800D03*
%TO.N,/A9*%
X105086300Y-85015000D03*
X118626400Y-113324500D03*
X106772800Y-108298700D03*
%TO.N,/A8*%
X106188100Y-109668900D03*
X107295600Y-95194000D03*
X127105500Y-110774000D03*
X126457500Y-91610200D03*
%TO.N,/A13*%
X113050200Y-116150900D03*
X105097300Y-111124000D03*
X103716300Y-90668400D03*
%TO.N,/A14*%
X105102100Y-112355000D03*
X103266200Y-89866200D03*
X113911300Y-117012000D03*
%TO.N,/A17*%
X105504000Y-109243200D03*
X115840400Y-116074600D03*
X104614700Y-97361300D03*
%TO.N,/{slash}write*%
X104652300Y-92690000D03*
X120706900Y-122583300D03*
X137926900Y-125526600D03*
X134949800Y-122583300D03*
X106929300Y-112285800D03*
X137595600Y-109422000D03*
D30*
%TO.N,/VCC*%
X119655300Y-100117500D03*
X159418000Y-71460000D03*
X120625500Y-109495800D03*
X127301700Y-99048000D03*
X156848600Y-113316500D03*
X140214800Y-72408900D03*
X118334900Y-81246800D03*
X108041300Y-74228200D03*
X159491400Y-83673400D03*
X107829800Y-85233400D03*
X158573700Y-125270300D03*
X137014100Y-121320000D03*
X158627800Y-119200100D03*
X139314200Y-125260700D03*
X128229100Y-121333000D03*
X127077600Y-119741600D03*
D29*
%TO.N,/AD8*%
X114258600Y-101378500D03*
X155985000Y-71087000D03*
X147292900Y-87573300D03*
X149326300Y-87573300D03*
X114678000Y-95310100D03*
X144999300Y-105412200D03*
X152937600Y-124965000D03*
%TO.N,/AD9*%
X154903400Y-71974000D03*
X149354100Y-102510800D03*
X153180500Y-125897200D03*
X145654800Y-105833100D03*
%TO.N,/AD10*%
X146965600Y-125009500D03*
X132709300Y-95349500D03*
X146952300Y-71326400D03*
X139510200Y-105198000D03*
%TO.N,/AD11*%
X138397400Y-105726600D03*
X145611900Y-125606900D03*
X131827700Y-93529600D03*
X144529000Y-71320000D03*
%TO.N,/AD12*%
X131957800Y-75871200D03*
X127326300Y-95173500D03*
X130215000Y-124142100D03*
X128352000Y-103208900D03*
%TO.N,/AD13*%
X123780200Y-97521200D03*
X128814000Y-71303100D03*
X141389300Y-102378600D03*
X136125900Y-97521200D03*
X128924600Y-125283100D03*
X124041600Y-93215500D03*
%TO.N,/AD14*%
X125837200Y-71299500D03*
X142569400Y-102864300D03*
X127493700Y-125431500D03*
X123087300Y-92087200D03*
X139539200Y-87063700D03*
%TO.N,/AD15*%
X121231300Y-97566700D03*
X123389500Y-125557100D03*
X141512500Y-98901000D03*
X123289500Y-71332100D03*
X137316200Y-95934100D03*
X109999100Y-105268100D03*
%TO.N,/{slash}read_bottom*%
X135717900Y-119380300D03*
X140811400Y-125606900D03*
%TO.N,/{slash}COLD_RESET*%
X135893500Y-118263100D03*
X166429800Y-124556900D03*
X166286000Y-71240000D03*
X141326800Y-123842700D03*
%TO.N,/ALE_L*%
X136984500Y-110244600D03*
%TO.N,/ALE_H*%
X134682500Y-109048000D03*
%TO.N,/Button*%
X135362900Y-100329600D03*
X177285100Y-109607500D03*
X146313400Y-110577100D03*
X184051200Y-91719800D03*
%TO.N,/PPort_3*%
X140664600Y-100811300D03*
X138554700Y-102778000D03*
%TO.N,/PPort_4*%
X138482000Y-97536800D03*
X137059500Y-102736300D03*
%TO.N,/PPort_5*%
X138989800Y-98019400D03*
X137066900Y-100293200D03*
X152242500Y-97225800D03*
%TO.N,/PPort_6*%
X150005800Y-98089400D03*
%TO.N,/74HC164_DSA_DSB*%
X184020400Y-88597600D03*
X175536400Y-122808300D03*
%TO.N,/74HC164_CP*%
X187013000Y-118972700D03*
X192140200Y-74172700D03*
%TO.N,/74HC04*%
X183879400Y-109836400D03*
X176111600Y-123450000D03*
%TO.N,/{slash}read_top*%
X139612200Y-102829400D03*
X146567900Y-72448400D03*
%TO.N,/DP*%
X176589900Y-72806600D03*
%TO.N,/PPort_10*%
X187173200Y-115165500D03*
X179037900Y-92690000D03*
%TO.N,/PPort_11*%
X178206900Y-90651500D03*
X185717700Y-111736000D03*
%TO.N,/PPort_12*%
X179085500Y-93551000D03*
X187029900Y-117028700D03*
%TO.N,/PPort_13*%
X187072700Y-120685300D03*
X176641200Y-88695700D03*
%TO.N,/12V_Front*%
X148368600Y-71090800D03*
X148442800Y-125505200D03*
%TO.N,/UNUSED_Front*%
X157189300Y-72304800D03*
X159577300Y-124465700D03*
%TO.N,/CIC_DATA1*%
X161222000Y-71240000D03*
X160967000Y-125441600D03*
%TO.N,/1.6MHZ*%
X163331000Y-71082000D03*
X164396100Y-124942900D03*
%TO.N,/S_DAT*%
X169611000Y-71291500D03*
X168312300Y-125606900D03*
%TO.N,/LAUDIO*%
X176018648Y-70616400D03*
X175711998Y-126181400D03*
%TO.N,/74HC04-374*%
X176947700Y-107603000D03*
X181224400Y-107155700D03*
%TO.N,/Q1*%
X192993800Y-80025000D03*
X186827900Y-76041600D03*
%TO.N,/Q2*%
X192531400Y-78621800D03*
X186475300Y-77589300D03*
%TO.N,/Q3*%
X185540100Y-78676000D03*
X192529400Y-77807900D03*
%TO.N,/TDO*%
X133837100Y-77325700D03*
X129170100Y-115274000D03*
X133585800Y-81147400D03*
%TO.N,/TMS*%
X134668700Y-81938300D03*
X131129700Y-109999000D03*
%TO.N,/TDI*%
X129754800Y-110591000D03*
X134137900Y-79820500D03*
%TO.N,/TCK*%
X129754800Y-112350100D03*
X134463400Y-82874200D03*
%TO.N,/CLK*%
X126185200Y-101649700D03*
X127108400Y-108908800D03*
%TD*%
D31*
%TO.N,/A18*%
X129649000Y-118074600D02*
X128743600Y-118980000D01*
X129649000Y-117012000D02*
X129649000Y-118074600D01*
X109210500Y-114887600D02*
X109210500Y-115719100D01*
X109210500Y-109721100D02*
X109653900Y-109277700D01*
X113737500Y-118980000D02*
X110476600Y-115719100D01*
X110476600Y-115719100D02*
X109210500Y-115719100D01*
X109210500Y-114259000D02*
X109210500Y-109721100D01*
X128743600Y-118980000D02*
X113737500Y-118980000D01*
X109210500Y-92354900D02*
X109210500Y-90731000D01*
X109210500Y-114887600D02*
X109210500Y-114259000D01*
%TO.N,/A16*%
X110479500Y-114258000D02*
X110479500Y-110818400D01*
X113924000Y-118529900D02*
X110479500Y-115085400D01*
X110479500Y-115085400D02*
X110479500Y-114258000D01*
X128649000Y-118074600D02*
X128193700Y-118529900D01*
X128649000Y-117012000D02*
X128649000Y-118074600D01*
X110479500Y-90730000D02*
X110479500Y-92350000D01*
X110479500Y-92350000D02*
X110959000Y-92829500D01*
X110479500Y-110818400D02*
X111158600Y-110139300D01*
X128193700Y-118529900D02*
X113924000Y-118529900D01*
%TO.N,/A15*%
X111789500Y-92189100D02*
X111621400Y-92357200D01*
X111789500Y-114257000D02*
X111789500Y-115717100D01*
X128149000Y-117012000D02*
X128149000Y-117861200D01*
X128149000Y-117861200D02*
X127935500Y-118074700D01*
X111789500Y-112796900D02*
X111789600Y-112796900D01*
X111789500Y-90729000D02*
X111789500Y-92189100D01*
X114147100Y-118074700D02*
X111789500Y-115717100D01*
X111789600Y-112796900D02*
X111789600Y-111702700D01*
X111621400Y-92357200D02*
X111476900Y-92357200D01*
X111789600Y-111702700D02*
X112263600Y-111228700D01*
X111789500Y-114257000D02*
X111789500Y-112796900D01*
X127935500Y-118074700D02*
X114147100Y-118074700D01*
%TO.N,/A12*%
X113673800Y-114468800D02*
X120841000Y-114468800D01*
X113059500Y-114257000D02*
X113254500Y-114062000D01*
X113254500Y-114062000D02*
X113267000Y-114062000D01*
X113267000Y-114062000D02*
X113673800Y-114468800D01*
X122535800Y-112774000D02*
X125911000Y-112774000D01*
X113267000Y-114062000D02*
X113267000Y-111914000D01*
X113059500Y-92287200D02*
X113091000Y-92318700D01*
X120841000Y-114468800D02*
X122535800Y-112774000D01*
X113059500Y-90729000D02*
X113059500Y-92287200D01*
%TO.N,/A7*%
X114922500Y-88824000D02*
X116382600Y-88824000D01*
X116382600Y-112054700D02*
X116509100Y-111928200D01*
X116509100Y-111928200D02*
X117382400Y-111928200D01*
X117382400Y-111928200D02*
X118525500Y-110785100D01*
X125911000Y-110274000D02*
X124848400Y-110274000D01*
X124337300Y-110785100D02*
X124848400Y-110274000D01*
X116382600Y-112352000D02*
X116382600Y-112054700D01*
X116382600Y-88824000D02*
X116382600Y-89446200D01*
X114922500Y-112352000D02*
X116382600Y-112352000D01*
X116382600Y-89446200D02*
X117296300Y-90359900D01*
X118525500Y-110785100D02*
X124337300Y-110785100D01*
%TO.N,/A6*%
X116685900Y-87594000D02*
X117296300Y-88204400D01*
X126973600Y-106774000D02*
X126973600Y-102981700D01*
X126790800Y-102798900D02*
X125038900Y-102798900D01*
X116541900Y-110965700D02*
X116385600Y-111122000D01*
X125038900Y-102798900D02*
X124587800Y-103250000D01*
X114925500Y-111122000D02*
X116385600Y-111122000D01*
X124587800Y-103250000D02*
X119521600Y-103250000D01*
X126973600Y-102981700D02*
X126790800Y-102798900D01*
X125911000Y-106774000D02*
X126973600Y-106774000D01*
X117531600Y-110965700D02*
X116541900Y-110965700D01*
X114925500Y-87594000D02*
X116685900Y-87594000D01*
%TO.N,/A5*%
X125911000Y-106274000D02*
X124848400Y-106274000D01*
X122641200Y-106028900D02*
X121154800Y-106028900D01*
X114923500Y-86287000D02*
X113463400Y-86287000D01*
X114923500Y-109815000D02*
X113463400Y-109815000D01*
X122886300Y-106274000D02*
X122641200Y-106028900D01*
X124848400Y-106274000D02*
X122886300Y-106274000D01*
X117368700Y-109815000D02*
X114923500Y-109815000D01*
X113463400Y-86287000D02*
X113302400Y-86287000D01*
X112309100Y-105573600D02*
X113086900Y-104795800D01*
X112309100Y-108660700D02*
X112309100Y-105573600D01*
X113463400Y-109815000D02*
X112309100Y-108660700D01*
X121154800Y-106028900D02*
X117368700Y-109815000D01*
%TO.N,/A4*%
X114924500Y-108544000D02*
X116384600Y-108544000D01*
X114924500Y-85016000D02*
X116384600Y-85016000D01*
X118003100Y-108544000D02*
X116526600Y-108544000D01*
X116384600Y-108544000D02*
X116526600Y-108544000D01*
X122827700Y-105578800D02*
X120968300Y-105578800D01*
X116384600Y-85016000D02*
X116518900Y-85016000D01*
X125911000Y-105774000D02*
X123022900Y-105774000D01*
X120968300Y-105578800D02*
X118003100Y-108544000D01*
X123022900Y-105774000D02*
X122827700Y-105578800D01*
%TO.N,/A3*%
X123014200Y-105128700D02*
X120781800Y-105128700D01*
X116386600Y-83784000D02*
X116521100Y-83784000D01*
X119638200Y-106272300D02*
X116636400Y-106272300D01*
X125911000Y-105274000D02*
X123159500Y-105274000D01*
X120781800Y-105128700D02*
X119638200Y-106272300D01*
X123159500Y-105274000D02*
X123014200Y-105128700D01*
X114926500Y-107312000D02*
X116386600Y-107312000D01*
X114926500Y-83784000D02*
X116386600Y-83784000D01*
X116386600Y-107312000D02*
X116386600Y-106522100D01*
X116386600Y-106522100D02*
X116636400Y-106272300D01*
%TO.N,/A2*%
X119576700Y-105697200D02*
X115227300Y-105697200D01*
X115227300Y-105697200D02*
X114923500Y-106001000D01*
X120595300Y-104678600D02*
X119576700Y-105697200D01*
X113463400Y-83043000D02*
X113399100Y-83107300D01*
X114923500Y-106001000D02*
X113463400Y-106001000D01*
X113463400Y-82473000D02*
X113463400Y-83043000D01*
X125911000Y-104774000D02*
X123296100Y-104774000D01*
X113463400Y-106001000D02*
X112886000Y-106001000D01*
X123296100Y-104774000D02*
X123200700Y-104678600D01*
X114923500Y-82473000D02*
X113463400Y-82473000D01*
X123200700Y-104678600D02*
X120595300Y-104678600D01*
%TO.N,/A1*%
X116711600Y-104414000D02*
X116392600Y-104733000D01*
X114924500Y-104733000D02*
X116384600Y-104733000D01*
X123387200Y-104228500D02*
X119993100Y-104228500D01*
X119807600Y-104414000D02*
X116711600Y-104414000D01*
X119993100Y-104228500D02*
X119807600Y-104414000D01*
X116384600Y-81205000D02*
X116584500Y-81404900D01*
X125911000Y-104274000D02*
X123432700Y-104274000D01*
X123432700Y-104274000D02*
X123387200Y-104228500D01*
X114924500Y-81205000D02*
X116384600Y-81205000D01*
X116584500Y-81404900D02*
X116584500Y-81879200D01*
X116392600Y-104733000D02*
X116384600Y-104733000D01*
%TO.N,/A0*%
X116384600Y-103462000D02*
X118389900Y-103462000D01*
X119811000Y-103774000D02*
X125911000Y-103774000D01*
X114924500Y-79934000D02*
X116384600Y-79934000D01*
X119759900Y-103825100D02*
X119811000Y-103774000D01*
X118753000Y-103825100D02*
X119759900Y-103825100D01*
X118389900Y-103462000D02*
X118753000Y-103825100D01*
X114924500Y-103462000D02*
X116384600Y-103462000D01*
X116668600Y-80218000D02*
X116668600Y-80584200D01*
X116384600Y-79934000D02*
X116668600Y-80218000D01*
%TO.N,/AD0*%
X140324400Y-116195200D02*
X140324400Y-120204100D01*
X175381600Y-124482800D02*
X182461500Y-124482800D01*
X134711600Y-123158400D02*
X137370100Y-123158400D01*
X117703100Y-78666000D02*
X119294100Y-77075000D01*
X148675400Y-123392500D02*
X174291300Y-123392500D01*
X140324400Y-113274000D02*
X140187800Y-113274000D01*
X140324400Y-120204100D02*
X145487000Y-120204100D01*
X139874300Y-115745100D02*
X140324400Y-116195200D01*
X174291300Y-123392500D02*
X175381600Y-124482800D01*
X114924500Y-78666000D02*
X117703100Y-78666000D01*
X140187800Y-113274000D02*
X139874300Y-113587500D01*
X139874300Y-113587500D02*
X139874300Y-115745100D01*
X141387000Y-113274000D02*
X140324400Y-113274000D01*
X182461500Y-124482800D02*
X187546300Y-119398000D01*
X145487000Y-120204100D02*
X148675400Y-123392500D01*
X187546300Y-119398000D02*
X189121000Y-119398000D01*
X137370100Y-123158400D02*
X140324400Y-120204100D01*
X124693900Y-123079300D02*
X134632500Y-123079300D01*
X134632500Y-123079300D02*
X134711600Y-123158400D01*
X124609000Y-123164200D02*
X124693900Y-123079300D01*
%TO.N,/AD1*%
X141387000Y-112774000D02*
X142449600Y-112774000D01*
X176561700Y-122450000D02*
X176561700Y-122370100D01*
X125803600Y-123543600D02*
X134460200Y-123543600D01*
X175535100Y-121343500D02*
X150716700Y-121343500D01*
X176561700Y-122370100D02*
X175535100Y-121343500D01*
X142449600Y-112936600D02*
X142598200Y-113085200D01*
X142449600Y-112774000D02*
X142449600Y-112936600D01*
X150716700Y-121343500D02*
X142598200Y-113225000D01*
X113099500Y-76760000D02*
X113839900Y-76019600D01*
X142598200Y-113225000D02*
X142598200Y-113085200D01*
X177694300Y-123582600D02*
X176561700Y-122450000D01*
X113839900Y-76019600D02*
X123003100Y-76019600D01*
X139508400Y-122169800D02*
X142496200Y-122169800D01*
X134460200Y-123543600D02*
X134525100Y-123608500D01*
X134525100Y-123608500D02*
X138069700Y-123608500D01*
X186873500Y-118168000D02*
X181458900Y-123582600D01*
X189121000Y-118168000D02*
X186873500Y-118168000D01*
X181458900Y-123582600D02*
X177694300Y-123582600D01*
X138069700Y-123608500D02*
X139508400Y-122169800D01*
X125513500Y-123833700D02*
X125803600Y-123543600D01*
%TO.N,/AD2*%
X185887400Y-118209500D02*
X180964400Y-123132500D01*
X142605800Y-112274000D02*
X141387000Y-112274000D01*
X111829500Y-75300900D02*
X111830600Y-75299800D01*
X175653700Y-120825500D02*
X150937800Y-120825500D01*
X150937800Y-120825500D02*
X143706000Y-113593700D01*
X177011800Y-122263500D02*
X177011800Y-122183600D01*
X123782700Y-75299800D02*
X124550500Y-76067600D01*
X177011800Y-122183600D02*
X175653700Y-120825500D01*
X189120000Y-114317000D02*
X187163600Y-114317000D01*
X141387000Y-112274000D02*
X138076100Y-112274000D01*
X111830600Y-75299800D02*
X123782700Y-75299800D01*
X143706000Y-113374200D02*
X142605800Y-112274000D01*
X185887400Y-115593200D02*
X185887400Y-118209500D01*
X138076100Y-112274000D02*
X136370300Y-113979800D01*
X187163600Y-114317000D02*
X185887400Y-115593200D01*
X177880800Y-123132500D02*
X177011800Y-122263500D01*
X111829500Y-76761000D02*
X111829500Y-75300900D01*
X180964400Y-123132500D02*
X177880800Y-123132500D01*
X143706000Y-113593700D02*
X143706000Y-113374200D01*
%TO.N,/GND*%
X131149000Y-101536000D02*
X131149000Y-100499000D01*
D32*
X110519500Y-76759000D02*
X110519500Y-78344100D01*
X112524400Y-71698000D02*
X112995300Y-71698000D01*
X139751000Y-94231700D02*
X142521000Y-94231700D01*
X187670900Y-110468000D02*
X187670900Y-100424000D01*
D31*
X130649000Y-117012000D02*
X130649000Y-118974000D01*
D32*
X107284400Y-119385200D02*
X111182700Y-123283500D01*
X193126500Y-89627500D02*
X186939500Y-89627500D01*
X110975200Y-78799800D02*
X110519500Y-78344100D01*
X145770000Y-108770000D02*
X148576500Y-105963500D01*
D33*
X130649000Y-115938200D02*
X130649000Y-117012000D01*
D32*
X157810100Y-82360500D02*
X168103500Y-72067100D01*
X138024900Y-95275700D02*
X138024900Y-96978500D01*
X185310000Y-100286000D02*
X186586100Y-100286000D01*
X136675700Y-110944700D02*
X139450300Y-110944700D01*
X136159100Y-110428100D02*
X130649000Y-115938200D01*
X110730900Y-98490500D02*
X110519500Y-98701900D01*
X107284400Y-118120100D02*
X107284400Y-119385200D01*
X132242400Y-119332600D02*
X131342400Y-119332600D01*
X193086500Y-95977500D02*
X191841400Y-95977500D01*
X129034700Y-82885200D02*
X129444500Y-83295000D01*
X138025000Y-95275600D02*
X138024900Y-95275700D01*
X110519500Y-75966400D02*
X110519500Y-76759000D01*
X136557900Y-110826900D02*
X136675700Y-110944700D01*
X112524400Y-72963100D02*
X112524400Y-71698000D01*
D31*
X143094000Y-108274000D02*
X143397000Y-107970000D01*
X138156000Y-101536000D02*
X138174000Y-101518000D01*
D32*
X119411500Y-125481900D02*
X120727000Y-125481900D01*
X131342400Y-119332600D02*
X131175000Y-119500000D01*
X116555300Y-68138000D02*
X118421000Y-68138000D01*
D31*
X138174000Y-99548500D02*
X138675000Y-99048000D01*
X138175000Y-118575000D02*
X138175000Y-119500000D01*
D32*
X137781900Y-97826800D02*
X138024900Y-98069800D01*
X139068900Y-94231700D02*
X138025000Y-95275600D01*
X174667000Y-67717000D02*
X172129500Y-67717000D01*
X168103500Y-72067100D02*
X172331100Y-72067100D01*
D31*
X123901000Y-108330000D02*
X122698000Y-108330000D01*
D32*
X138024900Y-98397900D02*
X138675000Y-99048000D01*
X136557900Y-110826900D02*
X135619100Y-111765700D01*
X179742000Y-69511800D02*
X179742000Y-67717000D01*
D33*
X137649000Y-115824200D02*
X137649000Y-117012000D01*
D32*
X179742000Y-71449000D02*
X179742000Y-67717000D01*
X179835500Y-125057900D02*
X184554000Y-125057900D01*
X123935600Y-101787500D02*
X123833100Y-101685000D01*
X145400000Y-108770000D02*
X145770000Y-108770000D01*
D31*
X137649000Y-118049000D02*
X138175000Y-118575000D01*
D32*
X110519500Y-75966400D02*
X110519500Y-75173900D01*
X138025000Y-95275600D02*
X136981000Y-94231700D01*
X129276700Y-71849600D02*
X131529500Y-69596800D01*
X138024900Y-96978500D02*
X137781900Y-97221500D01*
D31*
X141387000Y-108274000D02*
X143094000Y-108274000D01*
D32*
X124341500Y-101787500D02*
X123935600Y-101787500D01*
X175406900Y-71315900D02*
X177937900Y-71315900D01*
X187670900Y-100424000D02*
X187532900Y-100286000D01*
X131675000Y-99629400D02*
X134000300Y-99629400D01*
X195896600Y-76132000D02*
X196361000Y-76596400D01*
X145291000Y-94231700D02*
X148061000Y-94231700D01*
X134211000Y-94231700D02*
X136981000Y-94231700D01*
X121911500Y-130432000D02*
X121911500Y-125481900D01*
X148576500Y-105963500D02*
X148576500Y-104932100D01*
D31*
X123956000Y-108274000D02*
X123901000Y-108330000D01*
D32*
X148061000Y-94231700D02*
X150831000Y-94231700D01*
X129624500Y-124889600D02*
X131355600Y-124889600D01*
X174789000Y-69609200D02*
X173405100Y-70993100D01*
D31*
X141387000Y-110774000D02*
X139621000Y-110774000D01*
D32*
X119411500Y-125481900D02*
X120310500Y-124582900D01*
X156510000Y-82360500D02*
X157810100Y-82360500D01*
X174411500Y-130432000D02*
X174411500Y-125481900D01*
X137224600Y-115824200D02*
X137649000Y-115824200D01*
X110519500Y-100287000D02*
X110519500Y-98701900D01*
X173493200Y-125481900D02*
X174411500Y-125481900D01*
D31*
X131675000Y-99973500D02*
X131675000Y-99629400D01*
D32*
X135619100Y-111765700D02*
X135619100Y-114218700D01*
X129276700Y-71849600D02*
X129753500Y-72326400D01*
X110975200Y-81995500D02*
X110975200Y-78799800D01*
X131911500Y-125445500D02*
X131911500Y-125481900D01*
X179411500Y-125481900D02*
X178963700Y-125481900D01*
X177937900Y-71315900D02*
X179742000Y-69511800D01*
X187532900Y-100286000D02*
X191841400Y-95977500D01*
X134462600Y-107791100D02*
X134462600Y-105062400D01*
D33*
X126999800Y-107791100D02*
X126998500Y-107789800D01*
D32*
X117213100Y-123283500D02*
X119411500Y-125481900D01*
D33*
X125911000Y-107774000D02*
X126998500Y-107774000D01*
D32*
X136159100Y-110428100D02*
X136159100Y-109487600D01*
D31*
X138174000Y-101518000D02*
X138174000Y-99548500D01*
X130649000Y-118974000D02*
X131175000Y-119500000D01*
D32*
X144487600Y-84222900D02*
X132102900Y-84222900D01*
X190574100Y-110471000D02*
X190571100Y-110468000D01*
X139751000Y-94231700D02*
X139068900Y-94231700D01*
X179411500Y-130432000D02*
X179411500Y-125656900D01*
D31*
X125911000Y-108274000D02*
X123956000Y-108274000D01*
D32*
X129444500Y-83295000D02*
X131175000Y-83295000D01*
X174789000Y-70698000D02*
X175406900Y-71315900D01*
X136159100Y-110428100D02*
X136557900Y-110826900D01*
X121379500Y-67717000D02*
X118842000Y-67717000D01*
X118421000Y-68138000D02*
X118842000Y-67717000D01*
X174789000Y-69609200D02*
X174789000Y-70698000D01*
D31*
X145400000Y-108770000D02*
X145400000Y-111030000D01*
D32*
X120310500Y-124582900D02*
X129317800Y-124582900D01*
X131355600Y-124889600D02*
X131911500Y-125445500D01*
X179411500Y-125656900D02*
X179411500Y-125481900D01*
D33*
X126998500Y-107789800D02*
X126998500Y-107774000D01*
D32*
X112524400Y-72963100D02*
X112524400Y-74228200D01*
D31*
X138149000Y-101536000D02*
X138156000Y-101536000D01*
D32*
X138024900Y-98069800D02*
X138024900Y-98397900D01*
X173493200Y-125481900D02*
X173493200Y-125295900D01*
X188399000Y-121938000D02*
X187673900Y-121938000D01*
D31*
X144600000Y-107970000D02*
X145400000Y-108770000D01*
X143397000Y-107970000D02*
X144600000Y-107970000D01*
D32*
X146350000Y-82360500D02*
X144487600Y-84222900D01*
X129317800Y-124582900D02*
X129624500Y-124889600D01*
X178963700Y-125481900D02*
X174411500Y-125481900D01*
X119411500Y-130432000D02*
X119411500Y-125481900D01*
X196361000Y-76596400D02*
X196361000Y-85147900D01*
X134000300Y-99629400D02*
X134184100Y-99813200D01*
X128163200Y-72963100D02*
X112524400Y-72963100D01*
D31*
X137649000Y-117012000D02*
X137649000Y-118049000D01*
D32*
X179411500Y-125481900D02*
X179835500Y-125057900D01*
X186939500Y-89627500D02*
X186420100Y-90146900D01*
X188399000Y-121938000D02*
X189124000Y-121938000D01*
X194446500Y-76132000D02*
X195896600Y-76132000D01*
D31*
X121898000Y-107530000D02*
X121898000Y-109275000D01*
D32*
X171911500Y-130432000D02*
X171911500Y-125481900D01*
X134462600Y-107791100D02*
X126999800Y-107791100D01*
D31*
X125911000Y-107774000D02*
X125911000Y-108274000D01*
D32*
X131911500Y-130432000D02*
X131911500Y-125481900D01*
X184554000Y-125057900D02*
X187673900Y-121938000D01*
X189121000Y-110468000D02*
X187670900Y-110468000D01*
X132102900Y-84222900D02*
X131175000Y-83295000D01*
X142521000Y-94231700D02*
X145291000Y-94231700D01*
X186586100Y-100286000D02*
X187532900Y-100286000D01*
X135619100Y-114218700D02*
X137224600Y-115824200D01*
X174667000Y-67717000D02*
X174667000Y-69487200D01*
X131529500Y-69596800D02*
X131529500Y-67717000D01*
X111465200Y-74228200D02*
X110519500Y-75173900D01*
X190574100Y-121938000D02*
X190574100Y-110471000D01*
D31*
X122698000Y-108330000D02*
X121898000Y-107530000D01*
D32*
X150831000Y-94231700D02*
X153601000Y-94231700D01*
X179744000Y-71451000D02*
X179742000Y-71449000D01*
X185115000Y-90146900D02*
X186420100Y-90146900D01*
X120727000Y-125481900D02*
X121911500Y-125481900D01*
X189124000Y-121938000D02*
X190574100Y-121938000D01*
X122933000Y-101685000D02*
X123833100Y-101685000D01*
X178963700Y-125481900D02*
X178963700Y-125315800D01*
X193126500Y-89627500D02*
X193126500Y-88382400D01*
X137781900Y-97221500D02*
X137781900Y-97826800D01*
X172331100Y-72067100D02*
X173405100Y-70993100D01*
X189121000Y-110468000D02*
X190571100Y-110468000D01*
D31*
X131675000Y-99629400D02*
X131675000Y-99048000D01*
D32*
X129276700Y-71849600D02*
X128163200Y-72963100D01*
X112524400Y-74228200D02*
X111465200Y-74228200D01*
X196361000Y-85147900D02*
X193126500Y-88382400D01*
X111182700Y-123283500D02*
X117213100Y-123283500D01*
X171911500Y-125481900D02*
X173493200Y-125481900D01*
X174667000Y-69487200D02*
X174789000Y-69609200D01*
X139450300Y-110944700D02*
X139621000Y-110774000D01*
D31*
X131149000Y-100499000D02*
X131675000Y-99973500D01*
D32*
X136159100Y-109487600D02*
X134462600Y-107791100D01*
X112995300Y-71698000D02*
X116555300Y-68138000D01*
D31*
%TO.N,/AD3*%
X109248500Y-78283000D02*
X109248500Y-76757000D01*
X119532400Y-76499900D02*
X114186500Y-76499900D01*
X183801500Y-117042400D02*
X183801500Y-119578400D01*
X177461900Y-121997100D02*
X175390100Y-119925300D01*
X142755900Y-111774000D02*
X141387000Y-111774000D01*
X180726600Y-122653300D02*
X178038200Y-122653300D01*
X130050500Y-77340800D02*
X120373300Y-77340800D01*
X144156100Y-113407100D02*
X144156100Y-113174200D01*
X187796900Y-113047000D02*
X183801500Y-117042400D01*
X120373300Y-77340800D02*
X119532400Y-76499900D01*
X144156100Y-113174200D02*
X142755900Y-111774000D01*
X183801500Y-119578400D02*
X180726600Y-122653300D01*
X114186500Y-76499900D02*
X114069700Y-76616700D01*
X136600900Y-111774000D02*
X141387000Y-111774000D01*
X177461900Y-122077000D02*
X177461900Y-121997100D01*
X189122000Y-113047000D02*
X187796900Y-113047000D01*
X150674300Y-119925300D02*
X144156100Y-113407100D01*
X178038200Y-122653300D02*
X177461900Y-122077000D01*
X109159900Y-78371600D02*
X109248500Y-78283000D01*
X175390100Y-119925300D02*
X150674300Y-119925300D01*
%TO.N,/AD4*%
X108481100Y-78753100D02*
X107948100Y-78220100D01*
X129954300Y-86088200D02*
X121060300Y-86088200D01*
X107937500Y-76760000D02*
X107937500Y-78220100D01*
X132395400Y-88529300D02*
X129954300Y-86088200D01*
X177776500Y-112550600D02*
X145759500Y-112550600D01*
X179597000Y-113046000D02*
X178271900Y-113046000D01*
X145759500Y-112550600D02*
X145431300Y-112878800D01*
X178271900Y-113046000D02*
X177776500Y-112550600D01*
X141387000Y-110274000D02*
X142449600Y-110274000D01*
X142499800Y-110274000D02*
X142598000Y-110372200D01*
X142449600Y-110274000D02*
X142499800Y-110274000D01*
X107948100Y-78220100D02*
X107937500Y-78220100D01*
%TO.N,/AD5*%
X129776500Y-92954400D02*
X128309500Y-94421400D01*
X128309500Y-94421400D02*
X120790700Y-94421400D01*
X141387000Y-107774000D02*
X140199400Y-107774000D01*
X133720100Y-95370500D02*
X132510500Y-94160900D01*
X132290900Y-92954400D02*
X129776500Y-92954400D01*
X179595000Y-114318000D02*
X147481800Y-114318000D01*
X132510500Y-93174000D02*
X132290900Y-92954400D01*
X136324500Y-95370500D02*
X133720100Y-95370500D01*
X132510500Y-94160900D02*
X132510500Y-93174000D01*
X106671500Y-75130200D02*
X106671500Y-76757000D01*
%TO.N,/AD6*%
X111305200Y-82728000D02*
X113302900Y-80730300D01*
X146275800Y-107274000D02*
X141387000Y-107274000D01*
X147306800Y-106243000D02*
X146275800Y-107274000D01*
X113302900Y-80730300D02*
X113302900Y-78927700D01*
X105440500Y-78219100D02*
X106163800Y-78219100D01*
X178271900Y-118167000D02*
X178129800Y-118024900D01*
X105440500Y-76759000D02*
X105440500Y-78219100D01*
X110672700Y-82728000D02*
X111305200Y-82728000D01*
X178129800Y-118024900D02*
X156183500Y-118024900D01*
X179597000Y-118167000D02*
X178271900Y-118167000D01*
X106163800Y-78219100D02*
X110672700Y-82728000D01*
X121556600Y-84923700D02*
X143554300Y-84923700D01*
X120475600Y-83842700D02*
X121556600Y-84923700D01*
%TO.N,/AD7*%
X108304400Y-81488700D02*
X107778300Y-81488700D01*
X107778300Y-81488700D02*
X104954600Y-78665000D01*
X103494500Y-78665000D02*
X104954600Y-78665000D01*
X179599000Y-119397000D02*
X178273900Y-119397000D01*
X157451200Y-118475000D02*
X177351900Y-118475000D01*
X120099200Y-85499500D02*
X118082900Y-83483200D01*
X177351900Y-118475000D02*
X178273900Y-119397000D01*
X157552000Y-85499500D02*
X120099200Y-85499500D01*
X156911500Y-119014700D02*
X157451200Y-118475000D01*
X147348900Y-105057100D02*
X145632000Y-106774000D01*
X145632000Y-106774000D02*
X141387000Y-106774000D01*
%TO.N,/Chip_Enable*%
X108567900Y-117205000D02*
X108104300Y-116741400D01*
X132352300Y-120757900D02*
X128679500Y-120757900D01*
X127548700Y-120932900D02*
X110548400Y-120932900D01*
X102034400Y-79937000D02*
X100627400Y-81344000D01*
X101271800Y-112133600D02*
X101271800Y-104227600D01*
X132010000Y-118074600D02*
X132970100Y-119034700D01*
X128501900Y-120580300D02*
X127901300Y-120580300D01*
X100627400Y-81344000D02*
X100627400Y-102058000D01*
X105879600Y-116741400D02*
X101271800Y-112133600D01*
X127901300Y-120580300D02*
X127548700Y-120932900D01*
X100627400Y-102058000D02*
X102034400Y-103465000D01*
X110548400Y-120932900D02*
X108567900Y-118952400D01*
X108104300Y-116741400D02*
X105879600Y-116741400D01*
X132970100Y-120140100D02*
X132352300Y-120757900D01*
X108567900Y-118952400D02*
X108567900Y-117205000D01*
X103494500Y-103465000D02*
X102034400Y-103465000D01*
X101271800Y-104227600D02*
X102034400Y-103465000D01*
X131149000Y-117012000D02*
X131149000Y-118074600D01*
X103494500Y-79937000D02*
X102034400Y-79937000D01*
X131149000Y-118074600D02*
X132010000Y-118074600D01*
X132970100Y-119034700D02*
X132970100Y-120140100D01*
X128679500Y-120757900D02*
X128501900Y-120580300D01*
%TO.N,/A10*%
X105225200Y-81205000D02*
X108044900Y-84024700D01*
X103493500Y-81205000D02*
X105225200Y-81205000D01*
X105186600Y-104966000D02*
X108829700Y-104966000D01*
X120707600Y-111774000D02*
X120609800Y-111871800D01*
X125911000Y-111774000D02*
X120707600Y-111774000D01*
X103493500Y-104733000D02*
X104953600Y-104733000D01*
X104953600Y-104733000D02*
X105186600Y-104966000D01*
%TO.N,/Output_Enable*%
X110734900Y-120482800D02*
X127362100Y-120482800D01*
X131649000Y-115949400D02*
X134670300Y-115949400D01*
X103494500Y-82476000D02*
X101886100Y-82476000D01*
X128688400Y-120130200D02*
X128866000Y-120307800D01*
X128866000Y-120307800D02*
X131975500Y-120307800D01*
X103494500Y-106004000D02*
X102034400Y-106004000D01*
X109198400Y-118724200D02*
X109198400Y-118946300D01*
X134670300Y-115949400D02*
X134814700Y-115805000D01*
X127714700Y-120130200D02*
X128688400Y-120130200D01*
X101923800Y-105893400D02*
X101854500Y-105893400D01*
X131975500Y-120307800D02*
X132100600Y-120182700D01*
X102034400Y-106004000D02*
X101923800Y-105893400D01*
X131649000Y-117012000D02*
X131649000Y-115949400D01*
X109198400Y-118946300D02*
X110734900Y-120482800D01*
X127362100Y-120482800D02*
X127714700Y-120130200D01*
%TO.N,/A11*%
X120339400Y-113899600D02*
X121965000Y-112274000D01*
X121965000Y-112274000D02*
X125911000Y-112274000D01*
X113931500Y-113899600D02*
X120339400Y-113899600D01*
X105298100Y-83783000D02*
X103495500Y-83783000D01*
X107462500Y-106986300D02*
X107137800Y-107311000D01*
X113879700Y-113847800D02*
X113931500Y-113899600D01*
X107137800Y-107311000D02*
X103495500Y-107311000D01*
%TO.N,/A9*%
X104954600Y-85015000D02*
X105086300Y-85015000D01*
X118626400Y-113028300D02*
X118626400Y-113324500D01*
X103494500Y-108543000D02*
X104954600Y-108543000D01*
X120380700Y-111274000D02*
X118626400Y-113028300D01*
X104954600Y-108543000D02*
X106528500Y-108543000D01*
X106528500Y-108543000D02*
X106772800Y-108298700D01*
X103494500Y-85015000D02*
X104954600Y-85015000D01*
X125911000Y-111274000D02*
X120380700Y-111274000D01*
%TO.N,/A8*%
X106188100Y-109668900D02*
X105977000Y-109880000D01*
X101110600Y-87210800D02*
X102037400Y-86284000D01*
X108428400Y-94061200D02*
X115892500Y-94061200D01*
X105977000Y-109880000D02*
X105025600Y-109880000D01*
X125911000Y-110774000D02*
X126973600Y-110774000D01*
X126973600Y-110774000D02*
X127105500Y-110774000D01*
X105025600Y-109880000D02*
X104957600Y-109812000D01*
X107295600Y-95194000D02*
X107295600Y-95514300D01*
X104869300Y-97940600D02*
X104372900Y-97940600D01*
X103497500Y-86284000D02*
X102037400Y-86284000D01*
X107295600Y-95514300D02*
X104869300Y-97940600D01*
X126315600Y-91468300D02*
X126457500Y-91610200D01*
X107295600Y-95194000D02*
X108428400Y-94061200D01*
X115892500Y-94061200D02*
X118485400Y-91468300D01*
X101110600Y-94678300D02*
X101110600Y-87210800D01*
X103497500Y-109812000D02*
X104957600Y-109812000D01*
X104372900Y-97940600D02*
X101110600Y-94678300D01*
X118485400Y-91468300D02*
X126315600Y-91468300D01*
%TO.N,/A13*%
X105097300Y-111124000D02*
X103494500Y-111124000D01*
X113173600Y-116150900D02*
X113050200Y-116150900D01*
X102716800Y-90668400D02*
X103716300Y-90668400D01*
X122630300Y-115492000D02*
X113832500Y-115492000D01*
X125911000Y-113274000D02*
X124848300Y-113274000D01*
X113832500Y-115492000D02*
X113173600Y-116150900D01*
X102034400Y-87596000D02*
X101569400Y-88061000D01*
X103494500Y-87596000D02*
X102034400Y-87596000D01*
X124848300Y-113274000D02*
X122630300Y-115492000D01*
X101569400Y-89521000D02*
X102716800Y-90668400D01*
X101569400Y-88061000D02*
X101569400Y-89521000D01*
%TO.N,/A14*%
X113911300Y-117012000D02*
X127649000Y-117012000D01*
X102552900Y-89866200D02*
X103266200Y-89866200D01*
X103493500Y-88827000D02*
X102033400Y-88827000D01*
X102033400Y-88827000D02*
X102033400Y-89346700D01*
X104953600Y-112355000D02*
X105102100Y-112355000D01*
X102033400Y-89346700D02*
X102552900Y-89866200D01*
X103493500Y-112355000D02*
X104953600Y-112355000D01*
%TO.N,/A17*%
X115965600Y-115949400D02*
X115840400Y-116074600D01*
X106840000Y-109417300D02*
X106486100Y-109063400D01*
X105398500Y-90731000D02*
X104077100Y-92052400D01*
X105398500Y-114259000D02*
X105913000Y-113744500D01*
X104077100Y-92052400D02*
X104077100Y-96823700D01*
X105913000Y-111249100D02*
X106840000Y-110322100D01*
X104077100Y-96823700D02*
X104614700Y-97361300D01*
X105683800Y-109063400D02*
X105504000Y-109243200D01*
X105913000Y-113744500D02*
X105913000Y-111249100D01*
X129149000Y-117012000D02*
X129149000Y-115949400D01*
X129149000Y-115949400D02*
X115965600Y-115949400D01*
X106486100Y-109063400D02*
X105683800Y-109063400D01*
X106840000Y-110322100D02*
X106840000Y-109417300D01*
%TO.N,/{slash}write*%
X136604500Y-72037900D02*
X136604500Y-67717000D01*
X137846600Y-125606900D02*
X137926900Y-125526600D01*
X117503300Y-86587600D02*
X117503300Y-81042100D01*
X136911500Y-125606900D02*
X137846600Y-125606900D01*
X141387000Y-108774000D02*
X138243600Y-108774000D01*
X118367300Y-80178100D02*
X128464300Y-80178100D01*
X117889500Y-90670500D02*
X117889500Y-86973800D01*
X117889500Y-86973800D02*
X117503300Y-86587600D01*
X115155400Y-93404600D02*
X117889500Y-90670500D01*
X106127600Y-92690000D02*
X104652300Y-92690000D01*
X106629500Y-114256000D02*
X106629500Y-112585600D01*
X138243600Y-108774000D02*
X137595600Y-109422000D01*
X106629500Y-92188100D02*
X107846000Y-93404600D01*
X134949800Y-122583300D02*
X120706900Y-122583300D01*
X107846000Y-93404600D02*
X115155400Y-93404600D01*
X106629500Y-92188100D02*
X106127600Y-92690000D01*
X117503300Y-81042100D02*
X118367300Y-80178100D01*
X128464300Y-80178100D02*
X136604500Y-72037900D01*
X106629500Y-90728000D02*
X106629500Y-92188100D01*
X136911500Y-130432000D02*
X136911500Y-125606900D01*
X106629500Y-112585600D02*
X106929300Y-112285800D01*
%TO.N,/VCC*%
X125911000Y-109274000D02*
X123449000Y-109274000D01*
D32*
X120065400Y-100117500D02*
X119655300Y-100117500D01*
X183173600Y-87884800D02*
X169073800Y-87884800D01*
X109306400Y-72963100D02*
X109306400Y-74228200D01*
X121419900Y-99048000D02*
X121083000Y-99384900D01*
X167356500Y-84382700D02*
X172429700Y-84382700D01*
X110502400Y-118120100D02*
X110502400Y-116855000D01*
X130125000Y-99048000D02*
X131068600Y-98104400D01*
X136625000Y-121320000D02*
X137014100Y-121320000D01*
X121083000Y-100235000D02*
X121083000Y-99384900D01*
D31*
X137149000Y-118976000D02*
X136625000Y-119500000D01*
D32*
X137143300Y-72408900D02*
X139142000Y-72408900D01*
X183809900Y-93638800D02*
X183809900Y-93218400D01*
X109046600Y-116855000D02*
X108033700Y-115842100D01*
X107900500Y-114257000D02*
X107900500Y-115842100D01*
X178146900Y-107983000D02*
X178144800Y-107980900D01*
X153970000Y-82360500D02*
X155282900Y-83673400D01*
X144731200Y-112858100D02*
X144731200Y-113168800D01*
X121393100Y-106604000D02*
X122402900Y-106604000D01*
X139411500Y-130432000D02*
X139411500Y-125358000D01*
X131175000Y-78377200D02*
X137143300Y-72408900D01*
X182963400Y-94485300D02*
X183809900Y-93638800D01*
X178145900Y-121858300D02*
X175487700Y-119200100D01*
X190183600Y-75044400D02*
X190183600Y-77441000D01*
X178145900Y-121935000D02*
X178145900Y-121858300D01*
X131068600Y-98104400D02*
X135719000Y-98104400D01*
X155282900Y-83673400D02*
X159491400Y-83673400D01*
X127301700Y-99048000D02*
X121419900Y-99048000D01*
X179597000Y-107983000D02*
X181047100Y-107983000D01*
D31*
X130149000Y-117012000D02*
X130149000Y-118976000D01*
X137649000Y-99572000D02*
X137125000Y-99048000D01*
D32*
X111152500Y-118120100D02*
X111802500Y-118120100D01*
X184854400Y-87897500D02*
X183267500Y-87897500D01*
X159491400Y-83673400D02*
X160200700Y-84382700D01*
X159442000Y-71436000D02*
X159442000Y-67717000D01*
X136612000Y-121333000D02*
X136625000Y-121320000D01*
X131175000Y-80295000D02*
X131175000Y-81246800D01*
X190960000Y-74268000D02*
X190183600Y-75044400D01*
X109306400Y-74228200D02*
X108041300Y-74228200D01*
X159418000Y-71460000D02*
X159442000Y-71436000D01*
X121083000Y-100235000D02*
X120182900Y-100235000D01*
X135719000Y-98104400D02*
X136662600Y-99048000D01*
X123322900Y-107524000D02*
X123454000Y-107524000D01*
X128229100Y-121333000D02*
X136612000Y-121333000D01*
X185115000Y-93218400D02*
X183809900Y-93218400D01*
X183226900Y-87938100D02*
X183173600Y-87884800D01*
X143147100Y-111274000D02*
X144731200Y-112858100D01*
X131175000Y-78795000D02*
X131175000Y-78377200D01*
X110502400Y-116855000D02*
X109046600Y-116855000D01*
X120947300Y-109495800D02*
X120947300Y-107049800D01*
X107900500Y-85304100D02*
X107829800Y-85233400D01*
X175487700Y-119200100D02*
X158627800Y-119200100D01*
X130125000Y-99048000D02*
X127301700Y-99048000D01*
X136625000Y-121320000D02*
X136625000Y-119500000D01*
D31*
X143147100Y-111274000D02*
X143606000Y-111274000D01*
D32*
X120947300Y-109817600D02*
X120947300Y-109495800D01*
X122402900Y-106604000D02*
X123322900Y-107524000D01*
D31*
X137649000Y-101536000D02*
X137649000Y-99572000D01*
D32*
X169073800Y-87884800D02*
X167356500Y-86167500D01*
X188733500Y-83829000D02*
X188733500Y-84018400D01*
X188733500Y-77441000D02*
X190183600Y-77441000D01*
D31*
X137149000Y-117012000D02*
X137149000Y-118976000D01*
D32*
X139142000Y-72408900D02*
X139142000Y-67717000D01*
X183226900Y-91114800D02*
X182845600Y-91496100D01*
X136662600Y-99048000D02*
X137125000Y-99048000D01*
X131175000Y-81246800D02*
X131175000Y-81795000D01*
D31*
X143346000Y-109274000D02*
X143850000Y-108770000D01*
D32*
X122513100Y-110209900D02*
X121339600Y-110209900D01*
D31*
X123704000Y-107274000D02*
X123454000Y-107524000D01*
D32*
X179046000Y-107983000D02*
X178146900Y-107983000D01*
D31*
X143850000Y-111030000D02*
X143850000Y-108770000D01*
D32*
X188733500Y-83829000D02*
X190183600Y-83829000D01*
D31*
X141387000Y-111274000D02*
X143147100Y-111274000D01*
D32*
X139411500Y-125358000D02*
X139314200Y-125260700D01*
D31*
X141387000Y-109274000D02*
X143346000Y-109274000D01*
D32*
X180560100Y-92194900D02*
X180560100Y-94485300D01*
X123448000Y-109275000D02*
X122513100Y-110209900D01*
X158573700Y-125270300D02*
X158785300Y-125481900D01*
X120947300Y-107049800D02*
X121393100Y-106604000D01*
X188733500Y-84018400D02*
X184854400Y-87897500D01*
X159418000Y-71460000D02*
X159037300Y-71460000D01*
X179046000Y-107983000D02*
X179597000Y-107983000D01*
X120182900Y-100235000D02*
X120065400Y-100117500D01*
X160200700Y-84382700D02*
X167356500Y-84382700D01*
X111152500Y-118120100D02*
X110502400Y-118120100D01*
D31*
X130649000Y-101536000D02*
X130649000Y-99572000D01*
D32*
X145141300Y-113578900D02*
X156586200Y-113578900D01*
D31*
X143606000Y-111274000D02*
X143850000Y-111030000D01*
D32*
X127077600Y-119741600D02*
X113424000Y-119741600D01*
X190960000Y-73002900D02*
X190960000Y-74268000D01*
X178144800Y-96900600D02*
X180560100Y-94485300D01*
X121339600Y-110209900D02*
X120947300Y-109817600D01*
X183267500Y-87897500D02*
X183226900Y-87938100D01*
X156586200Y-113578900D02*
X156848600Y-113316500D01*
X190183600Y-83829000D02*
X190185700Y-83826900D01*
X172429700Y-84382700D02*
X173719500Y-85672500D01*
X129625000Y-119500000D02*
X129569900Y-119555100D01*
X139142000Y-72408900D02*
X140214800Y-72408900D01*
X129569900Y-119555100D02*
X127264100Y-119555100D01*
X107900500Y-90729000D02*
X107900500Y-85304100D01*
X183226900Y-87938100D02*
X183226900Y-91114800D01*
X120625500Y-109495800D02*
X120947300Y-109495800D01*
D31*
X125911000Y-107274000D02*
X123704000Y-107274000D01*
D32*
X131175000Y-80295000D02*
X131175000Y-78795000D01*
X180560100Y-94485300D02*
X182963400Y-94485300D01*
D31*
X123454000Y-107524000D02*
X123448000Y-107530000D01*
D32*
X190185700Y-77443100D02*
X190183600Y-77441000D01*
D31*
X130149000Y-118976000D02*
X129625000Y-119500000D01*
D32*
X181258900Y-91496100D02*
X180560100Y-92194900D01*
X159411500Y-130432000D02*
X159411500Y-125481900D01*
X181047100Y-107983000D02*
X181100200Y-108036100D01*
X108033700Y-115842100D02*
X107900500Y-115842100D01*
X190185700Y-83826900D02*
X190185700Y-77443100D01*
D31*
X123449000Y-109274000D02*
X123448000Y-109275000D01*
D32*
X159037300Y-71460000D02*
X157339200Y-73158100D01*
X182845600Y-91496100D02*
X181258900Y-91496100D01*
X140964000Y-73158100D02*
X140214800Y-72408900D01*
X113424000Y-119741600D02*
X111802500Y-118120100D01*
X158785300Y-125481900D02*
X159411500Y-125481900D01*
X167356500Y-86167500D02*
X167356500Y-84382700D01*
X131175000Y-81246800D02*
X118334900Y-81246800D01*
X157339200Y-73158100D02*
X140964000Y-73158100D01*
X181100200Y-108036100D02*
X181100200Y-121207400D01*
X127264100Y-119555100D02*
X127077600Y-119741600D01*
X181100200Y-121207400D02*
X180372600Y-121935000D01*
X178144800Y-107980900D02*
X178144800Y-96900600D01*
X179596000Y-121935000D02*
X178145900Y-121935000D01*
X144731200Y-113168800D02*
X145141300Y-113578900D01*
X180372600Y-121935000D02*
X179596000Y-121935000D01*
D31*
X130649000Y-99572000D02*
X130125000Y-99048000D01*
%TO.N,/AD8*%
X156911500Y-125606900D02*
X156269600Y-124965000D01*
X156269600Y-124965000D02*
X152937600Y-124965000D01*
X114924500Y-102194000D02*
X114258600Y-101528100D01*
X127492200Y-92640300D02*
X130578000Y-89554500D01*
X114678000Y-95310100D02*
X115916900Y-95310100D01*
X115916900Y-95310100D02*
X118564700Y-92662300D01*
X155985000Y-71087000D02*
X156904500Y-70167500D01*
X147227400Y-87638800D02*
X147292900Y-87573300D01*
X123570900Y-92640300D02*
X127492200Y-92640300D01*
X144999300Y-105412200D02*
X144137500Y-106274000D01*
X156904500Y-70167500D02*
X156904500Y-67717000D01*
X156911500Y-130432000D02*
X156911500Y-125606900D01*
X123548900Y-92662300D02*
X123570900Y-92640300D01*
X114258600Y-101528100D02*
X114258600Y-101378500D01*
X133221400Y-89554500D02*
X135137100Y-87638800D01*
X144137500Y-106274000D02*
X141387000Y-106274000D01*
X149326300Y-87573300D02*
X147292900Y-87573300D01*
X130578000Y-89554500D02*
X133221400Y-89554500D01*
X118564700Y-92662300D02*
X123548900Y-92662300D01*
X135137100Y-87638800D02*
X147227400Y-87638800D01*
%TO.N,/AD9*%
X154903400Y-68253400D02*
X154367000Y-67717000D01*
X141387000Y-105774000D02*
X143824300Y-105774000D01*
X139095700Y-106301700D02*
X136727400Y-106301700D01*
X143824300Y-105774000D02*
X144782800Y-104815500D01*
X154903400Y-71974000D02*
X154903400Y-68253400D01*
X145677800Y-105810100D02*
X145654800Y-105833100D01*
X145677800Y-104985100D02*
X148152100Y-102510800D01*
X144782800Y-104815500D02*
X145508200Y-104815500D01*
X153180500Y-125897200D02*
X153470800Y-125606900D01*
X139623400Y-105774000D02*
X139095700Y-106301700D01*
X128572800Y-104337300D02*
X127776800Y-103541300D01*
X153470800Y-125606900D02*
X154411500Y-125606900D01*
X126959400Y-102330900D02*
X124823600Y-102330900D01*
X154411500Y-130432000D02*
X154411500Y-125606900D01*
X145677800Y-104985100D02*
X145677800Y-105810100D01*
X127776800Y-103541300D02*
X127776800Y-103148300D01*
X145508200Y-104815500D02*
X145677800Y-104985100D01*
X148152100Y-102510800D02*
X149354100Y-102510800D01*
X115666000Y-98827900D02*
X113099500Y-98827900D01*
X141387000Y-105774000D02*
X139623400Y-105774000D01*
X113099500Y-100288000D02*
X113099500Y-98827900D01*
X134763000Y-104337300D02*
X128572800Y-104337300D01*
X124823600Y-102330900D02*
X124641900Y-102512600D01*
X127776800Y-103148300D02*
X126959400Y-102330900D01*
X136727400Y-106301700D02*
X134763000Y-104337300D01*
X119350700Y-102512600D02*
X115666000Y-98827900D01*
X124641900Y-102512600D02*
X119350700Y-102512600D01*
%TO.N,/AD10*%
X131854100Y-96204700D02*
X120725400Y-96204700D01*
X146911500Y-125063600D02*
X146965600Y-125009500D01*
X120725400Y-96204700D02*
X118552400Y-98377700D01*
X111829500Y-100289000D02*
X111829500Y-98828900D01*
X118552400Y-98377700D02*
X112280700Y-98377700D01*
X112280700Y-98377700D02*
X111829500Y-98828900D01*
X146952300Y-71326400D02*
X146952300Y-67914800D01*
X146911500Y-130432000D02*
X146911500Y-125063600D01*
X132709300Y-95349500D02*
X131854100Y-96204700D01*
X141387000Y-105274000D02*
X139586200Y-105274000D01*
X146952300Y-67914800D02*
X146754500Y-67717000D01*
X139586200Y-105274000D02*
X139510200Y-105198000D01*
%TO.N,/AD11*%
X144217000Y-71008000D02*
X144217000Y-67717000D01*
X144529000Y-71320000D02*
X144217000Y-71008000D01*
X110598900Y-97474400D02*
X110598900Y-97474500D01*
X109248500Y-100285000D02*
X109248500Y-98824900D01*
X138397400Y-105461500D02*
X138397400Y-105726600D01*
X139900600Y-104774000D02*
X139740200Y-104613600D01*
X110598900Y-97474500D02*
X109248500Y-98824900D01*
X139740200Y-104613600D02*
X139245300Y-104613600D01*
X144411500Y-130432000D02*
X144411500Y-125606900D01*
X131827700Y-93529600D02*
X129608700Y-95748600D01*
X139245300Y-104613600D02*
X138397400Y-105461500D01*
X118819100Y-97474400D02*
X110598900Y-97474400D01*
X129608700Y-95748600D02*
X120544900Y-95748600D01*
X120544900Y-95748600D02*
X118819100Y-97474400D01*
X144411500Y-125606900D02*
X145611900Y-125606900D01*
X141387000Y-104774000D02*
X139900600Y-104774000D01*
%TO.N,/AD12*%
X117219900Y-96985700D02*
X109779700Y-96985700D01*
X127326300Y-95173500D02*
X119032100Y-95173500D01*
X119032100Y-95173500D02*
X117219900Y-96985700D01*
X131957800Y-75871200D02*
X134067000Y-73762000D01*
X132946700Y-124142100D02*
X134411500Y-125606900D01*
X139873400Y-104110200D02*
X140037200Y-104274000D01*
X134986100Y-103208900D02*
X136085000Y-104307800D01*
X134067000Y-73762000D02*
X134067000Y-67717000D01*
X109779700Y-96985700D02*
X107937500Y-98827900D01*
X130215000Y-124142100D02*
X132946700Y-124142100D01*
X136085000Y-104307800D02*
X138108200Y-104307800D01*
X140037200Y-104274000D02*
X141387000Y-104274000D01*
X134411500Y-130432000D02*
X134411500Y-125606900D01*
X138305800Y-104110200D02*
X139873400Y-104110200D01*
X138108200Y-104307800D02*
X138305800Y-104110200D01*
X128352000Y-103208900D02*
X134986100Y-103208900D01*
X107937500Y-100288000D02*
X107937500Y-98827900D01*
%TO.N,/AD13*%
X115985300Y-96310600D02*
X119080400Y-93215500D01*
X141486300Y-102281600D02*
X142845000Y-102281600D01*
X143159500Y-102596100D02*
X143159500Y-103214700D01*
X129411500Y-130432000D02*
X129411500Y-125606900D01*
X141389300Y-102378600D02*
X141486300Y-102281600D01*
X136125900Y-97521200D02*
X123780200Y-97521200D01*
X129248400Y-125606900D02*
X128924600Y-125283100D01*
X143159500Y-103214700D02*
X142600200Y-103774000D01*
X142600200Y-103774000D02*
X141387000Y-103774000D01*
X106671500Y-100285000D02*
X106671500Y-98824900D01*
X119080400Y-93215500D02*
X124041600Y-93215500D01*
X106671500Y-98824900D02*
X109185800Y-96310600D01*
X128992000Y-71125100D02*
X128814000Y-71303100D01*
X129411500Y-125606900D02*
X129248400Y-125606900D01*
X142845000Y-102281600D02*
X143159500Y-102596100D01*
X109185800Y-96310600D02*
X115985300Y-96310600D01*
X128992000Y-67717000D02*
X128992000Y-71125100D01*
%TO.N,/AD14*%
X116079000Y-94511400D02*
X118503200Y-92087200D01*
X127080900Y-92190200D02*
X123190300Y-92190200D01*
X105440500Y-100287000D02*
X105440500Y-98826900D01*
X134821800Y-87063700D02*
X132781100Y-89104400D01*
X141387000Y-103274000D02*
X142449600Y-103274000D01*
X118503200Y-92087200D02*
X123087300Y-92087200D01*
X126911500Y-130432000D02*
X126911500Y-125606900D01*
X127493700Y-125431500D02*
X127318300Y-125606900D01*
X130166700Y-89104400D02*
X127080900Y-92190200D01*
X127318300Y-125606900D02*
X126911500Y-125606900D01*
X126454500Y-70682200D02*
X126454500Y-67717000D01*
X123190300Y-92190200D02*
X123087300Y-92087200D01*
X142449600Y-103274000D02*
X142449600Y-102984100D01*
X109756000Y-94511400D02*
X116079000Y-94511400D01*
X139539200Y-87063700D02*
X134821800Y-87063700D01*
X105440500Y-98826900D02*
X109756000Y-94511400D01*
X125837200Y-71299500D02*
X126454500Y-70682200D01*
X132781100Y-89104400D02*
X130166700Y-89104400D01*
X142449600Y-102984100D02*
X142569400Y-102864300D01*
%TO.N,/AD15*%
X123439300Y-125606900D02*
X123389500Y-125557100D01*
X136482400Y-96767900D02*
X137316200Y-95934100D01*
X122030100Y-96767900D02*
X136482400Y-96767900D01*
X124411500Y-130432000D02*
X124411500Y-125606900D01*
X139649000Y-101536000D02*
X139649000Y-100473400D01*
X106924000Y-102193000D02*
X109999100Y-105268100D01*
X103494500Y-102193000D02*
X106924000Y-102193000D01*
X139649000Y-100473400D02*
X139940100Y-100473400D01*
X139940100Y-100473400D02*
X141512500Y-98901000D01*
X123289500Y-71332100D02*
X123917000Y-70704600D01*
X124411500Y-125606900D02*
X123439300Y-125606900D01*
X123917000Y-70704600D02*
X123917000Y-67717000D01*
X121231300Y-97566700D02*
X122030100Y-96767900D01*
%TO.N,/{slash}read_bottom*%
X133954700Y-119380300D02*
X135717900Y-119380300D01*
X141911500Y-125606900D02*
X140811400Y-125606900D01*
X132649000Y-118074600D02*
X133954700Y-119380300D01*
X132649000Y-117012000D02*
X132649000Y-118074600D01*
X141911500Y-130432000D02*
X141911500Y-125606900D01*
%TO.N,/{slash}COLD_RESET*%
X167054500Y-70471500D02*
X167054500Y-67717000D01*
X166911500Y-130432000D02*
X166911500Y-125606900D01*
X141326800Y-123842700D02*
X165715600Y-123842700D01*
X166286000Y-71240000D02*
X167054500Y-70471500D01*
X134149000Y-117012000D02*
X134149000Y-118074600D01*
X165715600Y-123842700D02*
X166429800Y-124556900D01*
X166429800Y-125125200D02*
X166911500Y-125606900D01*
X134149000Y-118074600D02*
X135705000Y-118074600D01*
X166429800Y-124556900D02*
X166429800Y-125125200D01*
X135705000Y-118074600D02*
X135893500Y-118263100D01*
%TO.N,/ALE_L*%
X141387000Y-109774000D02*
X140324400Y-109774000D01*
X137209200Y-110019900D02*
X140078500Y-110019900D01*
X136984500Y-110244600D02*
X137209200Y-110019900D01*
X140078500Y-110019900D02*
X140324400Y-109774000D01*
%TO.N,/ALE_H*%
X129494000Y-109048000D02*
X128768000Y-109774000D01*
X134682500Y-109048000D02*
X129494000Y-109048000D01*
X128768000Y-109774000D02*
X125911000Y-109774000D01*
%TO.N,/Button*%
X181888000Y-92071300D02*
X183699700Y-92071300D01*
X181888000Y-93211400D02*
X181888000Y-92071300D01*
X146313400Y-110577100D02*
X147283000Y-109607500D01*
X194416000Y-91703900D02*
X196491400Y-89628500D01*
X197572500Y-95980500D02*
X197572500Y-94860400D01*
X197611500Y-89628500D02*
X196491400Y-89628500D01*
X183699700Y-92071300D02*
X184051200Y-91719800D01*
X135149000Y-100473400D02*
X135219100Y-100473400D01*
X147283000Y-109607500D02*
X177285100Y-109607500D01*
X194416000Y-91703900D02*
X197572500Y-94860400D01*
X184067100Y-91703900D02*
X184051200Y-91719800D01*
X135219100Y-100473400D02*
X135362900Y-100329600D01*
X194416000Y-91703900D02*
X184067100Y-91703900D01*
X135149000Y-101536000D02*
X135149000Y-100473400D01*
%TO.N,/PPort_2*%
X135649000Y-101536000D02*
X135649000Y-102598600D01*
X135649000Y-102916900D02*
X136589800Y-103857700D01*
X160526000Y-94486600D02*
X160526000Y-93951500D01*
X140710200Y-102544700D02*
X140710200Y-102171300D01*
X140710200Y-102171300D02*
X141083400Y-101798100D01*
X153214500Y-101798100D02*
X160526000Y-94486600D01*
X141083400Y-101798100D02*
X153214500Y-101798100D01*
X160526000Y-93951500D02*
X163085800Y-91391700D01*
X139718500Y-103536400D02*
X140710200Y-102544700D01*
X163085800Y-91391700D02*
X163296000Y-91391700D01*
X138242900Y-103536400D02*
X139718500Y-103536400D01*
X136589800Y-103857700D02*
X137921600Y-103857700D01*
X137921600Y-103857700D02*
X138242900Y-103536400D01*
X135649000Y-102598600D02*
X135649000Y-102916900D01*
%TO.N,/PPort_3*%
X136149000Y-101536000D02*
X136149000Y-102780400D01*
X136698900Y-103330300D02*
X137700100Y-103330300D01*
X136149000Y-102780400D02*
X136698900Y-103330300D01*
X157756000Y-93951500D02*
X157756000Y-94471300D01*
X151416000Y-100811300D02*
X140664600Y-100811300D01*
X138252400Y-102778000D02*
X138554700Y-102778000D01*
X160315800Y-91391700D02*
X157756000Y-93951500D01*
X137700100Y-103330300D02*
X138252400Y-102778000D01*
X160526000Y-91391700D02*
X160315800Y-91391700D01*
X157756000Y-94471300D02*
X151416000Y-100811300D01*
%TO.N,/PPort_4*%
X154986000Y-94501000D02*
X152896600Y-96590400D01*
X152896600Y-96590400D02*
X139428400Y-96590400D01*
X157756000Y-91391700D02*
X157546600Y-91391700D01*
X139428400Y-96590400D02*
X138482000Y-97536800D01*
X136921800Y-102598600D02*
X137059500Y-102736300D01*
X154986000Y-93952300D02*
X154986000Y-94501000D01*
X136649000Y-101536000D02*
X136649000Y-102598600D01*
X157546600Y-91391700D02*
X154986000Y-93952300D01*
X136649000Y-102598600D02*
X136921800Y-102598600D01*
%TO.N,/PPort_5*%
X137149000Y-100375300D02*
X137066900Y-100293200D01*
X137149000Y-101536000D02*
X137149000Y-100375300D01*
X152242500Y-97225800D02*
X139783400Y-97225800D01*
X139783400Y-97225800D02*
X138989800Y-98019400D01*
%TO.N,/PPort_6*%
X150005800Y-98089400D02*
X141033000Y-98089400D01*
X169417700Y-89360100D02*
X154247600Y-89360100D01*
X181888000Y-90139900D02*
X180707900Y-90139900D01*
X138649000Y-101536000D02*
X138649000Y-100473400D01*
X171284200Y-91226600D02*
X169417700Y-89360100D01*
X179621200Y-91226600D02*
X171284200Y-91226600D01*
X154247600Y-89360100D02*
X152216000Y-91391700D01*
X141033000Y-98089400D02*
X138649000Y-100473400D01*
X180707900Y-90139900D02*
X179621200Y-91226600D01*
%TO.N,/74HC164_DSA_DSB*%
X195774600Y-82566000D02*
X195774600Y-83832000D01*
X141387000Y-114774000D02*
X142312900Y-114774000D01*
X194449500Y-83832000D02*
X193124400Y-83832000D01*
X194449500Y-83832000D02*
X195774600Y-83832000D01*
X142312900Y-114774000D02*
X149907700Y-122368800D01*
X149907700Y-122368800D02*
X175096900Y-122368800D01*
X188358900Y-88597500D02*
X184020400Y-88597500D01*
X195773600Y-82565000D02*
X195774600Y-82566000D01*
X194448500Y-82565000D02*
X195773600Y-82565000D01*
X193124400Y-83832000D02*
X188358900Y-88597500D01*
X184020400Y-88597500D02*
X184020400Y-88597600D01*
X175096900Y-122368800D02*
X175536400Y-122808300D01*
%TO.N,/74HC164_CP*%
X191949500Y-71862700D02*
X192140200Y-72053400D01*
X175348700Y-121793700D02*
X176111600Y-122556600D01*
X176111600Y-122556600D02*
X176111600Y-122636500D01*
X192140200Y-72053400D02*
X192140200Y-74172700D01*
X149969300Y-121793700D02*
X175348700Y-121793700D01*
X176111600Y-122636500D02*
X177507800Y-124032700D01*
X188071000Y-76130000D02*
X187408400Y-76130000D01*
X188913100Y-72995900D02*
X188913100Y-72854100D01*
X187733000Y-73091400D02*
X187733000Y-74136000D01*
X189904500Y-71862700D02*
X191949500Y-71862700D01*
X187408400Y-74460600D02*
X187733000Y-74136000D01*
X188071000Y-76130000D02*
X188733500Y-76130000D01*
X177507800Y-124032700D02*
X181953000Y-124032700D01*
X187408400Y-76130000D02*
X187408400Y-74460600D01*
X187733000Y-72995900D02*
X188913100Y-72995900D01*
X187733000Y-73091400D02*
X187733000Y-72995900D01*
X188913100Y-72854100D02*
X189904500Y-71862700D01*
X142449600Y-114274000D02*
X149969300Y-121793700D01*
X141387000Y-114274000D02*
X142449600Y-114274000D01*
X181953000Y-124032700D02*
X187013000Y-118972700D01*
%TO.N,/74HC04*%
X185313000Y-107986000D02*
X183987900Y-107986000D01*
X175354100Y-123450000D02*
X176111600Y-123450000D01*
X183879400Y-109836400D02*
X183987900Y-109727900D01*
X143257000Y-117061700D02*
X149046400Y-122851100D01*
X141387000Y-113774000D02*
X140324400Y-113774000D01*
X149046400Y-122851100D02*
X174755200Y-122851100D01*
X140324400Y-115558600D02*
X141827500Y-117061700D01*
X183987900Y-109727900D02*
X183987900Y-107986000D01*
X141827500Y-117061700D02*
X143257000Y-117061700D01*
X174755200Y-122851100D02*
X175354100Y-123450000D01*
X140324400Y-113774000D02*
X140324400Y-115558600D01*
%TO.N,/{slash}read_top*%
X139379800Y-102829400D02*
X139149000Y-102598600D01*
X144763400Y-72448300D02*
X146567900Y-72448300D01*
X141679500Y-67717000D02*
X141679500Y-69364400D01*
X141679500Y-69364400D02*
X144763400Y-72448300D01*
X139612200Y-102829400D02*
X139379800Y-102829400D01*
X146567900Y-72448300D02*
X146567900Y-72448400D01*
X139149000Y-101536000D02*
X139149000Y-102598600D01*
%TO.N,/F*%
X169909500Y-79322500D02*
X180396900Y-79322500D01*
X168639500Y-78052500D02*
X169909500Y-79322500D01*
X180396900Y-79322500D02*
X181652400Y-80578000D01*
X182632500Y-80578000D02*
X181652400Y-80578000D01*
%TO.N,/G*%
X182632500Y-82485000D02*
X181652400Y-82485000D01*
X169829700Y-81782700D02*
X180950100Y-81782700D01*
X168639500Y-80592500D02*
X169829700Y-81782700D01*
X180950100Y-81782700D02*
X181652400Y-82485000D01*
%TO.N,/E*%
X182632500Y-84428000D02*
X173356200Y-84428000D01*
X172060700Y-83132500D02*
X168639500Y-83132500D01*
X173356200Y-84428000D02*
X172060700Y-83132500D01*
%TO.N,/D*%
X169782800Y-86815800D02*
X168639500Y-85672500D01*
X181652400Y-86299000D02*
X181135600Y-86815800D01*
X182632500Y-86299000D02*
X181652400Y-86299000D01*
X181135600Y-86815800D02*
X169782800Y-86815800D01*
%TO.N,/DP*%
X181498000Y-72806600D02*
X181652400Y-72961000D01*
X182632500Y-72961000D02*
X181652400Y-72961000D01*
X176589900Y-72806600D02*
X181498000Y-72806600D01*
%TO.N,/C*%
X180703900Y-73917500D02*
X181652400Y-74866000D01*
X169093400Y-79177700D02*
X168134900Y-79177700D01*
X170282300Y-76637700D02*
X173002500Y-73917500D01*
X173002500Y-73917500D02*
X180703900Y-73917500D01*
X167467200Y-77586400D02*
X168415900Y-76637700D01*
X170508200Y-80592500D02*
X169093400Y-79177700D01*
X168415900Y-76637700D02*
X170282300Y-76637700D01*
X173719500Y-80592500D02*
X170508200Y-80592500D01*
X167467200Y-78510000D02*
X167467200Y-77586400D01*
X182632500Y-74866000D02*
X181652400Y-74866000D01*
X168134900Y-79177700D02*
X167467200Y-78510000D01*
%TO.N,/B*%
X173719500Y-78052500D02*
X172532800Y-76865800D01*
X173260400Y-74367600D02*
X179253000Y-74367600D01*
X182632500Y-76767000D02*
X181652400Y-76767000D01*
X179253000Y-74367600D02*
X181652400Y-76767000D01*
X172532800Y-75095200D02*
X173260400Y-74367600D01*
X172532800Y-76865800D02*
X172532800Y-75095200D01*
%TO.N,/A*%
X182632500Y-78675000D02*
X181652400Y-78675000D01*
X173719500Y-75512500D02*
X178489900Y-75512500D01*
X178489900Y-75512500D02*
X181652400Y-78675000D01*
%TO.N,/PPort_10*%
X169231200Y-89810200D02*
X172111000Y-92690000D01*
X154976300Y-89810200D02*
X169231200Y-89810200D01*
X142261200Y-92516900D02*
X152709500Y-92516900D01*
X152709500Y-92516900D02*
X153441700Y-91784700D01*
X189122000Y-115586000D02*
X187796900Y-115586000D01*
X187796900Y-115586000D02*
X187376400Y-115165500D01*
X141136000Y-91391700D02*
X142261200Y-92516900D01*
X172111000Y-92690000D02*
X179037900Y-92690000D01*
X187376400Y-115165500D02*
X187173200Y-115165500D01*
X153441700Y-91344800D02*
X154976300Y-89810200D01*
X153441700Y-91784700D02*
X153441700Y-91344800D01*
%TO.N,/PPort_11*%
X185717700Y-111736000D02*
X189121000Y-111736000D01*
X169604200Y-88910000D02*
X171345700Y-90651500D01*
X138366000Y-91391700D02*
X140847700Y-88910000D01*
X140847700Y-88910000D02*
X169604200Y-88910000D01*
X171345700Y-90651500D02*
X178206900Y-90651500D01*
%TO.N,/PPort_12*%
X189122000Y-116859000D02*
X187796900Y-116859000D01*
X156563400Y-91441800D02*
X156563400Y-90924800D01*
X168726500Y-90260300D02*
X172017200Y-93551000D01*
X187627200Y-117028700D02*
X187796900Y-116859000D01*
X156563400Y-90924800D02*
X157227900Y-90260300D01*
X187029900Y-117028700D02*
X187627200Y-117028700D01*
X172017200Y-93551000D02*
X179085500Y-93551000D01*
X137203600Y-92999300D02*
X155005900Y-92999300D01*
X155005900Y-92999300D02*
X156563400Y-91441800D01*
X135596000Y-91391700D02*
X137203600Y-92999300D01*
X157227900Y-90260300D02*
X168726500Y-90260300D01*
%TO.N,/PPort_13*%
X176405400Y-88459900D02*
X176641200Y-88695700D01*
X187090000Y-120668000D02*
X187072700Y-120685300D01*
X135757800Y-88459900D02*
X176405400Y-88459900D01*
X132826000Y-91391700D02*
X135757800Y-88459900D01*
X189121000Y-120668000D02*
X187090000Y-120668000D01*
%TO.N,/PPort_15*%
X179595000Y-111738000D02*
X178269900Y-111738000D01*
X162730700Y-94231700D02*
X161911000Y-94231700D01*
X178269900Y-109770900D02*
X162730700Y-94231700D01*
X178269900Y-111738000D02*
X178269900Y-109770900D01*
%TO.N,/12V_Front*%
X148368600Y-71090800D02*
X149292000Y-70167400D01*
X149411500Y-125606900D02*
X148544500Y-125606900D01*
X149292000Y-70167400D02*
X149292000Y-67717000D01*
X148544500Y-125606900D02*
X148442800Y-125505200D01*
X149411500Y-130432000D02*
X149411500Y-125606900D01*
%TO.N,/UNUSED_Front*%
X151911500Y-130432000D02*
X151911500Y-125125600D01*
X151829500Y-69713400D02*
X154665200Y-72549100D01*
X151911500Y-125125600D02*
X152668200Y-124368900D01*
X152668200Y-124368900D02*
X159480500Y-124368900D01*
X154665200Y-72549100D02*
X156945000Y-72549100D01*
X159480500Y-124368900D02*
X159577300Y-124465700D01*
X151829500Y-67717000D02*
X151829500Y-69713400D01*
X156945000Y-72549100D02*
X157189300Y-72304800D01*
%TO.N,/CIC_DATA1*%
X161979500Y-70482500D02*
X161979500Y-67717000D01*
X161911500Y-125606900D02*
X161132300Y-125606900D01*
X161222000Y-71240000D02*
X161979500Y-70482500D01*
X161911500Y-130432000D02*
X161911500Y-125606900D01*
X161132300Y-125606900D02*
X160967000Y-125441600D01*
%TO.N,/1.6MHZ*%
X164411500Y-125606900D02*
X164396100Y-125591500D01*
X164396100Y-125591500D02*
X164396100Y-124942900D01*
X163331000Y-71082000D02*
X164517000Y-69896000D01*
X164517000Y-69896000D02*
X164517000Y-67717000D01*
X164411500Y-130432000D02*
X164411500Y-125606900D01*
%TO.N,/S_DAT*%
X169611000Y-71291500D02*
X169592000Y-71272500D01*
X169411500Y-125606900D02*
X168312300Y-125606900D01*
X169411500Y-130432000D02*
X169411500Y-125606900D01*
X169592000Y-71272500D02*
X169592000Y-67717000D01*
%TO.N,/LAUDIO*%
X176911500Y-127380902D02*
X175711998Y-126181400D01*
X176018648Y-70616400D02*
X177204500Y-69430548D01*
X176911500Y-130432000D02*
X176911500Y-127380902D01*
X177204500Y-69430548D02*
X177204500Y-67717000D01*
%TO.N,/74HC04-374*%
X179597000Y-110465000D02*
X179597000Y-110252300D01*
X179597000Y-110252300D02*
X176947700Y-107603000D01*
X183550200Y-107155700D02*
X183986900Y-106719000D01*
X181224400Y-107155700D02*
X183550200Y-107155700D01*
X185312000Y-106719000D02*
X183986900Y-106719000D01*
%TO.N,/Q0*%
X184418500Y-72962000D02*
X185398600Y-72962000D01*
X192113200Y-71382000D02*
X192727700Y-71996500D01*
X186978600Y-71382000D02*
X192113200Y-71382000D01*
X191954300Y-77569700D02*
X191954300Y-80075900D01*
X192727700Y-76796300D02*
X191954300Y-77569700D01*
X185398600Y-72962000D02*
X186978600Y-71382000D01*
X192727700Y-71996500D02*
X192727700Y-76796300D01*
X191954300Y-80075900D02*
X193129400Y-81251000D01*
X194454500Y-81251000D02*
X193129400Y-81251000D01*
%TO.N,/Q1*%
X193122400Y-80025000D02*
X192993800Y-80025000D01*
X186573200Y-76041600D02*
X186827900Y-76041600D01*
X194447500Y-80025000D02*
X193122400Y-80025000D01*
X184418500Y-74867000D02*
X185398600Y-74867000D01*
X185398600Y-74867000D02*
X186573200Y-76041600D01*
%TO.N,/Q2*%
X193030200Y-78621800D02*
X192531400Y-78621800D01*
X184418500Y-76768000D02*
X185654000Y-76768000D01*
X185654000Y-76768000D02*
X186475300Y-77589300D01*
X194447500Y-78714000D02*
X193122400Y-78714000D01*
X193122400Y-78714000D02*
X193030200Y-78621800D01*
%TO.N,/Q3*%
X193123400Y-77442000D02*
X192757500Y-77807900D01*
X184418500Y-78676000D02*
X185540100Y-78676000D01*
X192757500Y-77807900D02*
X192529400Y-77807900D01*
X194448500Y-77442000D02*
X193123400Y-77442000D01*
%TO.N,/Q4*%
X187410400Y-78711000D02*
X185542400Y-80579000D01*
X185542400Y-80579000D02*
X184418500Y-80579000D01*
X188735500Y-78711000D02*
X187410400Y-78711000D01*
%TO.N,/Q5*%
X188731500Y-80023000D02*
X187406400Y-80023000D01*
X187406400Y-80023000D02*
X187406400Y-80478200D01*
X187406400Y-80478200D02*
X185398600Y-82486000D01*
X184418500Y-82486000D02*
X185398600Y-82486000D01*
%TO.N,/Q6*%
X185398600Y-83257800D02*
X187407400Y-81249000D01*
X188732500Y-81249000D02*
X187407400Y-81249000D01*
X185398600Y-84429000D02*
X185398600Y-83257800D01*
X184418500Y-84429000D02*
X185398600Y-84429000D01*
%TO.N,/Q7*%
X187408400Y-84290200D02*
X185398600Y-86300000D01*
X184418500Y-86300000D02*
X185398600Y-86300000D01*
X187408400Y-82557000D02*
X187408400Y-84290200D01*
X188733500Y-82557000D02*
X187408400Y-82557000D01*
%TO.N,/TDO*%
X151475200Y-77325700D02*
X133837100Y-77325700D01*
X153970000Y-79820500D02*
X151475200Y-77325700D01*
X133472600Y-81147400D02*
X132825000Y-81795000D01*
X133585800Y-81147400D02*
X133472600Y-81147400D01*
X125911000Y-115274000D02*
X129170100Y-115274000D01*
%TO.N,/TMS*%
X134668700Y-81386900D02*
X133576800Y-80295000D01*
X129483100Y-109999000D02*
X126973600Y-112508500D01*
X132825000Y-80295000D02*
X132073500Y-79543500D01*
X133576800Y-80295000D02*
X132825000Y-80295000D01*
X134668700Y-81938300D02*
X134668700Y-81386900D01*
X126973600Y-112508500D02*
X126973600Y-113774000D01*
X131129700Y-109999000D02*
X129483100Y-109999000D01*
X132073500Y-78292200D02*
X132416800Y-77948900D01*
X149558400Y-77948900D02*
X151430000Y-79820500D01*
X125911000Y-113774000D02*
X126973600Y-113774000D01*
X132073500Y-79543500D02*
X132073500Y-78292200D01*
X132416800Y-77948900D02*
X149558400Y-77948900D01*
%TO.N,/TDI*%
X134137900Y-79820500D02*
X146350000Y-79820500D01*
X129754800Y-110591000D02*
X128661400Y-111684400D01*
X133850500Y-79820500D02*
X134137900Y-79820500D01*
X128661400Y-112785800D02*
X127173200Y-114274000D01*
X127173200Y-114274000D02*
X125911000Y-114274000D01*
X132825000Y-78795000D02*
X133850500Y-79820500D01*
X128661400Y-111684400D02*
X128661400Y-112785800D01*
%TO.N,/TCK*%
X134042600Y-83295000D02*
X134463400Y-82874200D01*
X136389100Y-81031200D02*
X155299300Y-81031200D01*
X134463400Y-82874200D02*
X134546100Y-82874200D01*
X132825000Y-83295000D02*
X134042600Y-83295000D01*
X155299300Y-81031200D02*
X156510000Y-79820500D01*
X129754800Y-112350100D02*
X127330900Y-114774000D01*
X134546100Y-82874200D02*
X136389100Y-81031200D01*
X127330900Y-114774000D02*
X125911000Y-114774000D01*
%TO.N,/CLK*%
X124770500Y-100235000D02*
X126185200Y-101649700D01*
X127108400Y-108908800D02*
X126973600Y-108774000D01*
X122933000Y-100235000D02*
X124770500Y-100235000D01*
X125911000Y-108774000D02*
X126973600Y-108774000D01*
%TD*%
M02*
